<svg width="512" height="140" viewBox="0 0 512 140" fill="none" xmlns="http://www.w3.org/2000/svg">
<path d="M98.9437 29.8885L98.6196 30.2127L68.4097 60.4225L38.1999 30.2099L37.8758 29.8858L46.8104 20.9512L47.1345 21.2753L62.0909 36.2316V6.31887L68.4097 0L74.7285 6.31887V36.2316L89.685 21.2753L90.0091 20.9512L98.9437 29.8885Z" fill="#00CDAE"/>
<path d="M98.9437 106.935L90.0091 115.87L89.685 115.546L74.7285 100.594V130.502L68.4097 136.821L62.0909 130.502V100.594L47.1345 115.546L46.8104 115.87L37.8758 106.935L68.4104 76.4013L98.9437 106.935Z" fill="#2575F0"/>
<path d="M130.501 74.7307H100.593L115.544 89.6872L115.868 90.0113L106.934 98.9459L106.61 98.6218L76.3998 68.4119L106.934 37.8779L115.868 46.8125L115.544 47.1366L100.593 62.0931H130.501L136.819 68.4119L130.501 74.7307Z" fill="#2575F0"/>
<path d="M60.4204 68.4119L30.2106 98.6218L29.8864 98.9459L20.9519 90.0113L21.276 89.6872L36.2274 74.7307H6.31883L0 68.4119L6.31883 62.0931H36.2238L21.2724 47.1366L20.9483 46.8125L29.8829 37.8779L60.4204 68.4119Z" fill="#2575F0"/>
<path d="M213.743 19.7606C211.44 15.5907 207.936 12.2101 203.686 10.0584C199.294 7.77108 194.075 6.62715 188.028 6.62668H168.564V16.3288H187.082C193.076 16.3288 197.716 17.9067 201.003 21.0627C204.29 24.2187 205.933 28.662 205.933 34.3928C205.933 40.0727 204.29 44.4904 201.003 47.6458C197.716 50.8013 193.076 52.3788 187.082 52.3784H168.564V62.3174H188.025C194.07 62.3174 199.289 61.1473 203.683 58.8071C207.935 56.603 211.435 53.1847 213.74 48.9866C216.022 44.4535 217.211 39.4488 217.211 34.3736C217.211 29.2983 216.022 24.2937 213.74 19.7606H213.743Z" fill="#1F2545"/>
<path d="M226.207 1.6965C227.63 0.596709 229.378 0 231.176 0C232.975 0 234.723 0.596709 236.146 1.6965C236.764 2.24233 237.254 2.91762 237.581 3.67439C237.908 4.43116 238.065 5.25076 238.039 6.07486C238.059 6.88649 237.9 7.69251 237.573 8.4355C237.245 9.1785 236.758 9.84018 236.146 10.3733C234.723 11.473 232.975 12.0695 231.176 12.0695C229.378 12.0695 227.63 11.473 226.207 10.3733C225.595 9.84009 225.108 9.17839 224.78 8.43542C224.453 7.69244 224.294 6.88647 224.313 6.07486C224.288 5.25079 224.445 4.43122 224.772 3.67448C225.099 2.91774 225.589 2.24246 226.207 1.6965ZM236.701 18.6161V62.3174H225.577V18.6161H236.701Z" fill="#1F2545"/>
<path d="M273.378 20.6672C275.956 22.3392 277.922 24.8029 278.979 27.6878V18.6161H290.023V62.4744C290.082 66.253 289.259 69.9933 287.617 73.3973C286.043 76.5979 283.541 79.2505 280.438 81.0097C277.257 82.8497 273.405 83.77 268.883 83.7704C262.571 83.7704 257.47 82.2712 253.58 79.2728C249.696 76.2909 247.144 71.8976 246.48 67.0464H257.445C258.004 69.1546 259.307 70.9897 261.112 72.2137C263.197 73.5251 265.632 74.1724 268.093 74.0698C271.354 74.0698 273.983 73.1098 275.981 71.1899C277.979 69.2699 278.979 66.3645 278.98 62.4737V53.1658C277.917 56.0584 275.954 58.5333 273.379 60.2264C270.562 62.0417 267.262 62.9625 263.913 62.8678C260.415 62.9174 256.972 61.9881 253.974 60.1849C250.964 58.3249 248.565 55.6239 247.072 52.4155C245.433 48.6443 244.588 44.5765 244.588 40.4646C244.588 36.3528 245.433 32.2849 247.072 28.5138C248.565 25.3056 250.964 22.6046 253.974 20.7442C256.973 18.9418 260.415 18.0131 263.913 18.0628C267.257 17.9691 270.553 18.876 273.378 20.6672ZM259.022 31.1616C256.918 33.4233 255.866 36.5259 255.867 40.4696C255.868 44.4132 256.92 47.5028 259.022 49.7383C261.125 51.9752 263.912 53.0936 267.383 53.0936C268.934 53.1404 270.477 52.8588 271.911 52.2672C273.346 51.6757 274.639 50.7876 275.706 49.6612C277.887 47.3738 278.979 44.3107 278.979 40.4718C278.979 36.5809 277.888 33.4914 275.706 31.203C274.638 30.0771 273.345 29.1894 271.911 28.5981C270.477 28.0068 268.934 27.7253 267.383 27.772C265.828 27.7057 264.277 27.9737 262.835 28.5579C261.393 29.1422 260.093 30.0291 259.022 31.1588V31.1616Z" fill="#1F2545"/>
<path d="M300.752 1.6965C302.175 0.596767 303.923 8.71473e-05 305.721 8.71473e-05C307.519 8.71473e-05 309.267 0.596767 310.69 1.6965C311.308 2.2422 311.799 2.91743 312.126 3.67422C312.453 4.431 312.61 5.2507 312.584 6.07486C312.604 6.88657 312.445 7.69274 312.117 8.43577C311.79 9.17879 311.303 9.84035 310.69 10.3733C309.267 11.473 307.519 12.0696 305.721 12.0696C303.923 12.0696 302.175 11.473 300.752 10.3733C300.139 9.84022 299.652 9.17859 299.325 8.43559C298.997 7.6926 298.838 6.88654 298.858 6.07486C298.832 5.25072 298.989 4.43107 299.316 3.6743C299.644 2.91754 300.134 2.2423 300.752 1.6965ZM311.246 18.6161V62.3174H300.119V18.6161H311.246Z" fill="#1F2545"/>
<path d="M344.687 52.7725V62.3174H338.85C333.959 62.3174 330.212 61.1342 327.609 58.7678C325.006 56.4015 323.705 52.4574 323.704 46.9355V28.0034H317.63V18.6161H323.704V7.8097H334.826V18.6161H344.607V28.0034H334.826V47.0933C334.826 49.197 335.247 50.6695 336.089 51.511C336.931 52.3525 338.351 52.7729 340.348 52.7725H344.687Z" fill="#1F2545"/>
<path d="M379.238 20.6672C381.816 22.3393 383.781 24.8029 384.838 27.6878V18.6161H395.882V62.3174H384.838V53.1665C383.776 56.0591 381.812 58.5341 379.238 60.2271C376.421 62.0423 373.121 62.9631 369.771 62.8685C366.273 62.9181 362.83 61.9889 359.832 60.1857C356.822 58.3257 354.423 55.6246 352.931 52.4162C351.292 48.6451 350.446 44.5772 350.446 40.4653C350.446 36.3535 351.292 32.2856 352.931 28.5145C354.423 25.3063 356.822 22.6054 359.832 20.745C362.831 18.9426 366.273 18.0139 369.771 18.0635C373.116 17.9696 376.412 18.8763 379.238 20.6672ZM364.881 31.1617C362.777 33.4233 361.725 36.526 361.726 40.4696C361.727 44.4133 362.779 47.5028 364.881 49.7383C366.984 51.9753 369.771 53.0937 373.242 53.0937C374.793 53.1405 376.336 52.8589 377.77 52.2673C379.205 51.6758 380.498 50.7877 381.564 49.6612C383.746 47.3738 384.837 44.3107 384.838 40.4718C384.838 36.581 383.747 33.4914 381.564 31.2031C380.497 30.0771 379.204 29.1893 377.77 28.598C376.336 28.0067 374.793 27.7252 373.242 27.772C371.687 27.7057 370.137 27.9737 368.694 28.558C367.252 29.1422 365.951 30.0291 364.881 31.1588V31.1617Z" fill="#1F2545"/>
<path d="M417.101 3.94455V62.3174H405.979V3.94455H417.101Z" fill="#1F2545"/>
<path d="M228.261 83.5312V138.591H217.216V100.175L203.097 138.591H193.474L179.354 100.332V138.591H168.232V83.5312H181.719L198.444 124.944L214.851 83.5312H228.261Z" fill="#1F2545"/>
<path d="M270.029 97.0199C273.393 98.7813 276.174 101.48 278.035 104.789C279.953 108.474 280.954 112.567 280.954 116.721C280.954 120.874 279.953 124.967 278.035 128.652C276.159 131.95 273.382 134.645 270.029 136.421C266.468 138.211 262.537 139.143 258.552 139.143C254.566 139.143 250.636 138.211 247.074 136.421C243.721 134.645 240.944 131.95 239.068 128.652C237.15 124.967 236.149 120.874 236.149 116.721C236.149 112.567 237.15 108.474 239.068 104.789C240.929 101.48 243.71 98.781 247.074 97.0199C250.643 95.2561 254.571 94.3385 258.552 94.3385C262.533 94.3385 266.46 95.2561 270.029 97.0199ZM250.664 107.236C248.506 109.419 247.428 112.587 247.429 116.74C247.43 120.894 248.508 124.062 250.664 126.246C251.699 127.284 252.928 128.108 254.282 128.67C255.635 129.232 257.087 129.522 258.553 129.522C260.018 129.522 261.47 129.232 262.823 128.67C264.177 128.108 265.407 127.284 266.441 126.246C268.597 124.064 269.676 120.896 269.676 116.74C269.677 112.585 268.598 109.417 266.441 107.236C265.407 106.198 264.177 105.374 262.823 104.812C261.47 104.25 260.018 103.96 258.553 103.96C257.087 103.96 255.635 104.25 254.282 104.812C252.928 105.374 251.699 106.198 250.664 107.236Z" fill="#1F2545"/>
<path d="M306.432 96.6652C309.152 95.0509 312.264 94.2183 315.427 94.2592V106.171H312.192C304.04 106.171 299.964 109.957 299.966 117.53V138.59H288.842V94.8896H299.967V103.252C301.523 100.539 303.749 98.2714 306.432 96.6652Z" fill="#1F2545"/>
<path d="M353.249 97.0199C356.612 98.7811 359.393 101.48 361.254 104.789C363.172 108.474 364.173 112.567 364.173 116.721C364.173 120.874 363.172 124.967 361.254 128.652C359.379 131.95 356.601 134.645 353.249 136.421C349.687 138.211 345.757 139.143 341.771 139.143C337.785 139.143 333.855 138.211 330.293 136.421C326.94 134.645 324.163 131.95 322.288 128.652C320.37 124.967 319.369 120.874 319.369 116.721C319.369 112.567 320.37 108.474 322.288 104.789C324.149 101.48 326.93 98.7811 330.293 97.0199C333.862 95.256 337.79 94.3385 341.771 94.3385C345.752 94.3385 349.68 95.256 353.249 97.0199ZM333.883 107.236C331.727 109.419 330.649 112.587 330.649 116.74C330.649 120.894 331.728 124.062 333.883 126.246C334.918 127.284 336.147 128.107 337.501 128.669C338.855 129.231 340.306 129.52 341.772 129.52C343.237 129.52 344.689 129.231 346.042 128.669C347.396 128.107 348.626 127.284 349.66 126.246C351.816 124.064 352.894 120.896 352.894 116.74C352.894 112.585 351.816 109.417 349.66 107.236C348.626 106.198 347.396 105.374 346.043 104.812C344.689 104.25 343.237 103.96 341.772 103.96C340.306 103.96 338.855 104.25 337.501 104.812C336.147 105.374 334.918 106.198 333.883 107.236Z" fill="#1F2545"/>
<path d="M405.784 98.9139C409.544 101.964 411.897 106.118 412.843 111.377H401.09C400.709 109.219 399.56 107.271 397.856 105.894C396.023 104.504 393.765 103.793 391.466 103.883C390.072 103.856 388.689 104.135 387.415 104.701C386.141 105.267 385.006 106.105 384.091 107.157C382.119 109.339 381.133 112.534 381.133 116.74C381.133 120.947 382.119 124.141 384.091 126.324C385.006 127.377 386.141 128.215 387.415 128.781C388.689 129.346 390.072 129.626 391.466 129.599C393.765 129.688 396.023 128.977 397.856 127.587C399.56 126.21 400.709 124.263 401.09 122.105H412.843C411.896 127.363 409.543 131.518 405.784 134.568C402.024 137.618 397.331 139.143 391.703 139.143C387.747 139.217 383.837 138.28 380.344 136.421C377.064 134.641 374.377 131.94 372.613 128.652C370.797 124.937 369.853 120.856 369.853 116.721C369.853 112.585 370.797 108.505 372.613 104.789C374.363 101.49 377.054 98.7855 380.344 97.0199C383.845 95.1869 387.751 94.2647 391.703 94.3385C397.33 94.3385 402.023 95.8636 405.784 98.9139Z" fill="#1F2545"/>
<path d="M454.457 98.9139C458.217 101.964 460.57 106.118 461.517 111.377H449.764C449.382 109.219 448.233 107.271 446.529 105.894C444.696 104.504 442.438 103.793 440.139 103.883C438.745 103.856 437.362 104.135 436.088 104.701C434.814 105.267 433.679 106.105 432.764 107.157C430.792 109.339 429.806 112.534 429.806 116.74C429.806 120.947 430.792 124.141 432.764 126.324C433.679 127.377 434.814 128.215 436.088 128.781C437.362 129.346 438.745 129.626 440.139 129.599C442.438 129.688 444.696 128.977 446.529 127.587C448.234 126.21 449.383 124.263 449.764 122.105H461.517C460.569 127.363 458.216 131.518 454.457 134.568C450.698 137.618 446.004 139.143 440.376 139.143C436.42 139.217 432.51 138.28 429.017 136.421C425.738 134.641 423.05 131.94 421.286 128.652C419.47 124.937 418.526 120.856 418.526 116.721C418.526 112.585 419.47 108.505 421.286 104.789C423.036 101.49 425.727 98.7857 429.017 97.0199C432.518 95.1868 436.425 94.2646 440.376 94.3385C446 94.3385 450.694 95.8636 454.457 98.9139Z" fill="#1F2545"/>
<path d="M501.075 97.0199C504.439 98.7813 507.22 101.48 509.082 104.789C510.999 108.474 512 112.567 512 116.721C512 120.874 510.999 124.967 509.082 128.652C507.205 131.95 504.428 134.645 501.075 136.421C497.514 138.211 493.584 139.143 489.598 139.143C485.612 139.143 481.682 138.211 478.121 136.421C474.768 134.645 471.99 131.95 470.114 128.652C468.197 124.967 467.196 120.874 467.196 116.721C467.196 112.567 468.197 108.474 470.114 104.789C471.976 101.48 474.757 98.781 478.121 97.0199C481.69 95.2561 485.617 94.3385 489.598 94.3385C493.579 94.3385 497.506 95.2561 501.075 97.0199ZM481.71 107.236C479.554 109.419 478.475 112.587 478.475 116.74C478.475 120.894 479.554 124.062 481.71 126.246C482.745 127.284 483.975 128.107 485.328 128.669C486.682 129.231 488.133 129.52 489.599 129.52C491.065 129.52 492.516 129.231 493.87 128.669C495.223 128.107 496.453 127.284 497.488 126.246C499.643 124.064 500.721 120.896 500.722 116.74C500.723 112.585 499.645 109.417 497.488 107.236C496.453 106.198 495.224 105.374 493.87 104.812C492.516 104.25 491.065 103.96 489.599 103.96C488.133 103.96 486.682 104.25 485.328 104.812C483.974 105.374 482.745 106.198 481.71 107.236Z" fill="#1F2545"/>
</svg>
