<svg width="221" height="60" viewBox="0 0 221 60" fill="none" xmlns="http://www.w3.org/2000/svg">
<path d="M42.6642 12.8879L42.5244 13.0276L29.498 26.054L16.4717 13.0264L16.3319 12.8867L20.1845 9.03408L20.3242 9.17383L26.7734 15.623V2.72468L29.498 0L32.2227 2.72468V15.623L38.6719 9.17383L38.8116 9.03408L42.6642 12.8879Z" fill="#00CDAE"/>
<path d="M42.6642 46.1101L38.8116 49.9627L38.6719 49.823L32.2227 43.376V56.2722L29.498 58.9968L26.7734 56.2722V43.376L20.3242 49.823L20.1845 49.9627L16.3319 46.1101L29.4984 32.944L42.6642 46.1101Z" fill="#2575F0"/>
<path d="M56.2715 32.2237H43.3753L49.8223 38.6728L49.9621 38.8126L46.1095 42.6652L45.9698 42.5254L32.9434 29.499L46.1095 16.3329L49.9621 20.1854L49.8223 20.3252L43.3753 26.7744H56.2715L58.9961 29.499L56.2715 32.2237Z" fill="#2575F0"/>
<path d="M26.0531 29.499L13.0267 42.5254L12.8869 42.6652L9.03438 38.8126L9.17413 38.6728L15.6211 32.2237H2.72466L0 29.499L2.72466 26.7744H15.6196L9.17259 20.3252L9.03284 20.1854L12.8854 16.3329L26.0531 29.499Z" fill="#2575F0"/>
<path d="M92.1652 8.52069C91.1722 6.72266 89.6612 5.26496 87.8287 4.33717C85.9351 3.35087 83.6846 2.85761 81.0772 2.8574H72.6844V7.04092H80.6691C83.2536 7.04092 85.2546 7.72134 86.6719 9.08218C88.0891 10.443 88.7978 12.359 88.7978 14.8301C88.7978 17.2792 88.0891 19.1841 86.6719 20.5448C85.2546 21.9054 83.2536 22.5856 80.6691 22.5854H72.6844V26.8711H81.076C83.6824 26.8711 85.9329 26.3666 87.8275 25.3575C89.6608 24.407 91.1702 22.9331 92.164 21.1229C93.1481 19.1682 93.6607 17.0102 93.6607 14.8218C93.6607 12.6334 93.1481 10.4754 92.164 8.52069H92.1652Z" fill="white"/>
<path d="M97.5397 0.731524C98.1534 0.257299 98.907 0 99.6826 0C100.458 0 101.212 0.257299 101.825 0.731524C102.092 0.966888 102.303 1.25807 102.444 1.58439C102.585 1.9107 102.653 2.26411 102.642 2.61946C102.65 2.96944 102.582 3.31699 102.441 3.63737C102.299 3.95774 102.089 4.24306 101.825 4.47294C101.212 4.94712 100.458 5.20435 99.6826 5.20435C98.907 5.20435 98.1534 4.94712 97.5397 4.47294C97.2757 4.24302 97.0657 3.9577 96.9246 3.63733C96.7835 3.31696 96.7148 2.96943 96.7233 2.61946C96.7124 2.26413 96.7799 1.91073 96.921 1.58442C97.0621 1.25812 97.2733 0.966942 97.5397 0.731524ZM102.065 8.02722V26.8711H97.2682V8.02722H102.065Z" fill="white"/>
<path d="M117.88 8.91164C118.992 9.63261 119.839 10.6949 120.295 11.9389V8.02721H125.057V26.9388C125.083 28.5681 124.728 30.1809 124.02 31.6487C123.341 33.0288 122.262 34.1726 120.924 34.9311C119.552 35.7245 117.891 36.1214 115.942 36.1216C113.22 36.1216 111.02 35.4751 109.343 34.1822C107.668 32.8964 106.568 31.002 106.281 28.9102H111.009C111.251 29.8193 111.812 30.6106 112.591 31.1383C113.49 31.7038 114.54 31.9829 115.601 31.9387C117.007 31.9387 118.141 31.5247 119.002 30.6969C119.864 29.869 120.295 28.6162 120.295 26.9385V22.9249C119.837 24.1722 118.991 25.2394 117.88 25.9694C116.666 26.7522 115.243 27.1492 113.798 27.1084C112.29 27.1298 110.806 26.7291 109.513 25.9516C108.215 25.1495 107.18 23.9849 106.537 22.6014C105.83 20.9753 105.465 19.2212 105.465 17.4482C105.465 15.6752 105.83 13.9211 106.537 12.2951C107.18 10.9117 108.215 9.74703 109.513 8.94485C110.806 8.16764 112.29 7.76718 113.798 7.78863C115.24 7.74824 116.662 8.13929 117.88 8.91164ZM111.69 13.4368C110.782 14.412 110.329 15.7499 110.329 17.4504C110.329 19.1509 110.783 20.4831 111.69 21.447C112.596 22.4116 113.798 22.8938 115.295 22.8938C115.963 22.914 116.629 22.7926 117.247 22.5375C117.866 22.2824 118.423 21.8995 118.884 21.4138C119.824 20.4275 120.295 19.1066 120.295 17.4513C120.295 15.7736 119.824 14.4414 118.884 13.4547C118.423 12.9691 117.866 12.5864 117.247 12.3314C116.629 12.0765 115.963 11.955 115.295 11.9752C114.624 11.9466 113.956 12.0622 113.334 12.3141C112.712 12.566 112.151 12.9485 111.69 13.4356V13.4368Z" fill="white"/>
<path d="M129.683 0.731524C130.297 0.257324 131.051 3.75776e-05 131.826 3.75776e-05C132.602 3.75776e-05 133.355 0.257324 133.969 0.731524C134.235 0.966832 134.447 1.25799 134.588 1.58431C134.729 1.91064 134.796 2.26408 134.785 2.61946C134.794 2.96947 134.725 3.31709 134.584 3.63748C134.443 3.95787 134.233 4.24313 133.969 4.47294C133.355 4.94714 132.602 5.20439 131.826 5.20439C131.051 5.20439 130.297 4.94714 129.683 4.47294C129.419 4.24307 129.209 3.95778 129.068 3.6374C128.927 3.31703 128.858 2.96946 128.867 2.61946C128.856 2.26409 128.923 1.91066 129.064 1.58435C129.206 1.25803 129.417 0.966872 129.683 0.731524ZM134.209 8.02722V26.8711H129.411V8.02722H134.209Z" fill="white"/>
<path d="M148.628 22.7553V26.8711H146.111C144.002 26.8711 142.386 26.3609 141.264 25.3405C140.142 24.3201 139.58 22.6195 139.58 20.2385V12.075H136.961V8.02722H139.58V3.36752H144.376V8.02722H148.593V12.075H144.376V20.3065C144.376 21.2136 144.558 21.8486 144.921 22.2114C145.284 22.5742 145.896 22.7555 146.757 22.7553H148.628Z" fill="white"/>
<path d="M163.526 8.91165C164.638 9.63263 165.485 10.6949 165.941 11.9389V8.02722H170.703V26.8711H165.941V22.9253C165.483 24.1725 164.636 25.2397 163.526 25.9698C162.312 26.7525 160.889 27.1495 159.444 27.1087C157.936 27.1301 156.451 26.7294 155.159 25.9519C153.861 25.1499 152.826 23.9852 152.183 22.6017C151.476 20.9756 151.111 19.2216 151.111 17.4485C151.111 15.6755 151.476 13.9215 152.183 12.2954C152.826 10.912 153.861 9.74736 155.159 8.94517C156.452 8.16801 157.936 7.76755 159.444 7.78894C160.886 7.74844 162.308 8.13939 163.526 8.91165ZM157.336 13.4368C156.428 14.4121 155.975 15.7499 155.975 17.4504C155.976 19.1509 156.429 20.4831 157.336 21.447C158.242 22.4116 159.444 22.8938 160.941 22.8938C161.61 22.914 162.275 22.7926 162.894 22.5375C163.512 22.2825 164.069 21.8995 164.529 21.4138C165.47 20.4275 165.941 19.1067 165.941 17.4513C165.941 15.7736 165.471 14.4414 164.529 13.4547C164.069 12.9691 163.512 12.5863 162.893 12.3314C162.275 12.0764 161.61 11.955 160.941 11.9752C160.271 11.9466 159.602 12.0622 158.98 12.3141C158.358 12.566 157.797 12.9485 157.336 13.4356V13.4368Z" fill="white"/>
<path d="M179.853 1.70088V26.8711H175.057V1.70088H179.853Z" fill="white"/>
<path d="M98.4254 36.0184V59.76H93.6631V43.1954L87.5747 59.76H83.4254L77.3367 43.2631V59.76H72.541V36.0184H78.3569L85.5683 53.8754L92.643 36.0184H98.4254Z" fill="white"/>
<path d="M116.436 41.8347C117.886 42.5942 119.085 43.7579 119.888 45.1849C120.715 46.7737 121.146 48.5385 121.146 50.3296C121.146 52.1207 120.715 53.8854 119.888 55.4743C119.079 56.8964 117.881 58.0586 116.436 58.8245C114.9 59.5963 113.205 59.9982 111.487 59.9982C109.768 59.9982 108.073 59.5963 106.538 58.8245C105.092 58.0587 103.894 56.8965 103.085 55.4743C102.259 53.8854 101.827 52.1207 101.827 50.3296C101.827 48.5385 102.259 46.7737 103.085 45.1849C103.888 43.7578 105.087 42.5941 106.538 41.8347C108.077 41.0741 109.77 40.6785 111.487 40.6785C113.203 40.6785 114.897 41.0741 116.436 41.8347ZM108.086 46.2398C107.155 47.181 106.69 48.5471 106.691 50.3381C106.691 52.1291 107.156 53.4953 108.086 54.4369C108.532 54.8846 109.062 55.2398 109.646 55.4822C110.229 55.7246 110.855 55.8493 111.487 55.8493C112.119 55.8493 112.745 55.7246 113.329 55.4822C113.912 55.2398 114.443 54.8846 114.889 54.4369C115.818 53.4961 116.283 52.1299 116.284 50.3381C116.284 48.5463 115.819 47.1802 114.889 46.2398C114.443 45.7921 113.912 45.4369 113.329 45.1945C112.745 44.9521 112.119 44.8274 111.487 44.8274C110.855 44.8274 110.229 44.9521 109.646 45.1945C109.062 45.4369 108.532 45.7921 108.086 46.2398Z" fill="white"/>
<path d="M132.132 41.6817C133.305 40.9857 134.647 40.6267 136.011 40.6443V45.7806H134.616C131.101 45.7806 129.344 47.4132 129.344 50.6785V59.7597H124.548V40.9161H129.345V44.5218C130.016 43.3522 130.976 42.3744 132.132 41.6817Z" fill="white"/>
<path d="M152.32 41.8347C153.77 42.5941 154.969 43.7578 155.772 45.1849C156.599 46.7737 157.03 48.5385 157.03 50.3296C157.03 52.1207 156.599 53.8854 155.772 55.4743C154.963 56.8965 153.766 58.0586 152.32 58.8245C150.784 59.5963 149.089 59.9982 147.371 59.9982C145.652 59.9982 143.957 59.5963 142.422 58.8245C140.976 58.0587 139.778 56.8965 138.97 55.4743C138.143 53.8854 137.711 52.1207 137.711 50.3296C137.711 48.5385 138.143 46.7737 138.97 45.1849C139.772 43.7578 140.971 42.5941 142.422 41.8347C143.961 41.0741 145.654 40.6785 147.371 40.6785C149.087 40.6785 150.781 41.0741 152.32 41.8347ZM143.969 46.2398C143.04 47.181 142.575 48.5471 142.575 50.3381C142.575 52.1291 143.04 53.4953 143.969 54.4369C144.416 54.8844 144.946 55.2395 145.53 55.4817C146.113 55.724 146.739 55.8487 147.371 55.8487C148.003 55.8487 148.629 55.724 149.212 55.4817C149.796 55.2395 150.326 54.8844 150.773 54.4369C151.702 53.4961 152.167 52.1299 152.167 50.3381C152.167 48.5463 151.702 47.1802 150.773 46.2398C150.326 45.7921 149.796 45.4369 149.213 45.1945C148.629 44.9521 148.003 44.8274 147.371 44.8274C146.739 44.8274 146.113 44.9521 145.529 45.1945C144.946 45.4369 144.416 45.7921 143.969 46.2398Z" fill="white"/>
<path d="M174.973 42.6514C176.594 43.9665 177.609 45.7578 178.017 48.0253H172.949C172.784 47.0948 172.289 46.2551 171.554 45.6611C170.764 45.0618 169.79 44.7554 168.799 44.7939C168.198 44.7824 167.602 44.9028 167.052 45.1467C166.503 45.3906 166.014 45.7521 165.619 46.2057C164.769 47.1468 164.344 48.5243 164.344 50.3381C164.344 52.1518 164.769 53.5294 165.619 54.4707C166.013 54.9244 166.503 55.2859 167.052 55.5299C167.602 55.7738 168.198 55.8942 168.799 55.8825C169.79 55.921 170.764 55.6144 171.554 55.015C172.289 54.4213 172.785 53.5816 172.949 52.6511H178.017C177.608 54.9186 176.594 56.71 174.973 58.0253C173.352 59.3406 171.328 59.9983 168.901 59.9983C167.195 60.0299 165.51 59.6259 164.003 58.8245C162.589 58.0569 161.43 56.8923 160.67 55.4743C159.887 53.8723 159.48 52.1127 159.48 50.3296C159.48 48.5465 159.887 46.7868 160.67 45.1849C161.424 43.7622 162.584 42.596 164.003 41.8347C165.513 41.0443 167.197 40.6467 168.901 40.6785C171.327 40.6785 173.351 41.3361 174.973 42.6514Z" fill="white"/>
<path d="M195.96 42.6514C197.582 43.9665 198.596 45.7578 199.005 48.0253H193.937C193.772 47.0948 193.277 46.2551 192.542 45.6611C191.752 45.0618 190.778 44.7554 189.787 44.7939C189.186 44.7824 188.589 44.9029 188.04 45.1468C187.49 45.3907 187.001 45.7522 186.607 46.2057C185.756 47.1468 185.331 48.5243 185.331 50.3381C185.331 52.1518 185.756 53.5294 186.607 54.4708C187.001 54.9244 187.49 55.2859 188.04 55.5298C188.589 55.7738 189.186 55.8942 189.787 55.8825C190.778 55.921 191.752 55.6144 192.542 55.015C193.277 54.4214 193.773 53.5817 193.937 52.6511H199.005C198.596 54.9187 197.581 56.7101 195.96 58.0253C194.34 59.3406 192.316 59.9983 189.889 59.9983C188.183 60.0299 186.497 59.6259 184.991 58.8245C183.577 58.0568 182.418 56.8923 181.657 55.4743C180.874 53.8723 180.467 52.1127 180.467 50.3296C180.467 48.5465 180.874 46.7869 181.657 45.1849C182.412 43.7622 183.572 42.5961 184.991 41.8347C186.501 41.0443 188.185 40.6466 189.889 40.6785C192.314 40.6785 194.338 41.3361 195.96 42.6514Z" fill="white"/>
<path d="M216.062 41.8347C217.513 42.5942 218.712 43.7579 219.515 45.1849C220.341 46.7737 220.773 48.5385 220.773 50.3296C220.773 52.1207 220.341 53.8854 219.515 55.4743C218.706 56.8964 217.508 58.0586 216.062 58.8245C214.527 59.5963 212.832 59.9982 211.113 59.9982C209.395 59.9982 207.7 59.5963 206.164 58.8245C204.718 58.0587 203.521 56.8965 202.712 55.4743C201.885 53.8854 201.453 52.1207 201.453 50.3296C201.453 48.5385 201.885 46.7737 202.712 45.1849C203.515 43.7578 204.714 42.5941 206.164 41.8347C207.703 41.0741 209.397 40.6785 211.113 40.6785C212.83 40.6785 214.523 41.0741 216.062 41.8347ZM207.712 46.2398C206.782 47.181 206.317 48.5471 206.317 50.3381C206.317 52.1291 206.782 53.4953 207.712 54.4369C208.158 54.8844 208.689 55.2394 209.272 55.4816C209.856 55.7239 210.482 55.8486 211.114 55.8486C211.746 55.8486 212.371 55.7239 212.955 55.4816C213.539 55.2394 214.069 54.8844 214.515 54.4369C215.445 53.4961 215.909 52.1299 215.91 50.3381C215.91 48.5463 215.445 47.1802 214.515 46.2398C214.069 45.7921 213.539 45.4369 212.955 45.1945C212.372 44.9521 211.746 44.8274 211.114 44.8274C210.482 44.8274 209.856 44.9521 209.272 45.1945C208.688 45.4369 208.158 45.7921 207.712 46.2398Z" fill="white"/>
</svg>
