<svg width="101" height="100" viewBox="0 0 101 100" fill="none" xmlns="http://www.w3.org/2000/svg">
<path d="M32.3531 8.85372C32.1125 8.85359 31.8804 8.76465 31.7014 8.60396C31.5223 8.44327 31.4089 8.22213 31.3828 7.98297C31.3568 7.7438 31.4199 7.50342 31.5601 7.30794C31.7004 7.11245 31.9078 6.9756 32.1427 6.92365C32.7962 6.77892 33.463 6.65236 34.1252 6.54728C34.381 6.50669 34.6424 6.56939 34.852 6.72158C35.0616 6.87377 35.2021 7.10299 35.2427 7.3588C35.2833 7.61462 35.2206 7.87608 35.0684 8.08566C34.9162 8.29525 34.687 8.43579 34.4312 8.47638C33.8082 8.57521 33.1804 8.69435 32.5654 8.83068C32.4956 8.84591 32.4245 8.85364 32.3531 8.85372ZM45.9668 8.75822C45.9 8.75817 45.8334 8.75136 45.7679 8.7379C45.1477 8.60982 44.5238 8.50053 43.897 8.41017C43.7701 8.39188 43.648 8.34877 43.5377 8.2833C43.4275 8.21783 43.3312 8.13128 43.2543 8.02859C43.1775 7.9259 43.1217 7.80908 43.09 7.68481C43.0583 7.56054 43.0514 7.43125 43.0697 7.30431C43.088 7.17737 43.1311 7.05528 43.1966 6.94501C43.262 6.83473 43.3486 6.73843 43.4513 6.66161C43.554 6.58478 43.6708 6.52893 43.795 6.49725C43.9193 6.46557 44.0486 6.45868 44.1755 6.47697C44.8398 6.57267 45.5086 6.68966 46.1634 6.82521C46.4002 6.87403 46.6105 7.00898 46.7536 7.20392C46.8966 7.39887 46.9623 7.63995 46.9378 7.88051C46.9133 8.12106 46.8005 8.34398 46.6211 8.50612C46.4417 8.66826 46.2086 8.75809 45.9668 8.75822ZM38.1748 8.10997C37.9186 8.11033 37.6725 8.01 37.4896 7.83061C37.3067 7.65122 37.2016 7.40714 37.197 7.15099C37.1924 6.89484 37.2886 6.64714 37.4649 6.46128C37.6413 6.27542 37.8836 6.1663 38.1396 6.15743C38.8105 6.13282 39.4888 6.12833 40.1566 6.14357C40.2848 6.14648 40.4112 6.17463 40.5285 6.2264C40.6459 6.27817 40.7518 6.35254 40.8404 6.44528C40.929 6.53801 40.9985 6.64729 41.0448 6.76687C41.0911 6.88645 41.1135 7.01399 41.1105 7.1422C41.0982 7.68146 40.65 8.11271 40.1119 8.09611C39.4783 8.08163 38.8444 8.08599 38.2111 8.10919C38.199 8.10975 38.1869 8.11001 38.1748 8.10997ZM50.6668 10.1096C50.5506 10.1096 50.4353 10.0887 50.3265 10.0481C50.0308 9.9382 49.7334 9.83272 49.4345 9.73165C49.1922 9.64642 48.9933 9.46916 48.8807 9.23827C48.7682 9.00738 48.7512 8.74146 48.8333 8.49809C48.9155 8.25473 49.0902 8.05353 49.3196 7.93808C49.5491 7.82262 49.8148 7.80221 50.0591 7.88126C50.3736 7.98732 50.6925 8.1006 51.0072 8.2174C51.222 8.29708 51.402 8.44978 51.5157 8.64878C51.6293 8.84778 51.6693 9.0804 51.6287 9.30594C51.5882 9.53148 51.4696 9.73556 51.2937 9.88248C51.1178 10.0294 50.8959 10.1098 50.6668 10.1096ZM18.0613 64.7764C17.8245 64.7767 17.5958 64.6907 17.4179 64.5344C16.9309 64.1073 16.4563 63.6663 15.9947 63.2119C15.8101 63.0302 15.7054 62.7826 15.7034 62.5236C15.7014 62.2646 15.8024 62.0154 15.9841 61.8309C16.1659 61.6463 16.4135 61.5415 16.6725 61.5396C16.9315 61.5376 17.1807 61.6386 17.3652 61.8203C17.7998 62.2483 18.2468 62.6637 18.7054 63.0658C18.9002 63.2366 19.0192 63.4777 19.0362 63.7362C19.0532 63.9947 18.9668 64.2494 18.7961 64.4442C18.7044 64.5487 18.5914 64.6325 18.4646 64.6898C18.3379 64.7471 18.2004 64.7766 18.0613 64.7764ZM14.1519 60.6951C14.0057 60.6954 13.8614 60.6627 13.7295 60.5996C13.5976 60.5365 13.4817 60.4445 13.3902 60.3305C12.9844 59.8255 12.5934 59.3089 12.2175 58.7813C12.072 58.5701 12.0153 58.3102 12.0598 58.0577C12.1042 57.8052 12.2461 57.5802 12.455 57.4314C12.6638 57.2826 12.9228 57.2219 13.176 57.2624C13.4292 57.3029 13.6563 57.4414 13.8084 57.6479C14.1624 58.1446 14.5307 58.6311 14.9128 59.1067C15.0282 59.2502 15.1007 59.4234 15.1219 59.6063C15.143 59.7892 15.1121 59.9744 15.0325 60.1405C14.9529 60.3065 14.8281 60.4467 14.6722 60.5449C14.5164 60.643 14.3361 60.6951 14.1519 60.6951ZM11.0082 55.9981C10.833 55.9982 10.6611 55.9512 10.5103 55.8621C10.3596 55.773 10.2356 55.6449 10.1513 55.4914C9.83946 54.9235 9.54415 54.3467 9.26578 53.7617C9.15632 53.5281 9.14375 53.2606 9.23084 53.0178C9.31792 52.7749 9.49757 52.5764 9.73055 52.4656C9.96353 52.3547 10.2309 52.3406 10.4743 52.4262C10.7176 52.5119 10.9172 52.6903 11.0295 52.9227C11.2916 53.4734 11.5697 54.0165 11.8632 54.5512C11.9449 54.6998 11.9865 54.8672 11.9838 55.0368C11.9812 55.2064 11.9344 55.3723 11.8481 55.5183C11.7618 55.6644 11.639 55.7854 11.4917 55.8695C11.3444 55.9536 11.1778 55.9979 11.0082 55.9981ZM8.73043 50.8248C8.52628 50.8247 8.3273 50.7607 8.16143 50.6417C7.99555 50.5227 7.87113 50.3547 7.80562 50.1613C7.59786 49.5475 7.40807 48.9278 7.23648 48.3029C7.20254 48.1793 7.1933 48.0501 7.20928 47.9229C7.22525 47.7956 7.26614 47.6727 7.3296 47.5613C7.39306 47.4498 7.47785 47.352 7.57913 47.2733C7.68041 47.1946 7.7962 47.1367 7.91988 47.1027C8.04356 47.0688 8.17272 47.0595 8.29999 47.0754C8.42726 47.0914 8.55014 47.1323 8.6616 47.1957C8.77306 47.2592 8.87093 47.344 8.94959 47.4453C9.02826 47.5466 9.08619 47.6624 9.12007 47.7861C9.28082 48.3721 9.46109 48.9606 9.65562 49.5348C9.69676 49.6562 9.71358 49.7846 9.7051 49.9125C9.69662 50.0405 9.66302 50.1655 9.60621 50.2805C9.5494 50.3954 9.47051 50.498 9.37402 50.5825C9.27754 50.667 9.16537 50.7316 9.0439 50.7727C8.943 50.8072 8.83708 50.8248 8.73043 50.8248ZM7.3941 45.3328C7.1607 45.3325 6.93512 45.2486 6.75824 45.0964C6.58135 44.9441 6.46485 44.7335 6.42984 44.5027C6.33316 43.8658 6.25406 43.217 6.19449 42.574C6.18266 42.4463 6.1961 42.3176 6.23405 42.1951C6.27199 42.0726 6.3337 41.9587 6.41564 41.8601C6.49759 41.7614 6.59816 41.6799 6.71162 41.6201C6.82509 41.5604 6.94921 41.5235 7.07691 41.5117C7.20461 41.4999 7.33338 41.5133 7.45588 41.5513C7.57838 41.5892 7.69221 41.6509 7.79086 41.7329C7.88951 41.8148 7.97105 41.9154 8.03082 42.0289C8.09059 42.1423 8.12742 42.2665 8.13922 42.3941C8.19527 42.9994 8.26969 43.6104 8.3607 44.21C8.38178 44.3491 8.37254 44.4911 8.33363 44.6263C8.29473 44.7615 8.22706 44.8867 8.13526 44.9934C8.04347 45.1 7.92972 45.1855 7.80179 45.2441C7.67387 45.3027 7.5348 45.333 7.3941 45.3328ZM7.03707 39.6922L7.01441 39.692C6.75549 39.6861 6.50952 39.5776 6.33059 39.3904C6.15166 39.2031 6.05444 38.9525 6.06031 38.6936C6.07496 38.0473 6.10875 37.3947 6.16031 36.7537C6.20367 36.2162 6.67418 35.8174 7.21226 35.8588C7.3401 35.8691 7.46465 35.9045 7.57881 35.9629C7.69297 36.0214 7.7945 36.1017 7.8776 36.1994C7.9607 36.2971 8.02375 36.4102 8.06314 36.5323C8.10254 36.6543 8.1175 36.7829 8.10718 36.9108C8.05818 37.5188 8.02672 38.1281 8.01285 38.7379C8.00703 38.9929 7.90169 39.2355 7.71934 39.4138C7.537 39.5921 7.29212 39.6921 7.03707 39.6922ZM7.65582 34.074C7.51126 34.0742 7.36848 34.0422 7.23777 33.9805C7.10706 33.9188 6.99168 33.8288 6.89997 33.717C6.80826 33.6053 6.7425 33.4746 6.70744 33.3343C6.67238 33.1941 6.66889 33.0478 6.69722 32.9061C6.82412 32.2707 6.96956 31.6392 7.13336 31.0123C7.16579 30.8882 7.22234 30.7718 7.29979 30.6695C7.37724 30.5673 7.47406 30.4814 7.58472 30.4166C7.69539 30.3518 7.81774 30.3094 7.94479 30.2919C8.07183 30.2744 8.20108 30.282 8.32515 30.3145C8.44923 30.3469 8.5657 30.4035 8.66792 30.4809C8.77014 30.5583 8.85611 30.6552 8.92091 30.7658C8.98571 30.8765 9.02808 30.9989 9.0456 31.1259C9.06311 31.2529 9.05544 31.3822 9.02301 31.5063C8.8688 32.0962 8.73189 32.6905 8.61246 33.2885C8.56832 33.5098 8.4489 33.709 8.2745 33.8522C8.1001 33.9954 7.88148 34.0738 7.65582 34.074ZM21.8552 67.6408C21.6676 67.6408 21.484 67.5866 21.3265 67.4846C21.045 67.3025 20.766 67.1163 20.4898 66.9262C20.3842 66.8534 20.294 66.7606 20.2243 66.6529C20.1547 66.5453 20.1069 66.425 20.0837 66.2989C20.0605 66.1728 20.0624 66.0433 20.0892 65.918C20.1161 65.7926 20.1674 65.6737 20.2402 65.5682C20.3129 65.4625 20.4058 65.3723 20.5134 65.3025C20.6211 65.2328 20.7414 65.185 20.8675 65.1618C20.9937 65.1386 21.1232 65.1405 21.2486 65.1674C21.374 65.1943 21.4929 65.2457 21.5984 65.3186C21.8564 65.4961 22.1214 65.6731 22.3859 65.8436C22.5631 65.958 22.6984 66.1267 22.7718 66.3245C22.8451 66.5222 22.8525 66.7384 22.7927 66.9407C22.733 67.143 22.6094 67.3205 22.4404 67.4467C22.2714 67.5729 22.0661 67.641 21.8552 67.6408Z" fill="#00CDAE"/>
<path d="M63.948 5.27344V9.68359L59.5535 9.66797V22.8516H50.7644V5.27344H63.948Z" fill="#2CDD91"/>
<path d="M64.0552 9.68359H63.948L59.5535 9.66797L63.948 5.27344L64.0552 9.68359Z" fill="#2CDD91"/>
<path d="M78.0105 18.8965L88.5574 28.125H59.5535V9.66797L63.948 9.68359H64.0552L88.5574 9.76562L78.0105 18.8965Z" fill="#00CDAE"/>
<path d="M7.39312 79.7748L3.49116 83.6852C3.30949 83.8687 3.20795 84.1168 3.20876 84.3751C3.20956 84.6334 3.31265 84.8808 3.49547 85.0633C3.67828 85.2457 3.92592 85.3483 4.1842 85.3486C4.44248 85.3489 4.69036 85.2469 4.87358 85.0648L8.77554 81.1545C8.9572 80.9709 9.05875 80.7228 9.05794 80.4645C9.05713 80.2063 8.95404 79.9588 8.77123 79.7764C8.58842 79.5939 8.34078 79.4913 8.0825 79.491C7.82422 79.4907 7.57634 79.5928 7.39312 79.7748ZM81.3535 88.0945C81.2628 88.0038 81.1552 87.9319 81.0367 87.8828C80.9183 87.8337 80.7913 87.8084 80.663 87.8084C80.5348 87.8084 80.4078 87.8337 80.2894 87.8828C80.1709 87.9319 80.0633 88.0038 79.9726 88.0945C79.8819 88.1852 79.81 88.2928 79.7609 88.4113C79.7118 88.5297 79.6865 88.6567 79.6865 88.785C79.6865 88.9132 79.7118 89.0402 79.7609 89.1586C79.81 89.2771 79.8819 89.3847 79.9726 89.4754L87.8671 97.3699C88.0578 97.5607 88.3078 97.6561 88.5576 97.6561C88.8074 97.6561 89.0576 97.5607 89.248 97.3699C89.3387 97.2793 89.4106 97.1716 89.4597 97.0532C89.5088 96.9347 89.5341 96.8077 89.5341 96.6795C89.5341 96.5513 89.5088 96.4243 89.4597 96.3058C89.4106 96.1873 89.3387 96.0797 89.248 95.9891L81.3535 88.0945ZM98.0371 62.5906L95.8398 60.3934L91.0058 55.5594C90.9599 55.5135 90.9095 55.4723 90.8554 55.4365C90.8218 55.4143 90.7861 55.3982 90.7505 55.3805C90.7292 55.3697 90.7091 55.3561 90.6869 55.3469C90.6457 55.3301 90.6029 55.3193 90.5603 55.3084C90.5416 55.3037 90.5236 55.2959 90.5048 55.292C90.3798 55.2674 90.2512 55.2674 90.1261 55.292C90.1072 55.2959 90.0896 55.3035 90.071 55.3084C90.0283 55.3195 89.9853 55.3299 89.9441 55.3469C89.922 55.3561 89.9019 55.3697 89.8806 55.3805C89.8451 55.398 89.8091 55.4141 89.7755 55.4365C89.7215 55.4724 89.6711 55.5136 89.6251 55.5594L83.9199 61.2646L79.7486 65.4359L57.6601 43.3926L51.6433 37.3879V3.51562C51.6433 3.25662 51.5404 3.00823 51.3573 2.82509C51.1741 2.64195 50.9257 2.53906 50.6667 2.53906C50.4077 2.53906 50.1594 2.64195 49.9762 2.82509C49.7931 3.00823 49.6902 3.25662 49.6902 3.51562V37.3891L46.4427 40.6434L37.6959 49.408C37.6941 49.4098 37.6929 49.4117 37.6914 49.4133L11.7833 75.375C11.6004 75.5583 11.4978 75.8069 11.498 76.0659C11.4983 76.3249 11.6015 76.5732 11.7848 76.7561C11.9682 76.9391 12.2167 77.0417 12.4757 77.0415C12.7347 77.0412 12.983 76.938 13.166 76.7547L38.7664 51.1008C38.8293 51.1027 38.8933 51.1061 38.9539 51.1061C39.7876 51.1061 40.2925 50.9066 40.5943 50.7875L40.6474 50.7668C40.8236 50.8855 41.2031 51.223 42.013 52.0857C43.6007 53.7771 44.6751 54.4668 45.7212 54.4668C46.7996 54.4666 47.5277 53.7385 48.232 53.034C48.3464 52.9195 48.4046 52.9195 48.456 52.9195C48.7742 52.9195 49.3679 53.241 49.9421 53.5518C50.8724 54.0555 52.0304 54.6824 53.4669 54.874C53.6103 54.8932 53.7601 54.9027 53.9117 54.9027C56.5886 54.9027 60.2392 51.7508 61.7964 50.2805L78.3666 66.817L69.2214 75.9625L55.8494 62.5906C55.8035 62.5447 55.7531 62.5036 55.699 62.4678C55.6654 62.4455 55.6296 62.4295 55.5941 62.4117C55.5728 62.401 55.5527 62.3873 55.5304 62.3781C55.4892 62.3613 55.4464 62.3506 55.4039 62.3396C55.3851 62.335 55.3671 62.3271 55.3484 62.3232C55.2234 62.2986 55.0947 62.2986 54.9697 62.3232C54.9507 62.3271 54.9332 62.3348 54.9146 62.3396C54.8718 62.3508 54.8289 62.3611 54.7876 62.3781C54.7656 62.3873 54.7455 62.401 54.7242 62.4117C54.6886 62.4293 54.6527 62.4453 54.6191 62.4678C54.5651 62.5037 54.5147 62.5448 54.4687 62.5906L39.6248 77.4344L39.6244 77.4348L33.3748 83.6844L33.3746 83.6848L21.0701 95.9891C20.9794 96.0797 20.9074 96.1873 20.8583 96.3058C20.8092 96.4243 20.784 96.5513 20.784 96.6795C20.784 96.8077 20.8092 96.9347 20.8583 97.0532C20.9074 97.1716 20.9794 97.2793 21.0701 97.3699C21.2607 97.5607 21.5105 97.6562 21.7605 97.6562C22.0105 97.6562 22.2603 97.5609 22.4511 97.3701L40.6867 79.1348L42.6466 79.2936C42.7029 79.298 42.7599 79.3004 42.8191 79.3004H42.8197C44.7324 79.3 47.9613 76.6678 51.9837 73.2268C53.0455 72.3186 54.2458 71.2916 54.5998 71.0984C54.9398 71.1691 55.7671 72.0752 56.3185 72.6791C57.0791 73.5121 57.9408 74.4561 58.9832 75.2064C59.5648 75.6252 60.1853 75.8373 60.8277 75.8373C62.3415 75.8373 63.5226 74.6613 64.223 73.7256L69.5203 79.0229L75.3673 84.8701C75.558 85.0609 75.808 85.1562 76.0578 85.1562C76.3076 85.1562 76.5578 85.0609 76.7482 84.8701C76.9386 84.6797 77.0339 84.4299 77.0339 84.1797C77.0339 83.9295 76.9386 83.6797 76.7478 83.4891L72.6507 79.392L70.6027 77.3438L84.2007 63.7457L84.9011 65.7518C84.9524 65.8985 85.0379 66.0308 85.1506 66.1378C85.2633 66.2449 85.3999 66.3234 85.549 66.367C85.6982 66.4106 85.8556 66.418 86.0082 66.3886C86.1608 66.3591 86.3041 66.2937 86.4263 66.1977L88.8953 64.2578H92.073C92.2766 64.2579 92.475 64.1943 92.6406 64.0758L95.0435 62.3594L96.656 63.9717C96.7467 64.0624 96.8543 64.1343 96.9728 64.1834C97.0912 64.2325 97.2182 64.2578 97.3464 64.2578C97.4747 64.2578 97.6016 64.2325 97.7201 64.1834C97.8386 64.1343 97.9462 64.0624 98.0369 63.9717C98.1276 63.881 98.1996 63.7734 98.2487 63.6549C98.2978 63.5364 98.3231 63.4094 98.3232 63.2812C98.3232 63.1529 98.2979 63.0259 98.2488 62.9074C98.1997 62.7889 98.1278 62.6813 98.0371 62.5906ZM60.4152 48.9014C58.5156 50.6881 55.564 52.9498 53.9123 52.9498C53.8466 52.9498 53.7839 52.9459 53.7257 52.9381C52.6451 52.7939 51.7035 52.284 50.8726 51.8344C50.0482 51.3881 49.2695 50.9666 48.4564 50.9666C47.8468 50.9666 47.307 51.1977 46.8513 51.6533C46.3474 52.157 45.9714 52.5137 45.7214 52.5139C45.4873 52.5139 44.8791 52.2846 43.4375 50.749C42.2722 49.508 41.6681 48.9645 41.039 48.8236L48.4873 41.3598L50.6683 39.1742L59.4947 47.9828L60.4152 48.9014ZM62.8218 72.3254C62.3265 73.0387 61.5406 73.8842 60.8275 73.8842C60.6 73.8842 60.3699 73.7984 60.1242 73.6213C59.2462 72.9893 58.457 72.1248 57.7605 71.3621C56.673 70.1707 55.7335 69.142 54.5822 69.142C54.2916 69.1419 54.005 69.2103 53.7457 69.3414C53.2292 69.5994 52.3509 70.3424 50.714 71.7428C48.5875 73.5617 44.1626 77.3469 42.8191 77.3473L42.4992 77.3221L55.1589 64.6623L62.8218 72.3254ZM93.6437 60.9594L91.7601 62.3047H88.5574C88.3386 62.3047 88.1261 62.3781 87.9541 62.5133L86.2945 63.8174L85.7341 62.2121L90.3152 57.6311L93.6437 60.9594ZM9.05054 27.5672C11.3763 29.21 14.1166 30.0781 16.9753 30.0781C24.5679 30.0781 30.7449 23.9012 30.7449 16.3086C30.7449 13.6117 29.9654 11.001 28.4908 8.75898C25.9337 4.86426 21.6289 2.53906 16.9753 2.53906C9.38276 2.53906 3.20581 8.71602 3.20581 16.3086C3.20581 20.7799 5.39116 24.9889 9.05054 27.5672ZM16.9753 4.49219C20.9689 4.49219 24.6634 6.48789 26.8585 9.83145C28.1234 11.7547 28.7917 13.9943 28.7917 16.3086C28.7917 22.8242 23.491 28.125 16.9753 28.125C14.5222 28.125 12.1716 27.3805 10.1765 25.9713C7.03472 23.7578 5.15894 20.1455 5.15894 16.3086C5.15894 9.79297 10.4597 4.49219 16.9753 4.49219Z" fill="#3A3A3A"/>
<path d="M21.6664 11.1074C21.6677 12.2727 21.2337 13.3965 20.4494 14.2584C19.5919 15.2043 18.3539 15.7986 16.9752 15.7986C15.5964 15.7986 14.3585 15.2043 13.5009 14.2584C12.7166 13.3966 12.2825 12.2728 12.2839 11.1074C12.2839 8.5168 14.3845 6.41602 16.9752 6.41602C19.5658 6.41602 21.6664 8.5168 21.6664 11.1074Z" fill="#00CDAE"/>
<path d="M24.6454 21.0949C24.6454 21.7803 24.5567 22.4449 24.3848 23.0758C22.4639 21.8559 19.743 21.0949 16.7276 21.0949C13.9311 21.0949 11.3901 21.7492 9.50318 22.8174C9.37081 22.2528 9.30429 21.6748 9.30494 21.0949C9.30494 18.1107 11.0094 15.5229 13.501 14.2588C14.3585 15.2047 15.5965 15.799 16.9752 15.799C18.354 15.799 19.5919 15.2047 20.4495 14.2588C22.9409 15.5229 24.6454 18.1107 24.6454 21.0949Z" fill="#00CDAE"/>
</svg>
