<svg width="38" height="37" viewBox="0 0 38 37" fill="none" xmlns="http://www.w3.org/2000/svg">
<path d="M5.00001 21.5002L7.75563 32.5227C7.83313 32.8327 7.87188 32.9877 7.91772 33.1231C8.36554 34.4452 9.55616 35.3748 10.9474 35.4886C11.0898 35.5002 11.2496 35.5002 11.5691 35.5002C11.9693 35.5002 12.1693 35.5002 12.3379 35.4839C14.0037 35.3223 15.3221 34.0039 15.4837 32.3381C15.5 32.1695 15.5 31.9695 15.5 31.5693V6.62521M30.375 20.6252C33.7577 20.6252 36.5 17.883 36.5 14.5002C36.5 11.1175 33.7577 8.37521 30.375 8.37521M15.9375 6.62521H9.375C5.02576 6.62521 1.5 10.151 1.5 14.5002C1.5 18.8495 5.02576 22.3752 9.375 22.3752H15.9375C19.0288 22.3752 22.8102 24.0323 25.7275 25.6226C27.4294 26.5504 28.2804 27.0142 28.8378 26.946C29.3546 26.8827 29.7454 26.6506 30.0483 26.2272C30.375 25.7705 30.375 24.8567 30.375 23.0292V5.97121C30.375 4.1437 30.375 3.22995 30.0483 2.77327C29.7454 2.34979 29.3546 2.11774 28.8378 2.05444C28.2804 1.98617 27.4294 2.45006 25.7275 3.37783C22.8102 4.96816 19.0287 6.62521 15.9375 6.62521Z" stroke="white" stroke-width="3" stroke-linecap="round" stroke-linejoin="round"/>
</svg>
