<svg width="38" height="38" viewBox="0 0 38 38" fill="none" xmlns="http://www.w3.org/2000/svg">
<path d="M8.5 33.1521H13.068C13.6636 33.1521 14.2555 33.223 14.8329 33.3647L19.6596 34.5376C20.7069 34.7927 21.7979 34.8176 22.8561 34.612L28.1927 33.5738C29.6024 33.2991 30.8993 32.6241 31.9156 31.6355L35.6913 27.9626C36.7696 26.9155 36.7696 25.2163 35.6913 24.1674C34.7205 23.2231 33.1833 23.1168 32.085 23.9176L27.6845 27.1281C27.0543 27.5887 26.2875 27.8368 25.4989 27.8368H21.2496L23.9544 27.8367C25.4789 27.8367 26.7137 26.6354 26.7137 25.1524V24.6156C26.7137 23.3842 25.8522 22.3105 24.6246 22.0128L20.45 20.9976C19.7707 20.8328 19.0749 20.7496 18.3755 20.7496C16.6871 20.7496 13.6308 22.1475 13.6308 22.1475L8.5 24.2931M1.5 23.5496L1.5 33.6996C1.5 34.6797 1.5 35.1697 1.69074 35.5441C1.85852 35.8733 2.12623 36.1411 2.45552 36.3088C2.82986 36.4996 3.31991 36.4996 4.3 36.4996H5.7C6.68009 36.4996 7.17014 36.4996 7.54448 36.3088C7.87377 36.1411 8.14148 35.8733 8.30926 35.5441C8.5 35.1697 8.5 34.6797 8.5 33.6996V23.5496C8.5 22.5695 8.5 22.0794 8.30926 21.7051C8.14148 21.3758 7.87377 21.1081 7.54448 20.9403C7.17014 20.7496 6.68009 20.7496 5.7 20.7496H4.3C3.31991 20.7496 2.82986 20.7496 2.45552 20.9403C2.12623 21.1081 1.85852 21.3758 1.69074 21.7051C1.5 22.0794 1.5 22.5695 1.5 23.5496ZM28.0849 4.28602C27.0405 2.10052 24.6325 0.942696 22.2908 2.06022C19.949 3.17775 18.9513 5.82799 19.9318 8.15452C20.5377 9.59238 22.2738 12.3846 23.5117 14.3079C23.969 15.0185 24.1977 15.3738 24.5317 15.5817C24.8182 15.76 25.1769 15.8561 25.5142 15.8449C25.9074 15.8319 26.2831 15.6386 27.0345 15.2518C29.0682 14.2051 31.9677 12.655 33.2114 11.7128C35.2238 10.1882 35.7223 7.38583 34.2157 5.25549C32.7091 3.12515 30.0821 2.91553 28.0849 4.28602Z" stroke="white" stroke-width="3" stroke-linecap="round" stroke-linejoin="round"/>
</svg>
