<svg width="100" height="100" viewBox="0 0 100 100" fill="none" xmlns="http://www.w3.org/2000/svg">
<g clip-path="url(#clip0_3_13681)">
<path d="M45.7031 6.5625C45.4492 6.5625 45.1953 6.46484 45.0195 6.26953C44.9805 6.23047 44.9414 6.17187 44.9023 6.11328C44.8633 6.05469 44.8437 5.99609 44.8047 5.9375C44.7852 5.87891 44.7656 5.82031 44.7461 5.76172C44.7266 5.70313 44.7266 5.64453 44.7266 5.56641C44.7266 5.50781 44.7266 5.44922 44.7461 5.37109C44.7656 5.3125 44.7852 5.25391 44.8047 5.19531C44.8242 5.13672 44.8633 5.07813 44.9023 5.01953C44.9414 4.96094 44.9805 4.92188 45.0195 4.86328C45.1953 4.6875 45.4492 4.57031 45.7031 4.57031C45.957 4.57031 46.2109 4.66797 46.3867 4.86328C46.5625 5.03906 46.6797 5.29297 46.6797 5.54688C46.6797 5.60547 46.6797 5.68359 46.6602 5.74219C46.6406 5.80078 46.6211 5.85937 46.6016 5.91797C46.582 5.97656 46.543 6.03516 46.5039 6.09375C46.4648 6.15234 46.4258 6.19141 46.3867 6.25C46.2109 6.46484 45.957 6.5625 45.7031 6.5625ZM30.625 19.1992C30.1172 19.0234 29.8437 18.457 30.0195 17.9492C30.1953 17.4414 30.7617 17.168 31.2695 17.3438C31.7773 17.5195 32.0508 18.0859 31.875 18.5937C31.7383 19.0039 31.3672 19.2578 30.957 19.2578C30.8398 19.2578 30.7227 19.2383 30.625 19.1992ZM31.6406 16.4648C31.1719 16.2109 30.9766 15.625 31.2305 15.1367C31.4844 14.668 32.0703 14.4727 32.5586 14.7266C33.0273 14.9805 33.2227 15.5664 32.9687 16.0547C32.793 16.3867 32.4609 16.582 32.1094 16.582C31.9531 16.582 31.7969 16.543 31.6406 16.4648ZM33.0664 13.9258C32.6367 13.6133 32.5391 12.9883 32.8516 12.5586C33.1641 12.1289 33.7891 12.0313 34.2187 12.3633C34.6484 12.6758 34.7461 13.3008 34.4336 13.7305C34.2383 13.9844 33.9453 14.1211 33.6523 14.1211C33.457 14.1211 33.2422 14.0625 33.0664 13.9258ZM34.8633 11.6211C34.4727 11.2305 34.4727 10.625 34.8633 10.2344C35.2344 9.84375 35.8594 9.84375 36.25 10.2344C36.6211 10.625 36.6211 11.2305 36.25 11.6211C36.0547 11.8164 35.8008 11.9141 35.5664 11.9141C35.293 11.9141 35.0391 11.8164 34.8633 11.6211ZM36.9727 9.60938C36.6602 9.17969 36.7383 8.57422 37.1875 8.24219C37.6172 7.92969 38.2422 8.00781 38.5547 8.45703C38.8672 8.88672 38.7891 9.49219 38.3398 9.82422C38.1641 9.96094 37.9687 10.0195 37.7539 10.0195C37.4609 10.0195 37.168 9.88281 36.9727 9.60938ZM39.3555 7.94922C39.1016 7.46094 39.2773 6.875 39.7656 6.62109C40.2344 6.36719 40.8398 6.5625 41.0937 7.03125C41.3477 7.5 41.1719 8.10547 40.6836 8.35938C40.5273 8.4375 40.3906 8.47656 40.2344 8.47656C39.8633 8.47656 39.5312 8.28125 39.3555 7.94922ZM41.9727 6.66016C41.7969 6.15234 42.0703 5.58594 42.5781 5.41016C43.0859 5.23438 43.6523 5.50781 43.8281 6.01562C44.0039 6.52344 43.7305 7.08984 43.2227 7.26563C43.125 7.30469 43.0078 7.32422 42.9102 7.32422C42.4805 7.30469 42.1094 7.05078 41.9727 6.66016ZM30.1953 22.0703C29.9414 22.0703 29.6875 21.9727 29.5117 21.7773C29.4727 21.7383 29.4336 21.6797 29.3945 21.6211C29.3555 21.5625 29.3359 21.5039 29.2969 21.4453C29.2773 21.3867 29.2578 21.3281 29.2383 21.2695C29.2187 21.2109 29.2188 21.1328 29.2188 21.0742C29.2188 21.0156 29.2187 20.9375 29.2383 20.8789C29.2578 20.8203 29.2773 20.7617 29.2969 20.7031C29.3164 20.6445 29.3555 20.5859 29.3945 20.5273C29.4336 20.4687 29.4727 20.4297 29.5117 20.3711C29.7461 20.1367 30.0781 20.0391 30.3906 20.0977C30.4492 20.1172 30.5078 20.1367 30.5664 20.1562C30.625 20.1758 30.6836 20.2148 30.7422 20.2539C30.8008 20.293 30.8398 20.332 30.8984 20.3711C30.957 20.4102 30.9766 20.4687 31.0156 20.5273C31.0547 20.5859 31.0742 20.6445 31.1133 20.7031C31.1328 20.7617 31.1523 20.8203 31.1719 20.8789C31.1914 20.9375 31.1914 21.0156 31.1914 21.0742C31.1914 21.1328 31.1914 21.2109 31.1719 21.2695C31.1523 21.3281 31.1328 21.3867 31.1133 21.4453C31.0937 21.5039 31.0547 21.5625 31.0156 21.6211C30.9766 21.6797 30.9375 21.7188 30.8984 21.7773C30.8594 21.8359 30.8008 21.8555 30.7422 21.8945C30.6836 21.9336 30.625 21.9531 30.5664 21.9922C30.5078 22.0117 30.4492 22.0312 30.3906 22.0508C30.332 22.0703 30.2734 22.0703 30.1953 22.0703ZM68.2422 22.0703C68.1836 22.0703 68.1055 22.0703 68.0469 22.0508C67.9883 22.0312 67.9297 22.0117 67.8711 21.9922C67.8125 21.9727 67.7539 21.9336 67.6953 21.8945C67.6367 21.8555 67.5976 21.8164 67.5391 21.7773C67.3633 21.6016 67.2461 21.3477 67.2461 21.0938C67.2461 21.0352 67.2461 20.957 67.2656 20.8984C67.2852 20.8398 67.3047 20.7812 67.3242 20.7227C67.3438 20.6641 67.3828 20.6055 67.4219 20.5469C67.4609 20.4883 67.5 20.4492 67.5391 20.3906C67.5781 20.3516 67.6367 20.3125 67.6953 20.2734C67.7539 20.2344 67.8125 20.2148 67.8711 20.1758C67.9297 20.1562 67.9883 20.1367 68.0469 20.1172C68.1641 20.0977 68.3008 20.0977 68.4375 20.1172C68.4961 20.1367 68.5547 20.1562 68.6133 20.1758C68.6719 20.1953 68.7305 20.2344 68.7891 20.2734C68.8477 20.3125 68.8867 20.3516 68.9453 20.3906C69.0039 20.4297 69.0234 20.4883 69.0625 20.5469C69.1016 20.6055 69.1211 20.6641 69.1602 20.7227C69.1797 20.7812 69.1992 20.8398 69.2187 20.8984C69.2383 20.957 69.2383 21.0352 69.2383 21.0938C69.2383 21.3477 69.1406 21.6016 68.9453 21.7773C68.9062 21.8164 68.8477 21.8555 68.7891 21.8945C68.7305 21.9336 68.6719 21.9531 68.6133 21.9922C68.5547 22.0117 68.4961 22.0312 68.4375 22.0508C68.3594 22.0703 68.3008 22.0703 68.2422 22.0703ZM66.582 18.5937C66.4062 18.0859 66.6797 17.5391 67.1875 17.3438C67.6953 17.168 68.2617 17.4414 68.4375 17.9492C68.6133 18.457 68.3398 19.0234 67.832 19.1992C67.7344 19.2383 67.6172 19.2578 67.5195 19.2578C67.0898 19.2578 66.7187 19.0039 66.582 18.5937ZM65.4688 16.0742C65.2148 15.6055 65.3906 15 65.8789 14.7461C66.3476 14.4922 66.9531 14.6875 67.207 15.1562C67.4609 15.625 67.2852 16.2305 66.7969 16.4844C66.6602 16.5625 66.5039 16.6016 66.3477 16.6016C65.9961 16.582 65.6445 16.3867 65.4688 16.0742ZM64.0039 13.7305C63.6914 13.3008 63.7695 12.6953 64.2187 12.3633C64.6484 12.0508 65.2734 12.1289 65.5859 12.5781C65.8984 13.0078 65.8203 13.6133 65.3711 13.9453C65.1953 14.082 65 14.1406 64.7852 14.1406C64.4922 14.1211 64.1992 13.9844 64.0039 13.7305ZM62.207 11.6211C61.8164 11.2305 61.8164 10.625 62.207 10.2344C62.5977 9.84375 63.2031 9.84375 63.5937 10.2344C63.9844 10.625 63.9844 11.2305 63.5937 11.6211C63.3984 11.8164 63.1445 11.9141 62.9102 11.9141C62.6367 11.9141 62.4023 11.8164 62.207 11.6211ZM60.1172 9.82422C59.6875 9.51172 59.5898 8.88672 59.9023 8.45703C60.2148 8.02734 60.8398 7.92969 61.2695 8.26172C61.6992 8.57422 61.7969 9.19922 61.4844 9.62891C61.2891 9.88281 60.9961 10.0195 60.7031 10.0195C60.4883 10.0195 60.2734 9.96094 60.1172 9.82422ZM57.7734 8.35938C57.3047 8.10547 57.1094 7.51953 57.3633 7.03125C57.6172 6.5625 58.2031 6.36719 58.6914 6.62109C59.1602 6.875 59.3555 7.46094 59.1016 7.94922C58.9258 8.28125 58.5937 8.47656 58.2422 8.47656C58.0664 8.47656 57.9102 8.4375 57.7734 8.35938ZM55.2344 7.26563C54.7266 7.08984 54.4531 6.52344 54.6289 6.01562C54.8047 5.50781 55.3711 5.23438 55.8789 5.41016C56.3867 5.58594 56.6602 6.15234 56.4844 6.66016C56.3477 7.07031 55.9766 7.32422 55.5664 7.32422C55.4492 7.30469 55.332 7.28516 55.2344 7.26563ZM52.7344 6.5625C52.6758 6.5625 52.6172 6.5625 52.5391 6.54297C52.4805 6.52344 52.4219 6.50391 52.3633 6.48438C52.3047 6.46484 52.2461 6.42578 52.1875 6.38672C52.1289 6.34766 52.0898 6.30859 52.0312 6.26953C51.8555 6.09375 51.7383 5.83984 51.7383 5.58594C51.7383 5.52734 51.7383 5.46875 51.7578 5.39063C51.7773 5.33203 51.7969 5.27344 51.8164 5.21484C51.8359 5.15625 51.875 5.09766 51.9141 5.03906C51.9531 4.98047 51.9922 4.94141 52.0312 4.88281C52.0703 4.84375 52.1289 4.80469 52.1875 4.76562C52.2461 4.72656 52.3047 4.70703 52.3633 4.66797C52.4219 4.64844 52.4805 4.62891 52.5391 4.60938C52.8516 4.55078 53.2031 4.64844 53.418 4.88281C53.457 4.92188 53.4961 4.98047 53.5352 5.03906C53.5742 5.09766 53.5937 5.15625 53.6328 5.21484C53.6523 5.27344 53.6719 5.33203 53.6914 5.39063C53.7109 5.44922 53.7109 5.50781 53.7109 5.58594C53.7109 5.83984 53.6133 6.09375 53.418 6.26953C53.2422 6.46484 52.9883 6.5625 52.7344 6.5625ZM72.0703 83.5938C71.8164 83.5938 71.543 83.5938 71.2891 83.5742C70.7422 83.5547 70.332 83.1055 70.3516 82.5586C70.3711 82.0117 70.8203 81.582 71.3672 81.6211C71.9922 81.6406 72.6172 81.6406 73.2422 81.6016C73.7891 81.582 74.2383 81.9922 74.2773 82.5195C74.3164 83.0469 73.8867 83.5156 73.3594 83.5547C72.9102 83.5742 72.4805 83.5938 72.0703 83.5938ZM67.4414 83.125C67.3828 83.125 67.3047 83.125 67.2461 83.1055C66.582 82.9688 65.918 82.793 65.2734 82.6172C64.7656 82.4609 64.4531 81.9141 64.6094 81.4062C64.7656 80.8984 65.3125 80.6055 65.8203 80.7422C66.4062 80.918 67.0312 81.0742 67.6367 81.1914C68.1641 81.3086 68.4961 81.8164 68.3984 82.3438C68.3008 82.8125 67.8906 83.125 67.4414 83.125ZM61.9141 81.2305C61.7773 81.2305 61.6211 81.1914 61.4844 81.1328C60.8789 80.8398 60.2734 80.5078 59.707 80.1562C59.2383 79.8828 59.1016 79.2773 59.375 78.8086C59.6484 78.3398 60.2539 78.2031 60.7227 78.4766C61.25 78.7891 61.7969 79.1016 62.3633 79.375C62.8516 79.6094 63.0469 80.1953 62.8125 80.6836C62.6172 81.0156 62.2852 81.2305 61.9141 81.2305ZM57.0703 77.9688C56.8359 77.9688 56.6211 77.8906 56.4258 77.7344C55.918 77.2852 55.4102 76.8164 54.9414 76.3281C54.5703 75.9375 54.5703 75.332 54.9609 74.9414C55.3516 74.5703 55.957 74.5703 56.3477 74.9609C56.7773 75.4102 57.2266 75.8398 57.6953 76.25C58.1055 76.6016 58.1445 77.2266 57.793 77.6367C57.6172 77.8711 57.3437 77.9688 57.0703 77.9688ZM53.1836 73.6133C52.8711 73.6133 52.5586 73.457 52.3828 73.1836C51.9922 72.6172 51.6406 72.0508 51.3086 71.4453C51.0352 70.9766 51.2109 70.3711 51.6797 70.1172C52.1484 69.8438 52.7539 70.0195 53.0078 70.4883C53.3203 71.0352 53.6523 71.5625 54.0039 72.0703C54.3164 72.5195 54.1992 73.125 53.75 73.418C53.5742 73.5547 53.3789 73.6133 53.1836 73.6133ZM50.5273 68.3984C50.1172 68.3984 49.7461 68.1445 49.6094 67.7539C49.375 67.1094 49.1797 66.4648 49.0039 65.8008C48.8672 65.2734 49.1797 64.7461 49.707 64.6094C50.2344 64.4727 50.7617 64.7852 50.8984 65.3125C51.0547 65.918 51.25 66.5039 51.4453 67.0898C51.6211 67.5977 51.3672 68.1641 50.8594 68.3398C50.7617 68.3789 50.6445 68.3984 50.5273 68.3984ZM49.2969 62.6953C48.7891 62.6953 48.3594 62.3047 48.3203 61.7969C48.2617 61.1328 48.2422 60.4492 48.2422 59.7656C48.2422 59.2188 48.6719 58.7891 49.2187 58.7891C49.7656 58.7891 50.1953 59.2188 50.1953 59.7656C50.1953 60.3906 50.2148 61.0156 50.2734 61.6406C50.3125 62.1875 49.9219 62.6562 49.375 62.6953C49.3555 62.6953 49.3359 62.6953 49.2969 62.6953Z" fill="#2CDD91"/>
<path d="M26.3671 83.5938C25.9569 83.5938 25.5272 83.5742 25.1171 83.5547C24.5702 83.5352 24.16 83.0664 24.1991 82.5195C24.2186 81.9727 24.6874 81.5625 25.2343 81.6016C25.8593 81.6406 26.4843 81.6406 27.1093 81.6211C27.6561 81.6016 28.1054 82.0313 28.1249 82.5586C28.1444 83.0859 27.7147 83.5547 27.1874 83.5742C26.8944 83.5937 26.621 83.5938 26.3671 83.5938ZM30.996 83.125C30.5468 83.125 30.1366 82.8125 30.039 82.3438C29.9218 81.8164 30.2733 81.3086 30.8007 81.1914C31.4061 81.0742 32.0116 80.918 32.6171 80.7422C33.1249 80.5859 33.6718 80.8789 33.828 81.4062C33.9843 81.9141 33.6913 82.4609 33.164 82.6172C32.5194 82.8125 31.8554 82.9688 31.1913 83.1055C31.1327 83.125 31.0546 83.125 30.996 83.125ZM36.5233 81.2305C36.1718 81.2305 35.8202 81.0352 35.6444 80.6836C35.41 80.1953 35.6054 79.6094 36.0936 79.375C36.6405 79.1016 37.2069 78.7891 37.7343 78.4766C38.203 78.2031 38.789 78.3398 39.0819 78.8086C39.3554 79.2773 39.2186 79.8633 38.7499 80.1562C38.1639 80.5078 37.578 80.8398 36.9725 81.1328C36.8163 81.1914 36.66 81.2305 36.5233 81.2305ZM41.3671 77.9688C41.0936 77.9688 40.8202 77.8516 40.6249 77.6367C40.2733 77.2266 40.3124 76.6211 40.7225 76.25C41.1913 75.8398 41.6405 75.4102 42.0702 74.9609C42.4413 74.5703 43.0663 74.5703 43.4569 74.9414C43.8475 75.3125 43.8475 75.9375 43.4765 76.3281C43.0077 76.8164 42.5194 77.2852 41.9921 77.7344C41.8358 77.8906 41.6014 77.9688 41.3671 77.9688ZM45.2538 73.6133C45.0585 73.6133 44.8632 73.5547 44.7069 73.4375C44.2577 73.125 44.1405 72.5195 44.453 72.0898C44.8046 71.582 45.1366 71.0352 45.4491 70.5078C45.7225 70.0391 46.3085 69.8633 46.7772 70.1367C47.246 70.4102 47.4218 70.9961 47.1483 71.4648C46.8163 72.0508 46.4452 72.6367 46.0741 73.2031C45.8788 73.457 45.5663 73.6133 45.2538 73.6133ZM47.91 68.3984C47.7929 68.3984 47.6952 68.3789 47.578 68.3398C47.0702 68.1641 46.7968 67.5977 46.9921 67.0898C47.2069 66.5039 47.3827 65.8984 47.5389 65.3125C47.6757 64.7852 48.203 64.4727 48.7304 64.6094C49.2577 64.7461 49.5702 65.2734 49.4335 65.8008C49.2577 66.4453 49.0624 67.1094 48.828 67.7539C48.6718 68.1445 48.3007 68.3984 47.91 68.3984ZM49.1405 62.6953C49.121 62.6953 49.0819 62.6953 49.0624 62.6953C48.5155 62.6562 48.1249 62.168 48.164 61.6406C48.2225 61.0156 48.2421 60.3906 48.2421 59.7656C48.2421 59.2188 48.6718 58.7891 49.2186 58.7891C49.7655 58.7891 50.1952 59.2188 50.1952 59.7656C50.1952 60.4492 50.1757 61.1328 50.1171 61.7969C50.0585 62.3047 49.6483 62.6953 49.1405 62.6953Z" fill="#2CDD91"/>
<path d="M49.2188 6.25C48.6719 6.25 48.2422 5.82031 48.2422 5.27344V1.75781C48.2422 1.21094 48.6719 0.78125 49.2188 0.78125C49.7656 0.78125 50.1953 1.21094 50.1953 1.75781V5.27344C50.1953 5.82031 49.7656 6.25 49.2188 6.25ZM13.6133 53.6133C9.35547 53.6133 5.89844 50.1562 5.89844 45.8984C5.89844 41.6406 9.35547 38.1836 13.6133 38.1836C17.8711 38.1836 21.3281 41.6406 21.3281 45.8984C21.3281 50.1562 17.8711 53.6133 13.6133 53.6133ZM13.6133 40.1367C10.4297 40.1367 7.85156 42.7148 7.85156 45.8984C7.85156 49.082 10.4297 51.6602 13.6133 51.6602C16.7969 51.6602 19.375 49.082 19.375 45.8984C19.375 42.7148 16.7969 40.1367 13.6133 40.1367Z" fill="#494949"/>
<path d="M27.8126 99.4142H22.8907C22.461 99.4142 22.0704 99.1212 21.9532 98.711L16.8556 80.7032L14.6095 98.5548C14.5509 99.0431 14.1407 99.4142 13.6329 99.4142H8.24228C7.96884 99.4142 7.71494 99.297 7.53916 99.1017C7.36338 98.9063 7.26572 98.6524 7.26572 98.379L8.59384 74.1993L7.91025 65.8985L6.77744 72.6368C6.54306 74.1017 5.27353 75.1563 3.80869 75.1563C2.94931 75.1563 2.10947 74.7853 1.54306 74.1407C0.976658 73.4962 0.70322 72.6368 0.820408 71.7774L2.91025 55.0782C3.14463 53.1446 4.9415 51.5626 6.89463 51.5626L19.0235 51.6603C20.9181 51.6603 22.7735 51.9728 24.5704 52.5587L29.4142 54.1798L34.4142 47.1681C34.9024 46.4845 35.6837 46.0353 36.5235 45.9767C37.3634 45.8985 38.2032 46.211 38.7892 46.8165C39.7657 47.7931 39.9024 49.3165 39.1407 50.4493L31.9142 61.2696C31.6602 61.6407 31.211 61.797 30.8009 61.6603L24.0235 59.3751V74.0821L28.7696 98.2423C28.8282 98.5353 28.7501 98.8282 28.5743 99.0431C28.3985 99.2579 28.1056 99.4142 27.8126 99.4142ZM23.6329 97.461H26.6212L22.0899 74.3751C22.0704 74.3165 22.0704 74.2579 22.0704 74.1798V58.0079C22.0704 57.6954 22.2267 57.4024 22.4806 57.2071C22.7345 57.0313 23.0665 56.9728 23.3595 57.0704L30.7423 59.5313L37.5392 49.336C37.7931 48.9649 37.7345 48.4767 37.422 48.1642C37.1485 47.8907 36.8556 47.8907 36.6798 47.8907C36.5235 47.9103 36.211 47.9688 35.9962 48.2813L30.5665 55.879C30.3126 56.2306 29.8634 56.3673 29.4727 56.2306L23.9454 54.3946C22.3438 53.8673 20.6837 53.5938 19.004 53.5938L6.87509 53.5157C5.89853 53.5157 4.96103 54.336 4.82431 55.3321L2.73447 72.0313C2.69541 72.3438 2.79306 72.6368 2.98838 72.8712C3.18369 73.1056 3.47666 73.2228 3.78916 73.2228C4.3165 73.2228 4.74619 72.8517 4.84384 72.3243L7.24619 57.8712C7.32431 57.3829 7.754 57.0314 8.24228 57.0509C8.73056 57.0704 9.14072 57.461 9.17978 57.9493L10.5274 74.1212C10.5274 74.1603 10.5274 74.2189 10.5274 74.2579L9.25791 97.461H12.754L15.5079 75.7032C15.5665 75.2345 15.9376 74.8829 16.4063 74.8439C16.8751 74.8048 17.2852 75.0978 17.422 75.547L23.6329 97.461Z" fill="#494949"/>
<path d="M86.582 53.6133C82.3242 53.6133 78.8672 50.1562 78.8672 45.8984C78.8672 41.6406 82.3242 38.1836 86.582 38.1836C90.8398 38.1836 94.2969 41.6406 94.2969 45.8984C94.2773 50.1562 90.8203 53.6133 86.582 53.6133ZM86.582 40.1367C83.3984 40.1367 80.8203 42.7148 80.8203 45.8984C80.8203 49.082 83.3984 51.6602 86.582 51.6602C89.7656 51.6602 92.3438 49.082 92.3438 45.8984C92.3438 42.7148 89.7461 40.1367 86.582 40.1367Z" fill="#494949"/>
<path d="M91.9532 99.4141H86.5625C86.0743 99.4141 85.6641 99.043 85.586 98.5547L83.3399 80.7031L78.2422 98.7109C78.125 99.1406 77.7344 99.4141 77.3047 99.4141H72.3828C72.0899 99.4141 71.8164 99.2773 71.6211 99.0625C71.4453 98.8281 71.3672 98.5352 71.4258 98.2617L76.1719 74.1016V59.375L69.375 61.6406C69.2383 61.6797 69.0821 61.6992 68.9258 61.6797L58.6914 60.2344C57.8516 60.1172 57.1094 59.668 56.6211 58.9844C56.1133 58.3008 55.918 57.4609 56.0742 56.6211C56.3672 54.9609 57.8907 53.8477 59.5508 54.082L69.2383 55.4102L75.5469 52.5977C75.586 52.5781 75.6055 52.5781 75.6446 52.5586C77.4414 51.9531 79.3164 51.6602 81.211 51.6602L93.3203 51.5625C95.2735 51.5625 97.0703 53.1445 97.3047 55.0781L99.3946 71.7773C99.4922 72.6367 99.2383 73.4961 98.6524 74.1406C98.086 74.7852 97.2461 75.1562 96.3867 75.1562C94.9024 75.1562 93.6524 74.1016 93.418 72.6367L92.2852 65.8984L91.6016 74.1992L92.9492 98.3789C92.9688 98.6523 92.8711 98.9062 92.6758 99.1016C92.4805 99.2969 92.2266 99.4141 91.9532 99.4141ZM87.4414 97.4609H90.9375L89.6485 74.2383C89.6485 74.1992 89.6485 74.1406 89.6485 74.1016L90.9961 57.9297C91.0352 57.4414 91.4453 57.0508 91.9336 57.0312C92.4219 57.0117 92.8516 57.3633 92.9297 57.8516L95.3321 72.3047C95.4102 72.8125 95.8594 73.2031 96.3867 73.2031C96.6992 73.2031 96.9727 73.0664 97.1875 72.8516C97.3828 72.6172 97.4805 72.3242 97.4414 72.0117L95.3516 55.3125C95.2344 54.3359 94.2969 53.4961 93.3008 53.4961L81.1914 53.5937C79.5118 53.5937 77.8711 53.8672 76.2891 54.375L69.7852 57.2852C69.6094 57.3633 69.4336 57.3828 69.2578 57.3633L59.2969 55.9961C58.6719 55.918 58.1055 56.3281 58.0078 56.9336C57.9492 57.2461 58.0274 57.5586 58.2032 57.8125C58.3789 58.0664 58.6719 58.2422 58.9844 58.2812L69.0039 59.6875L76.875 57.0703C77.168 56.9727 77.5 57.0117 77.7539 57.207C78.0078 57.3828 78.1641 57.6758 78.1641 58.0078V74.1797C78.1641 74.2383 78.1641 74.2969 78.1446 74.375L73.5743 97.4609H76.5625L82.7735 75.5469C82.8907 75.0977 83.3203 74.8047 83.7891 74.8438C84.2578 74.8828 84.6289 75.2344 84.6875 75.7031L87.4414 97.4609Z" fill="#494949"/>
<path d="M44.9023 54.2969C44.375 54.2969 43.9258 53.8672 43.9258 53.3398C43.9258 52.793 44.3555 52.3633 44.8828 52.3438L53.1055 52.2461C53.1055 52.2461 53.1055 52.2461 53.125 52.2461C53.6523 52.2461 54.1016 52.6758 54.1016 53.2031C54.1016 53.75 53.6719 54.1797 53.1445 54.1992L44.9023 54.2969Z" fill="#494949"/>
<path d="M45.6445 56.9336C45.1172 56.9336 44.668 56.5039 44.668 55.9766C44.668 55.4297 45.0977 55 45.625 54.9805L52.3438 54.9023C52.8906 54.9023 53.3203 55.332 53.3398 55.8594C53.3594 56.3867 52.9102 56.8359 52.3828 56.8555L45.6445 56.9336Z" fill="#494949"/>
<path d="M46.3086 59.5312C45.7813 59.5312 45.332 59.1016 45.332 58.5742C45.332 58.0273 45.7617 57.5977 46.2891 57.5781L51.6797 57.5195C52.2266 57.5195 52.6563 57.9492 52.6758 58.4766C52.6953 59.0039 52.2461 59.4531 51.7187 59.4727L46.3086 59.5312Z" fill="#494949"/>
<path d="M37.1875 35.4883C37.7148 36.0742 38.3008 36.6406 38.9062 37.1484C40.5469 39.4922 43.3789 43.9648 43.5352 47.3438C43.5352 47.3438 43.8867 50.3125 47.5977 50.3125H50.6641C54.375 50.3125 54.7266 47.3438 54.7266 47.3438C54.9023 43.75 58.0859 38.8867 59.668 36.6992C62.9102 33.7891 64.9414 29.5703 64.9414 24.8633C64.9414 16.0742 57.8125 8.94531 49.0234 8.94531C48.8672 8.94531 48.6914 8.94531 48.5352 8.94531C45.4688 9.04297 42.6172 10 40.2148 11.6016C38.0078 13.0664 36.1914 15.0781 34.9414 17.4414C33.7695 19.668 33.1055 22.1875 33.1055 24.8633C33.1055 28.9258 34.6484 32.6562 37.1875 35.4883Z" fill="#2CDD91"/>
<path d="M51.6602 47.0117H46.7773C46.25 47.0117 45.8203 46.582 45.8008 46.0547C45.6641 41.1719 44.9805 38.2617 44.0039 35.3906C43.1055 32.7148 41.9336 29.668 40.5664 26.3477C40.4492 26.0547 40.4688 25.7031 40.6641 25.4297C40.8398 25.1562 41.1523 25 41.4844 25C41.582 25 41.6797 25 41.7578 25.0195C41.7578 25.0195 41.7773 25.0195 41.7969 25.0195C42.9102 25.0195 43.3203 24.8633 43.457 24.7852C43.6328 24.6875 44.0234 24.4141 44.668 23.6328C44.8438 23.3984 45.1367 23.2812 45.4297 23.2812C45.7227 23.2812 45.9961 23.418 46.1914 23.6523C46.8359 24.4336 47.2266 24.707 47.4023 24.8047C47.5391 24.8828 47.9492 25.0391 49.0625 25.0391C50.1367 25.0391 50.5469 24.8828 50.6641 24.8242C50.8398 24.7266 51.2305 24.4727 51.8555 23.7109C52.0508 23.4766 52.3242 23.3594 52.6172 23.3594C52.9102 23.3594 53.1836 23.4961 53.3789 23.7305C54.0234 24.5508 54.4141 24.8438 54.5898 24.9414C54.7266 25.0195 55.1367 25.1758 56.2695 25.1758C56.2891 25.1758 56.2891 25.1758 56.3086 25.1758C56.3867 25.1758 56.4648 25.1563 56.5625 25.1563C56.8945 25.1563 57.1875 25.3125 57.3828 25.5859C57.5586 25.8594 57.5977 26.1914 57.4805 26.5039C56.1133 29.8047 54.9609 32.832 54.0625 35.4688C53.2031 37.9883 52.832 40.8398 52.6758 46.0547C52.6172 46.6016 52.1875 47.0117 51.6602 47.0117ZM47.7148 45.0586H50.7227C50.8984 40.2148 51.3086 37.4023 52.168 34.8437C52.9688 32.5195 53.9453 29.9023 55.0977 27.0703C54.4727 26.9922 53.9844 26.8555 53.6133 26.6406C53.2813 26.4453 52.9297 26.1719 52.5586 25.8008C52.207 26.1523 51.8555 26.3867 51.543 26.5625C50.9766 26.8555 50.1563 26.9922 49.043 26.9922C47.8906 26.9922 47.0508 26.8359 46.4648 26.5234C46.1328 26.3477 45.7813 26.0742 45.4297 25.7227C45.0586 26.0742 44.7266 26.3477 44.3945 26.5234C44.0234 26.7188 43.5352 26.8555 42.9492 26.9336C44.1016 29.7852 45.0977 32.4219 45.8984 34.7852C46.8164 37.6172 47.5 40.4883 47.7148 45.0586Z" fill="#494949"/>
<path d="M72.0703 25.5859H68.5547C68.0078 25.5859 67.5781 25.1562 67.5781 24.6094C67.5781 24.0625 68.0078 23.6328 68.5547 23.6328H72.0703C72.6172 23.6328 73.0469 24.0625 73.0469 24.6094C73.0469 25.1562 72.6172 25.5859 72.0703 25.5859Z" fill="#494949"/>
<path d="M29.8828 25.5859H26.3672C25.8203 25.5859 25.3906 25.1562 25.3906 24.6094C25.3906 24.0625 25.8203 23.6328 26.3672 23.6328H29.8828C30.4297 23.6328 30.8594 24.0625 30.8594 24.6094C30.8594 25.1562 30.4297 25.5859 29.8828 25.5859Z" fill="#494949"/>
</g>
<defs>
<clipPath id="clip0_3_13681">
<rect width="100" height="100" fill="white"/>
</clipPath>
</defs>
</svg>
