<svg width="101" height="100" viewBox="0 0 101 100" fill="none" xmlns="http://www.w3.org/2000/svg">
<path d="M48.6666 7.96264C48.1481 7.96264 47.7407 7.55523 47.7407 7.03671V1.75893C47.7407 1.24042 48.1481 0.833008 48.6666 0.833008C49.1852 0.833008 49.5926 1.24042 49.5926 1.75893V7.03671C49.5926 7.53671 49.1852 7.96264 48.6666 7.96264Z" fill="#2CDD91"/>
<path opacity="0.3" d="M58.2406 85.3152C58.2406 85.3152 41.2776 76.6671 41.1109 67.7967C40.9443 58.9263 37.5554 74.056 28.2776 61.7041L31.5739 71.9078L30.7776 81.63C30.7776 81.63 33.6665 95.4634 52.5183 98.7782L58.2406 85.3152Z" fill="#2CDD91"/>
<path d="M70.5555 35.4446H70.4629C69.9259 35.389 69.537 34.9261 69.574 34.389C69.6296 33.7779 69.6481 33.1483 69.6481 32.5187V32.1113C69.6296 31.5742 70.074 31.1298 70.6111 31.1113C71.1481 31.1113 71.5926 31.5372 71.6111 32.0742V32.5187C71.6111 33.2038 71.574 33.889 71.5185 34.5557C71.4814 35.0557 71.0555 35.4446 70.5555 35.4446ZM26.7592 35.1853C26.2592 35.1853 25.8333 34.7964 25.7777 34.2779C25.7407 33.7038 25.7037 33.1113 25.7037 32.5187V32.2409C25.7037 31.7038 26.1481 31.2594 26.6851 31.2779C27.2222 31.2779 27.6481 31.7224 27.6481 32.2594V32.5187C27.6481 33.0557 27.6666 33.5927 27.7037 34.1298C27.7407 34.6668 27.3333 35.1298 26.7963 35.1853C26.8148 35.1668 26.7963 35.1853 26.7592 35.1853ZM27.0926 29.352C27.037 29.352 26.9629 29.352 26.9074 29.3335C26.3703 29.2409 26.037 28.7224 26.1296 28.1853C26.2592 27.5187 26.4074 26.852 26.6111 26.2038C26.7592 25.6853 27.2963 25.389 27.8148 25.5372C28.3333 25.6853 28.6296 26.2224 28.4814 26.7409C28.3148 27.3335 28.1666 27.9446 28.0555 28.5557C27.9629 29.0187 27.5555 29.352 27.0926 29.352ZM70.2222 29.1853C69.7592 29.1853 69.3518 28.8705 69.2592 28.4076C69.1481 27.7964 68.9814 27.1853 68.8148 26.5927C68.6666 26.0742 68.9629 25.5372 69.4814 25.389C70 25.2409 70.537 25.5372 70.6851 26.0557C70.8703 26.7038 71.037 27.3705 71.1666 28.0372C71.2777 28.5742 70.9259 29.0742 70.4074 29.1853H70.2222ZM28.9444 23.815C28.7963 23.815 28.6481 23.7779 28.5185 23.7224C28.037 23.4816 27.8333 22.9076 28.074 22.4076C28.3703 21.7964 28.7037 21.2038 29.0555 20.6113C29.3333 20.1483 29.9444 20.0001 30.3889 20.2779C30.8518 20.5557 31 21.1668 30.7222 21.6113C30.4074 22.1483 30.0926 22.6853 29.8333 23.2409C29.6481 23.6113 29.3148 23.815 28.9444 23.815ZM68.3333 23.6668C67.9814 23.6668 67.6296 23.4631 67.4629 23.1298C67.1852 22.5742 66.8703 22.0187 66.5555 21.5001C66.2777 21.0372 66.4074 20.4446 66.8703 20.1483C67.3333 19.8705 67.9259 20.0001 68.2222 20.4631C68.574 21.0372 68.9074 21.6298 69.2222 22.2409C69.4629 22.7224 69.2777 23.315 68.7777 23.5557C68.6296 23.6298 68.4814 23.6668 68.3333 23.6668ZM32.2037 18.9631C31.9814 18.9631 31.7407 18.889 31.5555 18.7224C31.1481 18.3705 31.1111 17.7409 31.4629 17.352C31.9074 16.852 32.3889 16.352 32.8703 15.889C33.2592 15.5187 33.8889 15.5372 34.2592 15.9261C34.6296 16.315 34.6111 16.9446 34.2222 17.315C33.7777 17.7409 33.3333 18.1853 32.9259 18.6483C32.7407 18.852 32.4629 18.9631 32.2037 18.9631ZM65.037 18.8335C64.7777 18.8335 64.5 18.7224 64.3148 18.5001C63.9074 18.0372 63.4629 17.5927 63.0185 17.1668C62.6296 16.7964 62.6111 16.1853 62.9814 15.7779C63.3518 15.389 63.9629 15.3705 64.3703 15.7409C64.8703 16.2038 65.3518 16.6853 65.7963 17.2038C66.1481 17.6113 66.1296 18.2224 65.7222 18.5742C65.5185 18.7594 65.2777 18.8335 65.037 18.8335ZM36.6111 15.1298C36.2963 15.1298 35.9814 14.9816 35.7963 14.6853C35.5 14.2409 35.6296 13.6298 36.074 13.3335C36.6481 12.9631 37.2222 12.6113 37.8333 12.2964C38.3148 12.0372 38.9074 12.2224 39.1481 12.7038C39.4074 13.1853 39.2222 13.7779 38.7592 14.0187C38.2222 14.315 37.6666 14.6298 37.1666 14.9816C36.9814 15.0742 36.7963 15.1298 36.6111 15.1298ZM60.6111 15.0372C60.4259 15.0372 60.2407 14.9816 60.074 14.889C59.5555 14.5557 59.0185 14.2409 58.4629 13.9446C57.9814 13.6853 57.7963 13.0927 58.0555 12.6298C58.3148 12.1483 58.9074 11.9631 59.3703 12.2224C59.9629 12.5372 60.5555 12.889 61.1296 13.2594C61.574 13.5557 61.7037 14.1483 61.4259 14.6113C61.2407 14.889 60.9259 15.0372 60.6111 15.0372ZM41.8703 12.5927C41.4629 12.5927 41.074 12.3335 40.9444 11.9261C40.7777 11.4076 41.0555 10.8705 41.574 10.7038C42.2222 10.5001 42.8703 10.315 43.537 10.1668C44.0555 10.0372 44.5926 10.3705 44.7037 10.9076C44.8148 11.4261 44.5 11.9631 43.9629 12.0742C43.3518 12.2038 42.7592 12.3705 42.1666 12.5742C42.074 12.5742 41.9814 12.5927 41.8703 12.5927ZM55.3148 12.5557C55.2222 12.5557 55.1111 12.5372 55.0185 12.5187C54.4259 12.3335 53.8148 12.1668 53.2222 12.0372C52.7037 11.9261 52.3703 11.4076 52.4814 10.8705C52.5926 10.352 53.1111 10.0187 53.6481 10.1298C54.3148 10.2779 54.9814 10.4631 55.6111 10.6668C56.1296 10.8335 56.4074 11.3705 56.2407 11.889C56.1296 12.2779 55.7407 12.5557 55.3148 12.5557ZM47.6111 11.5557C47.0926 11.5557 46.6666 11.1483 46.6296 10.6298C46.6111 10.0927 47.0185 9.62977 47.5555 9.61126C48.2222 9.57422 48.9259 9.57422 49.5926 9.61126C50.1296 9.62977 50.5555 10.0927 50.537 10.6298C50.5185 11.1668 50.0555 11.5742 49.5185 11.5742C48.9074 11.5557 48.2592 11.5557 47.6481 11.5742C47.6481 11.5557 47.6296 11.5557 47.6111 11.5557ZM66.074 15.1668C65.8333 15.1668 65.5926 15.0742 65.4259 14.889C65.0555 14.5187 65.0555 13.9446 65.4259 13.5742L69.1481 9.852C69.5185 9.48163 70.0926 9.48163 70.4629 9.852C70.8333 10.2224 70.8333 10.7964 70.4629 11.1668L66.7407 14.889C66.5555 15.0742 66.3148 15.1668 66.074 15.1668ZM79.4259 32.5742H74.1481C73.6296 32.5742 73.2222 32.1668 73.2222 31.6483C73.2222 31.1298 73.6296 30.7224 74.1481 30.7224H79.4259C79.9444 30.7224 80.3518 31.1298 80.3518 31.6483C80.3518 32.1668 79.9444 32.5742 79.4259 32.5742ZM23.1851 32.5742H17.9074C17.3889 32.5742 16.9814 32.1668 16.9814 31.6483C16.9814 31.1298 17.3889 30.7224 17.9074 30.7224H23.1851C23.7037 30.7224 24.1111 31.1298 24.1111 31.6483C24.1111 32.1668 23.7037 32.5742 23.1851 32.5742ZM31.2777 15.1668C31.037 15.1668 30.7963 15.0742 30.6296 14.889L26.9074 11.1668C26.537 10.7964 26.537 10.2224 26.9074 9.852C27.2777 9.48163 27.8518 9.48163 28.2222 9.852L31.9444 13.5742C32.3148 13.9446 32.3148 14.5187 31.9444 14.889C31.7407 15.0742 31.5 15.1668 31.2777 15.1668ZM46.6481 54.0001C46.1296 54.0001 45.7222 53.5927 45.7222 53.0742V31.6668H44.6111C43.4259 31.6668 41.6481 30.8705 41.6481 28.7038C41.6481 26.5372 43.4074 25.7409 44.6111 25.7409C45.7963 25.7409 47.574 26.5372 47.574 28.7038V29.815H49.7777V28.7038C49.7777 27.5187 50.574 25.7409 52.7407 25.7409C54.9074 25.7409 55.7037 27.5001 55.7037 28.7038C55.7037 29.889 54.9074 31.6668 52.7407 31.6668H51.6296V53.0742C51.6296 53.5927 51.2222 54.0001 50.7037 54.0001C50.1852 54.0001 49.7777 53.5927 49.7777 53.0742V31.6668H47.574V53.0742C47.574 53.5927 47.1481 54.0001 46.6481 54.0001ZM44.6111 27.6113C44.2037 27.6298 43.5 27.7779 43.5 28.7224C43.5 29.6668 44.2037 29.815 44.6111 29.8335H45.7037V28.7224C45.7222 27.6853 44.8703 27.6113 44.6111 27.6113ZM52.7407 27.6113C51.7222 27.6113 51.6296 28.4631 51.6296 28.7224V29.8335H52.7407C53.6666 29.8335 53.8333 29.1483 53.8518 28.7224C53.8333 28.2964 53.6666 27.6113 52.7407 27.6113Z" fill="#2CDD91"/>
<path d="M78.3333 59.6295C78.2222 59.4813 78.1111 59.3332 78.074 59.2776C77.9814 59.148 77.7592 58.5739 77.574 58.111C76.7777 56.0739 75.9629 54.185 74.9444 53.2776C74.2963 52.685 74.2407 51.5739 74.2777 50.9443C76.6296 48.4999 75.8703 45.2406 75.037 43.648C74.9629 39.8332 74.4814 36.6295 73.574 34.148C73.4444 33.7776 73.0926 33.5369 72.7037 33.5369H64.4444C64.6666 32.4999 64.7963 31.4258 64.7963 30.3517C64.7963 21.8517 57.5555 14.9258 48.6666 14.9258C39.7777 14.9258 32.537 21.8517 32.537 30.3517C32.537 31.4258 32.6481 32.4999 32.8889 33.5369H23.2407C22.8703 33.5369 22.537 33.7591 22.3889 34.0924C21.1296 37.0554 20.4814 40.2036 20.4814 43.4628C20.4814 49.3147 22.6111 54.9443 26.5 59.3332C28.074 64.3332 29.6111 68.9628 29.9259 69.9258L29.0926 80.1665C29.0926 80.2591 29.0926 80.3702 29.1111 80.4628C30.7963 87.0924 35.5 92.4999 42.7407 96.0924C48.1481 98.7776 53 99.4999 53.2037 99.5369C53.2407 99.5369 53.2963 99.5554 53.3333 99.5554C53.7037 99.5554 54.037 99.3332 54.1851 98.9998L59.9629 85.3887L65.537 87.5924C65.6481 87.6295 65.7592 87.648 65.8703 87.6665H66.0185C70.1111 87.6665 72.6852 86.648 73.6666 84.6665C74.9814 82.0184 72.9074 78.648 72.1852 77.611L72.3148 76.2776C73.4815 75.3517 73.7037 73.7036 73.7222 72.7591C76.0926 71.4443 75.8703 67.8332 75.6851 66.4258C76.1851 66.0739 77.1666 65.4999 78.5185 65.2591C79.4629 65.0924 79.8703 64.5554 80.037 64.1295C80.5555 62.7961 79.4259 61.111 78.3333 59.6295ZM48.6666 16.7406C56.537 16.7406 62.9444 22.8332 62.9444 30.3147C62.9444 34.148 61.2222 37.8147 58.2407 40.3887C58.1852 40.4258 58.1481 40.4813 58.1111 40.5369C56.3703 42.8517 53.4259 47.2591 53.2222 50.7036C53.1852 50.9258 52.8148 52.5739 50.2592 52.5739H47.3333C44.8148 52.5739 44.4259 50.9628 44.3703 50.7036C44.1852 47.5554 41.7592 43.6665 39.7592 40.9628C39.7037 40.8887 39.6481 40.8332 39.5926 40.7776C36.2963 38.185 34.4074 34.3702 34.4074 30.2962C34.4074 22.8332 40.7963 16.7406 48.6666 16.7406ZM78.1851 63.3887C75.6111 63.8517 74.1111 65.2591 74.0555 65.3147C73.8148 65.5369 73.7222 65.8517 73.7777 66.1665C73.7777 66.2036 74.574 70.5924 72.5185 71.2221C72.0926 71.3517 71.8333 71.7591 71.8703 72.2036C71.9074 72.648 71.9074 74.4258 71.0185 74.8887C70.7407 75.0369 70.5555 75.3147 70.5185 75.611L70.3148 77.7221C70.2963 77.9628 70.3518 78.185 70.5 78.3702C71.2037 79.2962 72.8518 82.0739 72 83.7962C71.3518 85.0924 69.2963 85.7591 66.0555 85.7776L59.8148 83.3147C59.3518 83.1295 58.8148 83.3517 58.6296 83.8147L52.7963 97.5739C51.2963 97.2776 47.537 96.3887 43.537 94.4073C36.7963 91.0369 32.5555 86.2406 30.9629 80.148L31.7963 69.8702C31.8148 69.7406 31.7963 69.6295 31.7592 69.4999C31.7407 69.4443 30.0185 64.2036 28.2222 58.5554C28.1852 58.4258 28.1111 58.3147 28.0185 58.2221C24.369 54.1653 22.3504 48.9011 22.3518 43.4443C22.3518 40.648 22.8703 37.9443 23.8703 35.3702H33.4259C34.3703 37.9999 36.0555 40.3517 38.3333 42.185C40.8889 45.6665 42.4074 48.8147 42.5 50.8702V50.9443C42.6481 52.1665 43.8518 54.4628 47.2963 54.4628H50.2222C53.6666 54.4628 54.8703 52.1665 55.0185 50.9443V50.8702C55.1851 47.8517 58.1481 43.5369 59.4814 41.7406C61.5 39.9813 63 37.7776 63.8703 35.3702H72.0185C72.7407 37.6295 73.1296 40.4813 73.1666 43.8887C73.1666 44.0554 73.2037 44.2036 73.2963 44.3332C73.3703 44.4628 75.1296 47.611 72.7592 49.8147C72.6111 49.9443 72.5185 50.1295 72.4814 50.3147C72.4629 50.4258 71.9814 53.0924 73.6852 54.6295C74.4629 55.3147 75.3148 57.4813 75.8333 58.7776C76.1481 59.5739 76.3148 59.9999 76.4815 60.2591C76.5555 60.3702 76.6666 60.5184 76.8148 60.7221C78.074 62.4443 78.2963 63.111 78.2777 63.3517C78.2963 63.3702 78.2592 63.3702 78.1851 63.3887Z" fill="#494949"/>
<path d="M52.8703 54.7411L45.037 54.7041C44.5185 54.7041 44.1111 55.1115 44.1111 55.63C44.1111 56.1485 44.5185 56.556 45.037 56.556L52.8703 56.593C53.3889 56.593 53.7963 56.1856 53.7963 55.6671C53.7963 55.1671 53.3889 54.7411 52.8703 54.7411ZM52.2407 57.1115H45.6481C45.1296 57.1115 44.7222 57.5189 44.7222 58.0374C44.7222 58.556 45.1296 58.9634 45.6481 58.9634H52.2407C52.7592 58.9634 53.1666 58.556 53.1666 58.0374C53.1666 57.5189 52.7592 57.1115 52.2407 57.1115ZM51.1296 59.5745H46.2222C45.7037 59.5745 45.2963 59.9819 45.2963 60.5004C45.2963 61.0189 45.7037 61.4263 46.2222 61.4263H51.1296C51.6481 61.4263 52.0555 61.0189 52.0555 60.5004C52.0555 59.9819 51.6296 59.5745 51.1296 59.5745Z" fill="#494949"/>
</svg>
