<svg width="38" height="38" viewBox="0 0 38 38" fill="none" xmlns="http://www.w3.org/2000/svg">
<path d="M19 24.2504L13.75 19.0004M19 24.2504C21.4445 23.3207 23.7896 22.1482 26 20.7504M19 24.2504V33.0004C19 33.0004 24.3025 32.0379 26 29.5004C27.89 26.6654 26 20.7504 26 20.7504M13.75 19.0004C14.6813 16.5844 15.8539 14.2685 17.25 12.0879C19.2891 8.82766 22.1283 6.14327 25.4978 4.29009C28.8672 2.43692 32.6547 1.47658 36.5 1.50043C36.5 6.26043 35.135 14.6254 26 20.7504M13.75 19.0004H5C5 19.0004 5.9625 13.6979 8.5 12.0004C11.335 10.1104 17.25 12.0004 17.25 12.0004M5.875 26.8754C3.25 29.0804 2.375 35.6254 2.375 35.6254C2.375 35.6254 8.92 34.7504 11.125 32.1254C12.3675 30.6554 12.35 28.3979 10.9675 27.0329C10.2873 26.3837 9.39126 26.0085 8.4514 25.9795C7.51153 25.9504 6.59403 26.2695 5.875 26.8754Z" stroke="white" stroke-width="3" stroke-linecap="round" stroke-linejoin="round"/>
</svg>
