<svg width="36" height="36" viewBox="0 0 36 36" fill="none" xmlns="http://www.w3.org/2000/svg">
<path d="M33.75 33.75H5.05C4.06991 33.75 3.57986 33.75 3.20552 33.5593C2.87623 33.3915 2.60852 33.1238 2.44074 32.7945C2.25 32.4201 2.25 31.9301 2.25 30.95V2.25M33.75 9.25L24.2399 18.7601C23.8934 19.1066 23.7202 19.2798 23.5204 19.3447C23.3447 19.4018 23.1553 19.4018 22.9796 19.3447C22.7798 19.2798 22.6066 19.1066 22.2601 18.7601L18.9899 15.49C18.6434 15.1434 18.4702 14.9702 18.2704 14.9053C18.0947 14.8482 17.9053 14.8482 17.7296 14.9053C17.5298 14.9702 17.3566 15.1434 17.0101 15.4899L9.25 23.25M33.75 9.25H26.75M33.75 9.25V16.25" stroke="white" stroke-width="3" stroke-linecap="round" stroke-linejoin="round"/>
</svg>
