<svg width="746" height="801" viewBox="0 0 746 801" fill="none" xmlns="http://www.w3.org/2000/svg">
<g clip-path="url(#clip0_3_4664)">
<g opacity="0.8">
<path d="M191.064 772.655H7.87353L3.14941 785.778V789.977L1.27476 794.701L2.09961 799.95L1.0498 796.276L1.27476 794.701L1.57471 792.602L2.09961 786.828C3.49935 777.904 6.29882 759.218 6.29882 755.858C6.29882 751.659 6.54377 750.532 9.44823 745.885C12.0727 741.686 11.5478 740.636 12.5976 735.912C13.6474 731.188 15.7471 732.238 16.272 730.138C16.7969 728.039 17.3218 727.514 18.8965 725.414C20.4712 723.315 20.9961 728.039 25.7202 725.414C30.4443 722.79 29.9194 717.541 30.4443 715.441C30.9692 713.341 34.6435 712.292 35.1684 708.617C35.5883 705.678 37.443 698.644 38.3178 695.495C41.6772 694.235 43.9168 691.82 44.6166 690.771C45.1416 687.096 42.517 686.047 42.517 684.472C42.517 682.897 45.1416 680.273 45.6665 679.223C46.1914 678.173 46.7163 676.073 47.2412 675.548C47.7661 675.024 47.2412 672.924 51.9653 668.725C53.7368 667.15 53.8899 663.826 52.4902 663.476C55.6396 662.951 58.2641 657.702 59.3139 655.077C60.1537 652.978 63.3381 650.003 64.5629 648.778L62.9882 647.729L62.4633 644.054C62.4633 644.054 59.5434 644.581 57.2143 647.729C56.6649 648.471 56.2321 649.473 55.8382 650.537L55.6396 651.928L54.4292 654.349C54.3127 654.607 54.1919 654.852 54.0649 655.077C53.5444 656.094 51.4404 657.702 51.4404 657.177C54.5898 652.453 55.1147 650.878 56.1645 648.254C57.2143 645.629 61.2862 641.499 67.1874 638.28C72.9613 635.131 71.9115 630.617 78.2104 626.208C83.4594 622.533 87.6586 615.185 90.2831 613.61C92.9076 612.035 95.0072 614.135 97.6317 609.411C99.7313 605.632 102.356 603.987 103.406 603.637C103.406 601.012 103.494 599.201 104.98 595.238C106.555 591.039 106.555 588.94 104.455 583.691C102.658 579.197 106.03 573.193 106.555 570.568C107.08 567.944 111.804 560.595 112.854 554.821C114.572 545.373 114.953 551.147 118.103 543.273C121.252 535.4 119.153 536.974 121.252 529.626C123.317 522.399 127.551 523.852 131.225 521.227C134.9 518.603 132.8 513.879 138.049 514.929C143.298 515.978 150.922 510.554 158.52 503.906C166.919 496.557 170.068 485.534 170.593 479.76C171.118 473.986 173.742 473.986 176.367 469.787C178.467 466.428 179.691 458.939 180.041 455.615C182.666 446.166 188.44 448.266 190.014 442.492C192.263 434.248 197.363 435.668 202.087 434.619C206.811 433.569 214.685 433.569 226.758 430.944C238.83 428.32 232.785 426.469 248.279 420.971C254.316 418.829 257.097 418.216 260.876 415.197C267.282 410.08 270.062 404.699 271.374 403.124C273.999 399.975 276.365 400.492 278.198 396.826C279.773 393.676 282.222 392.976 282.922 392.626C286.281 391.367 308.642 379.504 311.267 371.105C312.251 367.956 318.09 366.906 320.19 362.707C322.29 358.508 322.273 359.145 324.389 354.309C328.064 345.91 334.362 340.661 335.412 339.611C336.462 338.562 339.087 333.313 341.711 328.588C343.811 324.809 346.085 315.116 346.96 310.742V307.067C346.96 304.968 344.336 304.968 343.286 302.343C342.236 299.719 340.136 297.619 339.087 296.569C338.037 295.52 335.937 294.995 334.362 293.945C332.788 292.895 336.462 287.121 337.512 285.546C338.562 283.972 338.037 283.447 336.987 282.397C335.937 281.347 337.512 280.822 337.512 279.248C337.512 277.673 335.675 277.673 336.987 275.048C338.667 271.689 336.812 269.275 335.937 268.225C336.287 266.65 336.987 263.291 336.987 262.451C336.987 261.401 338.037 257.202 338.037 256.152C338.037 255.102 333.838 252.478 337.512 250.903C340.451 249.643 339.786 247.054 339.087 246.179C339.087 244.604 342.061 244.604 343.286 240.93C343.755 239.521 343.286 236.206 345.385 234.631C347.485 233.056 359.033 218.359 359.033 215.735C359.033 213.635 361.132 212.06 362.182 211.535L362.182 211.479C362.181 210.676 362.178 207.518 363.232 205.761C364.807 203.137 362.182 204.712 362.182 202.612C362.182 200.512 359.558 203.137 362.182 198.413C364.807 193.689 362.707 193.689 362.182 191.064C361.657 188.44 387.902 164.819 390.002 162.195C391.682 160.095 393.501 155.371 394.201 153.271C395.513 151.959 401.025 149.728 402.6 149.072C404.174 148.416 408.81 145.156 412.048 143.823C416.721 141.899 425.223 137.549 432.519 134.375C439.155 131.488 444.793 129.732 445.642 128.601C448.791 124.402 450.891 127.551 451.94 125.451C452.99 123.352 469.262 114.428 473.461 109.704C477.661 104.98 481.335 98.1565 483.435 93.4324C485.701 88.3335 494.982 77.6854 498.657 62.9881C499.431 59.8906 508.105 41.4671 508.105 38.3177C508.105 35.1683 514.929 18.3714 515.453 13.6474C515.978 8.92334 518.078 8.39834 521.752 8.92324C525.427 9.44814 528.576 6.29863 532.25 5.77373C535.925 5.24883 542.224 1.04961 541.699 2.09941C541.174 3.14922 543.798 3.67412 543.273 5.77373C542.748 7.87333 544.848 15.222 545.898 15.7469C546.738 16.1668 547.298 17.6715 547.473 18.3714L549.047 23.0955L551.147 24.1453C551.672 25.72 554.296 25.1951 560.595 33.5935C567.288 42.5168 572.143 41.992 583.691 44.0916C595.239 46.1912 598.388 43.0418 599.963 42.5168C601.537 41.992 604.687 41.4671 608.361 40.4172C612.035 39.3674 609.936 41.992 613.085 42.5168C616.235 43.0418 616.235 39.3674 618.859 38.3177C621.484 37.268 621.484 38.3177 625.683 41.992C629.882 45.6662 635.131 42.5168 637.756 41.4671C640.38 40.4174 644.579 40.4172 645.104 39.3674C645.629 38.3176 646.154 38.3177 649.303 36.743C652.453 35.1683 651.403 27.8197 653.503 29.9193C655.602 32.0189 653.503 36.743 653.503 38.3177C653.503 39.8924 657.702 37.7928 656.127 41.4671C654.867 44.4066 658.052 46.5412 659.802 47.241C663.476 48.8157 663.476 47.7659 662.951 45.6663C670.824 50.9154 676.948 48.2908 678.698 46.1912L688.671 48.8157C688.671 48.9907 688.566 49.6556 688.146 50.9153C687.621 52.49 690.553 53.5398 691.296 53.5398C692.345 53.5398 692.87 54.5897 693.395 55.6395C693.815 56.4793 694.62 57.3891 694.97 57.7391H699.169L699.694 60.8885L702.843 62.9881V64.5628L706.518 65.6126L710.192 68.2371L708.617 69.2869L708.092 71.3865L704.943 75.5857L707.043 76.6355L710.717 81.8845H712.817L708.092 88.1834L711.242 92.9075V97.6316L714.391 103.93L711.767 117.053L713.341 121.777V122.827L710.717 125.451V126.501L712.292 128.076H714.391L715.441 130.7L717.016 131.525L716.491 133.325V134.9L717.016 135.949L715.966 138.049V140.149L713.866 144.873V149.597L717.016 154.321L717.541 156.421L718.066 157.47L718.591 158.52L722.265 160.62L723.315 162.719L722.265 166.394L719.64 168.493L726.464 179.516L730.663 181.616L744.311 192.114L740.636 195.788L739.062 196.313L738.537 197.363L735.387 197.888L734.338 200.512L732.763 202.087L733.288 203.662V208.911L731.713 210.486L735.912 211.01L736.962 214.16L732.763 215.735L722.79 214.685H714.916L702.319 211.01L701.269 211.535H699.694L698.119 210.486L691.296 212.585L687.096 211.535H677.123L673.974 212.06L670.3 214.16H660.326L657.177 213.635L655.602 214.685L655.077 218.884L657.177 222.033V224.133L658.752 225.708V228.857L660.326 229.907L659.277 230.957L621.484 239.88L620.959 253.527L618.859 255.627L617.284 255.102C617.284 255.102 616.76 257.202 616.235 257.727C615.296 258.666 616.235 259.301 616.76 259.826C615.71 260.351 615.648 261.277 616.235 262.451C617.284 264.55 615.71 265.075 615.71 266.65C615.71 268.225 616.235 267.175 617.284 267.7C618.334 268.225 618.334 267.175 618.334 266.65C618.334 266.125 618.859 265.6 619.384 265.075C619.909 264.55 620.434 265.6 620.959 265.6C621.484 265.6 621.484 266.65 621.484 268.225C621.484 269.799 622.533 267.175 622.533 267.7C622.533 268.225 623.583 268.225 623.583 267.7C623.583 267.175 624.633 269.799 624.633 270.324C624.633 270.849 625.683 270.849 625.683 271.374C625.683 271.794 626.383 270.499 626.733 269.799L627.258 275.573L626.733 277.148L625.158 278.198L624.633 280.822L621.484 282.397V286.071C621.484 286.071 624.108 286.596 623.058 288.696L622.009 290.271L606.786 296.045L598.388 296.569L591.039 299.194L578.442 312.316L561.645 320.715L546.948 332.788L544.848 335.412V339.086L533.3 354.833H530.676L528.051 352.209C527.347 352.913 526.606 353.756 525.952 353.784C525.142 353.818 524.556 352.845 525.427 351.684C527.001 349.585 526.476 349.584 524.377 348.535C522.252 347.472 514.929 351.159 510.729 350.634L504.431 349.584L501.281 351.159H491.833L488.159 353.784L484.484 352.734L480.81 353.784L477.661 356.933H475.561C474.874 356.933 474.713 355.455 472.412 354.833C471.194 354.504 467.424 354.309 465.063 354.309C462.963 354.309 463.418 352.817 461.914 352.734C460.925 352.679 458.764 353.259 455.09 356.933C452.834 359.188 450.84 360.07 448.791 360.607C444.473 361.74 438.818 360.607 438.818 361.132C438.643 362.007 438.083 363.022 437.243 364.282C436.193 365.856 431.994 365.331 430.944 367.431C429.895 369.531 426.745 371.105 425.17 371.105C423.596 371.105 413.623 381.078 411.523 381.078C409.423 381.078 410.473 384.228 408.898 383.703C407.639 383.283 405.224 385.278 403.649 387.377C403.649 387.377 398.925 393.151 389.477 395.251V536.974H236.206V666.625L228.857 668.2L218.884 673.449L208.911 675.548L184.765 692.345L185.29 696.545L182.666 702.318L185.815 714.391L191.064 772.655Z" fill="#182049"/>
<path d="M56.1645 648.254C57.2143 645.629 61.2862 641.499 67.1874 638.28C72.9613 635.131 71.9115 630.617 78.2104 626.208C83.4594 622.533 87.6586 615.185 90.2831 613.61C92.9076 612.035 95.0072 614.135 97.6317 609.411C99.7313 605.632 102.356 603.987 103.406 603.637C103.406 601.012 103.494 599.201 104.98 595.238C106.555 591.039 106.555 588.94 104.455 583.691C102.658 579.197 106.03 573.193 106.555 570.568C107.08 567.944 111.804 560.595 112.854 554.821C114.572 545.373 114.953 551.147 118.103 543.273C121.252 535.4 119.153 536.974 121.252 529.626C123.317 522.399 127.551 523.852 131.225 521.227C134.9 518.603 132.8 513.879 138.049 514.929C143.298 515.978 150.922 510.554 158.52 503.906C166.919 496.557 170.068 485.534 170.593 479.76C171.118 473.986 173.742 473.986 176.367 469.787C178.467 466.428 179.691 458.939 180.041 455.615C182.666 446.166 188.44 448.266 190.014 442.492C192.263 434.248 197.363 435.668 202.087 434.619C206.811 433.569 214.685 433.569 226.758 430.944C238.83 428.32 232.785 426.469 248.279 420.971C254.316 418.829 257.097 418.216 260.876 415.197C267.282 410.08 270.062 404.699 271.374 403.124C273.999 399.975 276.365 400.492 278.198 396.826C279.773 393.676 282.222 392.976 282.922 392.626C286.281 391.367 308.642 379.504 311.267 371.105C312.251 367.956 318.09 366.906 320.19 362.707C322.29 358.508 322.273 359.145 324.389 354.309C328.064 345.91 334.362 340.661 335.412 339.611C336.462 338.562 339.087 333.313 341.711 328.588C343.811 324.809 346.085 315.116 346.96 310.742C346.96 310.217 346.96 308.747 346.96 307.067C346.96 304.968 344.336 304.968 343.286 302.343C342.236 299.719 340.136 297.619 339.087 296.569C338.037 295.52 335.937 294.995 334.362 293.945C332.788 292.895 336.462 287.121 337.512 285.546C338.562 283.972 338.037 283.447 336.987 282.397C335.937 281.347 337.512 280.822 337.512 279.248C337.512 277.673 335.675 277.673 336.987 275.048C338.667 271.689 336.812 269.275 335.937 268.225C336.287 266.65 336.987 263.291 336.987 262.451C336.987 261.401 338.037 257.202 338.037 256.152C338.037 255.102 333.838 252.478 337.512 250.903C340.451 249.643 339.786 247.054 339.087 246.179C339.087 244.604 342.061 244.604 343.286 240.93C343.755 239.521 343.286 236.206 345.385 234.631C347.485 233.056 359.033 218.359 359.033 215.735C359.033 213.635 361.132 212.06 362.182 211.535C362.182 210.835 362.152 207.562 363.232 205.761C364.807 203.137 362.182 204.712 362.182 202.612C362.182 200.512 359.558 203.137 362.182 198.413C364.807 193.689 362.707 193.689 362.182 191.064C361.657 188.44 387.902 164.819 390.002 162.195C391.682 160.095 393.501 155.371 394.201 153.271C395.513 151.959 401.025 149.728 402.6 149.072C404.174 148.416 408.81 145.156 412.048 143.823C416.721 141.899 425.223 137.549 432.519 134.375C439.155 131.488 444.793 129.732 445.642 128.601C448.791 124.402 450.891 127.551 451.94 125.451C452.99 123.352 469.262 114.428 473.461 109.704C477.661 104.98 481.335 98.1565 483.435 93.4324C485.701 88.3336 494.982 77.6854 498.657 62.9881C499.431 59.8906 508.105 41.4671 508.105 38.3177C508.105 35.1683 514.929 18.3714 515.454 13.6474C515.978 8.92334 518.078 8.39834 521.752 8.92324C525.427 9.44814 528.576 6.29863 532.25 5.77373C535.925 5.24883 542.224 1.04961 541.699 2.09941C541.174 3.14922 543.798 3.67412 543.273 5.77373C542.748 7.87333 544.848 15.222 545.898 15.7469C546.738 16.1668 547.298 17.6715 547.473 18.3714L549.047 23.0955L551.147 24.1453C551.672 25.72 554.296 25.1951 560.595 33.5935C567.288 42.5168 572.143 41.9919 583.691 44.0916C595.239 46.1912 598.388 43.0418 599.963 42.5169C601.537 41.9919 604.687 41.4671 608.361 40.4172C612.035 39.3674 609.936 41.9919 613.085 42.5169C616.235 43.0418 616.235 39.3674 618.859 38.3177C621.484 37.268 621.484 38.3177 625.683 41.9919C629.882 45.6662 635.131 42.5169 637.756 41.4671C640.38 40.4174 644.579 40.4172 645.104 39.3674C645.629 38.3176 646.154 38.3177 649.303 36.743C652.453 35.1683 651.403 27.8197 653.503 29.9193C655.602 32.0189 653.503 36.743 653.503 38.3177C653.503 39.8924 657.702 37.7928 656.127 41.4671C654.867 44.4066 658.052 46.5412 659.801 47.241C663.476 48.8157 663.476 47.7659 662.951 45.6663C670.824 50.9154 676.948 48.2908 678.698 46.1912L688.671 48.8157C688.671 48.9907 688.566 49.6556 688.146 50.9153C687.621 52.49 690.553 53.5398 691.296 53.5398C692.345 53.5398 692.87 54.5897 693.395 55.6395C693.815 56.4793 694.62 57.3891 694.97 57.7391H699.169L699.694 60.8885L702.843 62.9881V64.5628L706.518 65.6126L710.192 68.2371L708.617 69.2869L708.092 71.3865L704.943 75.5857L707.043 76.6355L710.717 81.8845H712.817L708.092 88.1834L711.242 92.9075V97.6316L714.391 103.93L711.767 117.053L713.341 121.777V122.827L710.717 125.451V126.501L712.292 128.076H714.391L715.441 130.7L717.016 131.525L716.491 133.325V134.9L717.016 135.949L715.966 138.049V140.149L713.866 144.873V149.597L717.016 154.321L717.541 156.421L718.066 157.47L718.59 158.52L722.265 160.62L723.315 162.719L722.265 166.394L719.64 168.493L726.464 179.516L730.663 181.616L744.311 192.114L740.636 195.788L739.062 196.313L738.537 197.363L735.387 197.888L734.338 200.512L732.763 202.087L733.288 203.662V208.911L731.713 210.486L735.912 211.01L736.962 214.16L732.763 215.735L722.79 214.685H714.916L702.319 211.01L701.269 211.535H699.694L698.119 210.486L691.296 212.585L687.096 211.535H677.123L673.974 212.06L670.3 214.16H660.326L657.177 213.635L655.602 214.685L655.077 218.884L657.177 222.033V224.133L658.752 225.708V228.857L660.326 229.907L659.277 230.957L621.484 239.88L620.959 253.527L618.859 255.627L617.284 255.102C617.284 255.102 616.76 257.202 616.235 257.727C615.296 258.666 616.235 259.301 616.76 259.826C615.71 260.351 615.648 261.277 616.235 262.451C617.284 264.55 615.71 265.075 615.71 266.65C615.71 268.225 616.235 267.175 617.284 267.7C618.334 268.225 618.334 267.175 618.334 266.65C618.334 266.125 618.859 265.6 619.384 265.075C619.909 264.55 620.434 265.6 620.959 265.6C621.484 265.6 621.484 266.65 621.484 268.225C621.484 269.799 622.533 267.175 622.533 267.7C622.533 268.225 623.583 268.225 623.583 267.7C623.583 267.175 624.633 269.799 624.633 270.324C624.633 270.849 625.683 270.849 625.683 271.374C625.683 271.794 626.383 270.499 626.733 269.799L627.258 275.573L626.733 277.148L625.158 278.198L624.633 280.822L621.484 282.397V286.071C621.484 286.071 624.108 286.596 623.058 288.696L622.009 290.271L606.786 296.045L598.388 296.569L591.039 299.194L578.442 312.316L561.645 320.715L546.948 332.788L544.848 335.412V339.086L533.3 354.833H530.676L528.051 352.209C527.347 352.913 526.606 353.756 525.952 353.784C525.142 353.818 524.556 352.845 525.427 351.684C527.001 349.585 526.476 349.584 524.377 348.535C522.252 347.472 514.929 351.159 510.729 350.634L504.431 349.584L501.281 351.159H491.833L488.159 353.784L484.484 352.734L480.81 353.784L477.661 356.933C477.311 356.933 476.401 356.933 475.561 356.933C474.874 356.933 474.713 355.455 472.412 354.833C471.194 354.504 467.424 354.309 465.063 354.309C462.963 354.309 463.418 352.817 461.914 352.734C460.925 352.679 458.764 353.259 455.09 356.933C452.834 359.188 450.84 360.07 448.791 360.607C444.473 361.74 438.818 360.607 438.818 361.132C438.643 362.007 438.083 363.022 437.243 364.282C436.193 365.856 431.994 365.331 430.944 367.431C429.895 369.531 426.745 371.105 425.17 371.105C423.596 371.105 413.623 381.078 411.523 381.078C409.423 381.078 410.473 384.228 408.898 383.703C407.639 383.283 405.224 385.278 403.649 387.377C403.649 387.377 398.925 393.151 389.477 395.251V536.974H236.206V666.625L228.857 668.2L218.884 673.449L208.911 675.548L184.765 692.345L185.29 696.545L182.666 702.318L185.815 714.391L191.064 772.655H7.87353L3.14941 785.778V789.977L1.27476 794.701L2.09961 799.95L1.0498 796.276L1.57471 792.602L2.09961 786.828C3.49935 777.904 6.29882 759.218 6.29882 755.858C6.29882 751.659 6.54377 750.532 9.44823 745.885C12.0727 741.686 11.5478 740.636 12.5976 735.912C13.6474 731.188 15.7471 732.238 16.272 730.138C16.7969 728.039 17.3218 727.514 18.8965 725.414C20.4712 723.315 20.9961 728.039 25.7202 725.414C30.4443 722.79 29.9194 717.541 30.4443 715.441C30.9692 713.341 34.6435 712.292 35.1684 708.617C35.5883 705.678 37.443 698.644 38.3178 695.495C41.6772 694.235 43.9168 691.82 44.6166 690.771C45.1416 687.096 42.517 686.046 42.517 684.472C42.517 682.897 45.1416 680.273 45.6665 679.223C46.1914 678.173 46.7163 676.073 47.2412 675.548C47.7661 675.024 47.2412 672.924 51.9653 668.725C53.7368 667.15 53.8899 663.826 52.4902 663.476C55.6396 662.951 58.2641 657.702 59.3139 655.077C60.1537 652.978 63.3381 650.003 64.5629 648.778L62.9882 647.729L62.4633 644.054C62.4633 644.054 59.5434 644.581 57.2143 647.729C55.8403 649.585 55.1953 653.068 54.0649 655.077M56.1645 648.254C55.1147 650.878 54.5898 652.453 51.4404 657.177C51.4404 657.702 53.5444 656.094 54.0649 655.077M56.1645 648.254L55.6396 651.928L54.0649 655.077" stroke="#00CDAE" stroke-width="2.09961" stroke-linejoin="round"/>
<path d="M523.852 8.39844L511.779 115.478M511.779 115.478L630.407 43.5669M511.779 115.478L404.699 148.022M511.779 115.478L449.316 169.543M511.779 115.478L516.503 183.716M511.779 115.478L580.541 133.85" stroke="#00CDAE" stroke-width="2.09961"/>
<path d="M630.932 44.6167L641.43 150.647M641.43 150.647L710.192 95.0073L631.981 44.0918M641.43 150.647L588.939 186.34M641.43 150.647L621.483 239.88M641.43 150.647L657.702 214.16M641.43 150.647L719.64 167.444L660.326 214.16M641.43 150.647L580.541 133.85" stroke="#00CDAE" stroke-width="2.09961"/>
<path d="M516.503 183.715L520.178 236.205M520.178 236.205L588.94 186.339M520.178 236.205L466.638 275.573M520.178 236.205L544.848 335.411M520.178 236.205L621.484 239.879M520.178 236.205L467.163 218.883" stroke="#00CDAE" stroke-width="2.09961"/>
<path d="M353.784 224.133L400.5 323.864M400.5 323.864L466.638 275.573M400.5 323.864L403.124 388.427M400.5 323.864L406.274 261.926M400.5 323.864L544.323 335.412M400.5 323.864L348.01 308.117L353.784 225.708" stroke="#00CDAE" stroke-width="2.09961"/>
<path d="M103.931 603.112L159.045 672.924M159.045 672.924L236.206 598.388L196.313 683.947L159.045 672.924ZM159.045 672.924L114.954 772.655M159.045 672.924L174.792 772.655M159.045 672.924L118.628 689.196" stroke="#00CDAE" stroke-width="2.09961"/>
<path d="M76.6352 706.518L102.88 603.112M76.6352 706.518L40.417 772.131L44.6162 690.246L76.6352 706.518ZM76.6352 706.518L118.627 689.196M76.6352 706.518L114.953 772.656" stroke="#00CDAE" stroke-width="2.09961"/>
<path d="M286.072 391.576L306.018 490.782M306.018 490.782L336.462 472.411M306.018 490.782L247.754 536.449M306.018 490.782L346.435 313.891M306.018 490.782L343.286 536.449M306.018 490.782L269.8 477.66" stroke="#00CDAE" stroke-width="2.09961"/>
<path d="M206.811 510.204L237.78 466.638M237.78 466.638L285.546 392.102M237.78 466.638L246.704 536.45M237.78 466.638L269.799 477.661M237.78 466.638L189.489 444.067" stroke="#00CDAE" stroke-width="2.09961"/>
<path d="M103.405 603.112L170.068 562.694M170.068 562.694L190.539 444.066M170.068 562.694L235.156 598.388M170.068 562.694L244.604 524.901M170.068 562.694L137.524 515.978M170.068 562.694L206.811 510.204" stroke="#00CDAE" stroke-width="2.09961"/>
<path d="M361.657 457.189L390.527 371.63M361.657 457.189L343.286 538.024M361.657 457.189L347.485 309.691L402.6 388.427M361.657 457.189L390.527 504.955M361.657 457.189L335.412 473.461" stroke="#00CDAE" stroke-width="2.09961"/>
<path d="M405.224 147.497L412.048 201.037M412.048 201.037L449.316 169.543M412.048 201.037L354.309 224.133M412.048 201.037L406.274 262.451M412.048 201.037L467.162 218.884" stroke="#00CDAE" stroke-width="2.09961"/>
</g>
<g filter="url(#filter0_d_3_4664)">
<circle cx="511.254" cy="116.528" r="9.44823" fill="#00CDAE"/>
</g>
<g opacity="0.8" filter="url(#filter1_d_3_4664)">
<circle cx="641.43" cy="151.172" r="6.29882" fill="#00CDAE"/>
</g>
<g opacity="0.8" filter="url(#filter2_d_3_4664)">
<circle cx="520.703" cy="236.206" r="6.29882" fill="#00CDAE"/>
</g>
<g opacity="0.8" filter="url(#filter3_d_3_4664)">
<circle cx="411.523" cy="200.513" r="4.19921" fill="#00CDAE"/>
</g>
<g opacity="0.8" filter="url(#filter4_d_3_4664)">
<circle cx="401.025" cy="322.29" r="2.09961" fill="#00CDAE"/>
</g>
<g opacity="0.8" filter="url(#filter5_d_3_4664)">
<circle cx="361.132" cy="454.565" r="6.29882" fill="#00CDAE"/>
</g>
<g opacity="0.8" filter="url(#filter6_d_3_4664)">
<circle cx="306.542" cy="489.208" r="6.29882" fill="#00CDAE"/>
</g>
<g opacity="0.8" filter="url(#filter7_d_3_4664)">
<circle cx="171.068" cy="561.694" r="5.24902" fill="#00CDAE"/>
</g>
<g opacity="0.8" filter="url(#filter8_d_3_4664)">
<circle cx="3.14941" cy="3.14941" r="3.14941" transform="matrix(1 0 0 -1 156 677.299)" fill="#00CDAE"/>
</g>
<g opacity="0.8" filter="url(#filter9_d_3_4664)">
<circle cx="76.5859" cy="705.518" r="2.09961" fill="#00CDAE"/>
</g>
</g>
<defs>
<filter id="filter0_d_3_4664" x="455.806" y="61.0801" width="110.896" height="110.896" filterUnits="userSpaceOnUse" color-interpolation-filters="sRGB">
<feFlood flood-opacity="0" result="BackgroundImageFix"/>
<feColorMatrix in="SourceAlpha" type="matrix" values="0 0 0 0 0 0 0 0 0 0 0 0 0 0 0 0 0 0 127 0" result="hardAlpha"/>
<feMorphology radius="21" operator="dilate" in="SourceAlpha" result="effect1_dropShadow_3_4664"/>
<feOffset/>
<feGaussianBlur stdDeviation="12.5"/>
<feComposite in2="hardAlpha" operator="out"/>
<feColorMatrix type="matrix" values="0 0 0 0 0 0 0 0 0 0.803922 0 0 0 0 0.682353 0 0 0 1 0"/>
<feBlend mode="normal" in2="BackgroundImageFix" result="effect1_dropShadow_3_4664"/>
<feBlend mode="normal" in="SourceGraphic" in2="effect1_dropShadow_3_4664" result="shape"/>
</filter>
<filter id="filter1_d_3_4664" x="614.135" y="123.877" width="54.5898" height="54.5898" filterUnits="userSpaceOnUse" color-interpolation-filters="sRGB">
<feFlood flood-opacity="0" result="BackgroundImageFix"/>
<feColorMatrix in="SourceAlpha" type="matrix" values="0 0 0 0 0 0 0 0 0 0 0 0 0 0 0 0 0 0 127 0" result="hardAlpha"/>
<feMorphology radius="8.39843" operator="dilate" in="SourceAlpha" result="effect1_dropShadow_3_4664"/>
<feOffset/>
<feGaussianBlur stdDeviation="6.29882"/>
<feComposite in2="hardAlpha" operator="out"/>
<feColorMatrix type="matrix" values="0 0 0 0 0 0 0 0 0 0.803922 0 0 0 0 0.682353 0 0 0 1 0"/>
<feBlend mode="normal" in2="BackgroundImageFix" result="effect1_dropShadow_3_4664"/>
<feBlend mode="normal" in="SourceGraphic" in2="effect1_dropShadow_3_4664" result="shape"/>
</filter>
<filter id="filter2_d_3_4664" x="493.408" y="208.911" width="54.5898" height="54.5898" filterUnits="userSpaceOnUse" color-interpolation-filters="sRGB">
<feFlood flood-opacity="0" result="BackgroundImageFix"/>
<feColorMatrix in="SourceAlpha" type="matrix" values="0 0 0 0 0 0 0 0 0 0 0 0 0 0 0 0 0 0 127 0" result="hardAlpha"/>
<feMorphology radius="8.39843" operator="dilate" in="SourceAlpha" result="effect1_dropShadow_3_4664"/>
<feOffset/>
<feGaussianBlur stdDeviation="6.29882"/>
<feComposite in2="hardAlpha" operator="out"/>
<feColorMatrix type="matrix" values="0 0 0 0 0 0 0 0 0 0.803922 0 0 0 0 0.682353 0 0 0 1 0"/>
<feBlend mode="normal" in2="BackgroundImageFix" result="effect1_dropShadow_3_4664"/>
<feBlend mode="normal" in="SourceGraphic" in2="effect1_dropShadow_3_4664" result="shape"/>
</filter>
<filter id="filter3_d_3_4664" x="386.328" y="175.317" width="50.3906" height="50.3906" filterUnits="userSpaceOnUse" color-interpolation-filters="sRGB">
<feFlood flood-opacity="0" result="BackgroundImageFix"/>
<feColorMatrix in="SourceAlpha" type="matrix" values="0 0 0 0 0 0 0 0 0 0 0 0 0 0 0 0 0 0 127 0" result="hardAlpha"/>
<feMorphology radius="8.39843" operator="dilate" in="SourceAlpha" result="effect1_dropShadow_3_4664"/>
<feOffset/>
<feGaussianBlur stdDeviation="6.29882"/>
<feComposite in2="hardAlpha" operator="out"/>
<feColorMatrix type="matrix" values="0 0 0 0 0 0 0 0 0 0.803922 0 0 0 0 0.682353 0 0 0 1 0"/>
<feBlend mode="normal" in2="BackgroundImageFix" result="effect1_dropShadow_3_4664"/>
<feBlend mode="normal" in="SourceGraphic" in2="effect1_dropShadow_3_4664" result="shape"/>
</filter>
<filter id="filter4_d_3_4664" x="377.929" y="299.194" width="46.1914" height="46.1914" filterUnits="userSpaceOnUse" color-interpolation-filters="sRGB">
<feFlood flood-opacity="0" result="BackgroundImageFix"/>
<feColorMatrix in="SourceAlpha" type="matrix" values="0 0 0 0 0 0 0 0 0 0 0 0 0 0 0 0 0 0 127 0" result="hardAlpha"/>
<feMorphology radius="8.39843" operator="dilate" in="SourceAlpha" result="effect1_dropShadow_3_4664"/>
<feOffset/>
<feGaussianBlur stdDeviation="6.29882"/>
<feComposite in2="hardAlpha" operator="out"/>
<feColorMatrix type="matrix" values="0 0 0 0 0 0 0 0 0 0.803922 0 0 0 0 0.682353 0 0 0 1 0"/>
<feBlend mode="normal" in2="BackgroundImageFix" result="effect1_dropShadow_3_4664"/>
<feBlend mode="normal" in="SourceGraphic" in2="effect1_dropShadow_3_4664" result="shape"/>
</filter>
<filter id="filter5_d_3_4664" x="333.837" y="427.271" width="54.5898" height="54.5898" filterUnits="userSpaceOnUse" color-interpolation-filters="sRGB">
<feFlood flood-opacity="0" result="BackgroundImageFix"/>
<feColorMatrix in="SourceAlpha" type="matrix" values="0 0 0 0 0 0 0 0 0 0 0 0 0 0 0 0 0 0 127 0" result="hardAlpha"/>
<feMorphology radius="8.39843" operator="dilate" in="SourceAlpha" result="effect1_dropShadow_3_4664"/>
<feOffset/>
<feGaussianBlur stdDeviation="6.29882"/>
<feComposite in2="hardAlpha" operator="out"/>
<feColorMatrix type="matrix" values="0 0 0 0 0 0 0 0 0 0.803922 0 0 0 0 0.682353 0 0 0 1 0"/>
<feBlend mode="normal" in2="BackgroundImageFix" result="effect1_dropShadow_3_4664"/>
<feBlend mode="normal" in="SourceGraphic" in2="effect1_dropShadow_3_4664" result="shape"/>
</filter>
<filter id="filter6_d_3_4664" x="279.248" y="461.913" width="54.5898" height="54.5898" filterUnits="userSpaceOnUse" color-interpolation-filters="sRGB">
<feFlood flood-opacity="0" result="BackgroundImageFix"/>
<feColorMatrix in="SourceAlpha" type="matrix" values="0 0 0 0 0 0 0 0 0 0 0 0 0 0 0 0 0 0 127 0" result="hardAlpha"/>
<feMorphology radius="8.39843" operator="dilate" in="SourceAlpha" result="effect1_dropShadow_3_4664"/>
<feOffset/>
<feGaussianBlur stdDeviation="6.29882"/>
<feComposite in2="hardAlpha" operator="out"/>
<feColorMatrix type="matrix" values="0 0 0 0 0 0 0 0 0 0.803922 0 0 0 0 0.682353 0 0 0 1 0"/>
<feBlend mode="normal" in2="BackgroundImageFix" result="effect1_dropShadow_3_4664"/>
<feBlend mode="normal" in="SourceGraphic" in2="effect1_dropShadow_3_4664" result="shape"/>
</filter>
<filter id="filter7_d_3_4664" x="144.823" y="535.449" width="52.4902" height="52.4902" filterUnits="userSpaceOnUse" color-interpolation-filters="sRGB">
<feFlood flood-opacity="0" result="BackgroundImageFix"/>
<feColorMatrix in="SourceAlpha" type="matrix" values="0 0 0 0 0 0 0 0 0 0 0 0 0 0 0 0 0 0 127 0" result="hardAlpha"/>
<feMorphology radius="8.39843" operator="dilate" in="SourceAlpha" result="effect1_dropShadow_3_4664"/>
<feOffset/>
<feGaussianBlur stdDeviation="6.29882"/>
<feComposite in2="hardAlpha" operator="out"/>
<feColorMatrix type="matrix" values="0 0 0 0 0 0 0 0 0 0.803922 0 0 0 0 0.682353 0 0 0 1 0"/>
<feBlend mode="normal" in2="BackgroundImageFix" result="effect1_dropShadow_3_4664"/>
<feBlend mode="normal" in="SourceGraphic" in2="effect1_dropShadow_3_4664" result="shape"/>
</filter>
<filter id="filter8_d_3_4664" x="135.004" y="650.004" width="48.291" height="48.291" filterUnits="userSpaceOnUse" color-interpolation-filters="sRGB">
<feFlood flood-opacity="0" result="BackgroundImageFix"/>
<feColorMatrix in="SourceAlpha" type="matrix" values="0 0 0 0 0 0 0 0 0 0 0 0 0 0 0 0 0 0 127 0" result="hardAlpha"/>
<feMorphology radius="8.39843" operator="dilate" in="SourceAlpha" result="effect1_dropShadow_3_4664"/>
<feOffset/>
<feGaussianBlur stdDeviation="6.29882"/>
<feComposite in2="hardAlpha" operator="out"/>
<feColorMatrix type="matrix" values="0 0 0 0 0 0 0 0 0 0.803922 0 0 0 0 0.682353 0 0 0 1 0"/>
<feBlend mode="normal" in2="BackgroundImageFix" result="effect1_dropShadow_3_4664"/>
<feBlend mode="normal" in="SourceGraphic" in2="effect1_dropShadow_3_4664" result="shape"/>
</filter>
<filter id="filter9_d_3_4664" x="53.4903" y="682.422" width="46.1914" height="46.1914" filterUnits="userSpaceOnUse" color-interpolation-filters="sRGB">
<feFlood flood-opacity="0" result="BackgroundImageFix"/>
<feColorMatrix in="SourceAlpha" type="matrix" values="0 0 0 0 0 0 0 0 0 0 0 0 0 0 0 0 0 0 127 0" result="hardAlpha"/>
<feMorphology radius="8.39843" operator="dilate" in="SourceAlpha" result="effect1_dropShadow_3_4664"/>
<feOffset/>
<feGaussianBlur stdDeviation="6.29882"/>
<feComposite in2="hardAlpha" operator="out"/>
<feColorMatrix type="matrix" values="0 0 0 0 0 0 0 0 0 0.803922 0 0 0 0 0.682353 0 0 0 1 0"/>
<feBlend mode="normal" in2="BackgroundImageFix" result="effect1_dropShadow_3_4664"/>
<feBlend mode="normal" in="SourceGraphic" in2="effect1_dropShadow_3_4664" result="shape"/>
</filter>
<clipPath id="clip0_3_4664">
<rect width="745.36" height="801" fill="white"/>
</clipPath>
</defs>
</svg>
