<svg width="555" height="1040" viewBox="0 0 555 1040" fill="none" xmlns="http://www.w3.org/2000/svg">
<g opacity="0.7">
<g opacity="0.1">
<path d="M-469.26 553.631H-423.742L-455.929 585.816L-443.208 620.798L-408.225 633.52L-376.037 601.332V646.853L-345.273 661.208L-333.803 688.859L-345.404 720.761L-313.214 752.949H-358.736L-374.477 786.681L-358.736 820.413H-313.214L-345.404 852.603L-332.683 887.585L-297.699 900.306L-265.51 868.118V913.638L-231.779 929.38L-198.047 913.638V868.118L-165.858 900.306L-133.952 888.704L-106.293 900.143L-91.9374 930.906H-46.4187L-78.6058 963.092L-65.8847 998.077L-30.9024 1010.8L1.28784 978.61V1024.13L35.0179 1039.87L68.7511 1024.13V978.61L100.94 1010.8L135.922 998.077L148.643 963.092L116.451 930.914H161.973L176.334 900.143L203.867 888.632L235.765 900.225L267.954 868.036V913.555L301.684 929.296L335.417 913.555V868.034L367.603 900.218L402.585 887.497L415.306 852.515L383.117 820.331H428.639L444.381 786.598L428.639 752.868H383.117L415.306 720.679L403.713 688.778L415.151 661.208L445.911 646.853V601.332L478.099 633.52L513.082 620.798L525.803 585.816L493.616 553.631H539.134L554.876 519.897L539.134 486.166H493.608L525.796 453.979L513.075 418.995L478.093 406.274L445.904 438.467V392.945L415.143 378.59L403.736 351.012L415.339 319.106L383.151 286.919H428.67L444.412 253.187L428.67 219.454H383.151L415.339 187.269L402.617 152.286L367.635 139.562L335.446 171.751V126.227L301.716 110.485L267.983 126.225V171.746L235.795 139.557L203.893 151.16L176.327 139.73L161.973 108.96H116.45L148.638 76.7718L135.917 41.7894L100.935 29.0668L68.7413 61.2554V15.74L35.0081 0L1.28296 15.74V61.2587L-30.9073 29.0668L-65.8896 41.7894L-78.6107 76.7718L-46.422 108.96H-91.9424L-106.294 139.716L-133.986 151.08L-165.889 139.476L-198.085 171.671V126.149L-231.818 110.409L-265.548 126.15V171.671L-297.737 139.476L-332.719 152.198L-345.44 187.182L-313.253 219.369H-358.773L-374.515 253.101L-358.773 286.834H-313.255L-345.44 319.021L-333.847 350.927L-345.285 378.587L-376.05 392.942V438.467L-408.238 406.279L-443.221 419L-455.934 453.979L-423.745 486.166H-469.26L-485.002 519.897L-469.26 553.631ZM-376.028 449.296V486.164H-412.908L-447.064 452.008L-437.232 424.972L-410.194 415.141L-376.028 449.296ZM-327.548 683.912L-337.345 660.284L-308.559 646.851V601.332L-276.37 633.52L-246.513 622.663L-236.716 646.291L-265.504 659.726V705.246L-297.704 673.057L-327.548 683.912ZM367.616 672.972L335.427 705.161V659.639L306.639 646.206L316.408 622.66L346.265 633.516L378.454 601.329V646.85L407.242 660.282L397.473 683.829L367.616 672.972ZM397.495 355.945L407.238 379.501L378.446 392.937V438.467L346.257 406.279L316.402 417.135L306.656 393.566L335.446 380.13V334.622L367.635 366.811L397.495 355.945ZM-297.732 366.721L-265.543 334.533V380.055L-236.752 393.491L-246.529 417.129L-276.383 406.272L-308.577 438.467V392.945L-337.367 379.509L-327.592 355.871L-297.732 366.721ZM-240.281 617.716L-228.68 585.815L-260.867 553.629H-215.348L-203.809 528.904L-192.216 553.743H-134.592L-187.821 575.786L-189.454 612.976L-162 638.121L-159.745 637.188L-108.76 616.068L-149.501 656.809L-140.194 682.385L-165.849 673.056L-198.055 705.246V659.726L-228.817 645.37L-240.281 617.716ZM-198.055 760.615H-168.85L-189.501 781.267L-198.055 772.712V760.615ZM-205.718 765.05L-210.152 760.615H-205.718V765.05ZM-194.919 786.684L-198.055 789.821V783.548L-194.919 786.684ZM-205.718 797.483L-220.988 812.755H-242.583L-257.853 797.483V775.882L-242.583 760.612H-220.984L-205.715 775.882L-205.718 797.483ZM-234.923 752.953L-231.787 749.816L-228.65 752.953H-234.923ZM-226.369 744.398L-205.718 723.747V752.953H-217.812L-226.369 744.398ZM-198.055 716.081L-163.901 681.927L-136.865 691.759L-127.032 718.795L-161.187 752.949H-198.055V716.081ZM-104.823 752.949H-150.349L-118.16 720.761L-127.467 695.186L-101.811 704.516L-61.055 663.76L-83.1057 716.989L-57.9625 744.451L-20.7726 742.818L-19.8387 740.561L1.28296 689.57V747.192L25.9543 758.707L1.28296 770.219V815.738L-30.9073 783.549L-62.8119 795.152L-90.4728 783.711L-104.823 752.949ZM40.437 854.887L61.0885 834.236V863.44H48.9847L40.437 854.887ZM38.1512 863.44H31.8813L35.0162 860.305L38.1512 863.44ZM61.0852 871.102V875.539L56.6489 871.102H61.0852ZM61.0852 886.374V907.974L45.8154 923.244H24.2154L8.94559 907.974V886.374L24.217 871.102H45.8121L61.0852 886.374ZM8.9473 875.539V871.102H13.3818L8.9473 875.539ZM8.9473 863.44V834.236L29.5986 854.887L21.0446 863.44H8.9473ZM8.9473 823.401V775.096L35.0146 762.932L61.0852 775.096V823.401L35.0162 849.47L8.9473 823.401ZM100.937 783.549L68.7413 815.738V770.218L44.0684 758.705L68.7413 747.19V689.717L90.7839 742.911L127.974 744.544L153.119 717.092L152.186 714.837L131.032 663.765L171.852 704.585L197.277 695.338L188.065 720.676L220.254 752.865H174.727L160.368 783.638L132.831 795.152L100.937 783.549ZM275.615 752.868V723.662L296.266 744.314L287.712 752.868H275.615ZM280.049 760.53L275.615 764.965V760.53H280.049ZM301.684 749.731L304.82 752.868H298.547L301.684 749.731ZM312.483 760.53L327.753 775.8V797.399L312.483 812.668H290.883L275.613 797.399V775.8L290.883 760.53H312.483ZM267.952 789.736L264.816 786.599L267.952 783.463V789.736ZM259.398 781.182L238.747 760.53H267.952V772.628L259.398 781.182ZM231.084 752.868L196.929 718.713L206.672 691.924L206.836 691.867L206.925 691.62L233.804 681.845L267.959 716V752.868H231.084ZM267.952 659.636V705.158L235.764 672.969L210.336 682.214L219.55 656.878L178.73 616.058L232.073 638.155L259.524 613.01L257.891 575.82L255.636 574.888L204.566 553.742H262.293L273.781 529.124L285.211 553.628H330.729L298.544 585.813L310.137 617.714L298.699 645.284L267.952 659.636ZM369.888 514.472L349.237 493.822H378.443V505.918L369.888 514.472ZM378.443 516.758V523.031L375.306 519.894L378.443 516.758ZM386.105 493.827H390.54L386.105 498.261V493.827ZM401.375 493.827H422.973L438.243 509.097V530.693L422.97 545.966H401.375L386.104 530.693V509.098L401.375 493.827ZM390.541 545.966H386.105V541.53L390.541 545.966ZM378.443 545.966H349.232L369.887 525.313L378.441 533.868L378.443 545.966ZM338.398 545.966H290.094L278.012 520.066L278.036 520.01L277.958 519.847L290.096 493.833H338.4L364.469 519.902L338.398 545.966ZM310.151 422.069L298.549 453.979L330.736 486.166H285.216L273.727 510.783L262.298 486.28H204.571L257.911 464.185L259.543 426.999L232.091 401.854L178.763 423.942L219.583 383.123L210.276 357.525L235.79 366.806L267.983 334.622V380.143L298.746 394.496L310.151 422.069ZM267.985 279.25H238.778L259.427 258.598L267.983 267.154L267.985 279.25ZM275.647 274.817L280.082 279.25H275.647V274.817ZM264.838 253.182L267.975 250.046V256.319L264.838 253.182ZM275.638 242.383L290.907 227.112H312.516L327.787 242.383V263.982L312.516 279.251H290.916L275.646 263.982L275.638 242.383ZM304.843 286.914L301.707 290.051L298.57 286.914H304.843ZM296.289 295.468L275.638 316.12V286.914H287.733L296.289 295.468ZM267.975 323.782L233.821 357.937L206.785 348.104L196.96 321.07L231.115 286.916H267.983L267.975 323.782ZM174.743 286.914H220.262L188.098 319.101L197.405 344.697L171.892 335.419L131.073 376.239L153.156 322.896L128.011 295.445L90.8215 297.078L68.7413 350.403V292.673L44.0684 281.162L68.7413 269.649V224.127L100.93 256.316L132.831 244.715L160.398 256.144L174.743 286.914ZM29.5889 184.978L8.94559 205.633V176.424H21.0429L29.5889 184.978ZM31.8748 176.424H38.1447L35.0097 179.559L31.8748 176.424ZM8.9407 168.763V164.323L13.3753 168.759L8.9407 168.763ZM8.9407 153.49V131.893L24.2105 116.621H45.8073L61.0787 131.893V153.49L45.8057 168.763H24.217L8.9407 153.49ZM61.0836 164.323V168.759H56.6473L61.0836 164.323ZM61.0836 176.42V205.633L40.4321 184.978L48.9847 176.424L61.0836 176.42ZM61.0836 216.461V264.765L35.013 276.93L8.94559 264.765V216.464L35.0146 190.395L61.0836 216.461ZM-30.9073 256.313L1.28296 224.124V269.644L25.9527 281.159L1.28296 292.67V350.54L-20.8249 297.17L-58.0147 295.537L-83.1596 322.989L-82.2256 325.244L-61.104 376.235L-101.852 335.489L-127.592 344.852L-118.199 319.018L-150.378 286.833H-104.859L-90.5055 256.076L-62.8135 244.712L-30.9073 256.313ZM-205.747 286.829V316.033L-226.399 295.382L-217.845 286.829H-205.747ZM-210.184 279.167L-205.747 274.73V279.167H-210.184ZM-231.816 289.964L-234.951 286.829H-228.681L-231.816 289.964ZM-242.614 279.167L-257.885 263.895V242.3L-242.615 227.03H-221.019L-205.747 242.3V263.898L-221.019 279.17L-242.614 279.167ZM-198.085 249.961L-194.95 253.096L-198.085 256.233V249.961ZM-189.53 258.515L-168.879 279.167H-198.085V267.068L-189.53 258.515ZM-161.216 286.829L-127.062 320.984L-136.894 348.019L-163.93 357.854L-198.085 323.699V286.833L-161.216 286.829ZM-198.085 380.053V334.531L-165.889 366.723L-140.147 357.362L-149.542 383.196L-147.816 384.92L-108.793 423.944L-162.021 401.893L-189.473 427.038L-187.841 464.224L-134.592 486.28H-192.223L-203.762 511.005L-215.355 486.166H-260.873L-228.685 453.979L-240.287 422.071L-228.848 394.412L-198.085 380.053ZM-140.638 658.769L-90.2687 608.401L-27.3217 582.327L-53.3907 645.263L-103.773 695.645L-130.809 685.813L-140.638 658.769ZM61.0836 742.312L35.013 754.476L8.94559 742.312V671.069L34.9836 608.206L61.0836 671.216V742.312ZM200.686 685.943L173.808 695.719L123.355 645.266L97.2922 582.332L160.231 608.402L210.684 658.855L200.941 685.644L200.778 685.702L200.686 685.943ZM269.471 519.889L269.551 520.053L257.411 546.068H186.058L123.123 519.999L186.063 493.928H257.406L269.489 519.827L269.471 519.889ZM200.886 354.119L210.718 381.155L160.265 431.608L97.3347 457.674L123.409 394.73L173.85 344.287L200.886 354.119ZM8.94559 297.558L35.013 285.394L61.0836 297.558V368.911L34.9852 431.92L8.94559 369.058V297.558ZM-130.847 354.196L-103.809 344.365L-53.4365 394.738L-27.3658 457.682L-90.2916 431.61L-140.679 381.229L-130.847 354.196ZM8.94559 525.312V514.797L12.9084 505.227L20.2314 497.905L29.8044 493.939H40.1677L49.7406 497.904L57.0669 505.23L61.0869 514.935V525.168L57.1144 534.757L49.7668 542.105L40.1774 546.076H29.7979L20.202 542.102L12.8626 534.754L8.94559 525.312ZM1.04947 506.251L0.90744 505.909L1.28296 505.754V506.019L1.04947 506.251ZM8.94559 494.284V493.939H9.2901L9.18884 494.183L8.94559 494.284ZM20.7571 486.283L20.891 485.957L21.2176 486.089L21.0298 486.277L20.7571 486.283ZM34.7386 483.403L34.9836 483.158L35.2302 483.403L34.9836 483.506L34.7386 483.403ZM48.7561 486.096L49.0827 485.962L49.2149 486.288H48.9487L48.7561 486.096ZM60.6754 493.946H61.0787V494.308L60.7767 494.183L60.6754 493.946ZM68.7413 505.785L69.0565 505.916L68.9144 506.259L68.7413 506.084V505.785ZM71.6053 519.785L71.8469 520.026L71.5856 520.288L71.491 520.059L71.6053 519.785ZM68.8948 533.814L69.027 534.14L68.7413 534.258V533.975L68.8948 533.814ZM61.0787 545.718V546.086H60.7113L60.8191 545.826L61.0787 545.718ZM49.2443 553.748L49.1039 554.085L48.7643 553.944L48.9618 553.748H49.2443ZM35.2383 556.635L34.9787 556.895L34.7207 556.637L34.9819 556.527L35.2383 556.635ZM21.1964 553.946L20.8584 554.086L20.718 553.748H20.9988L21.1964 553.946ZM9.24936 546.086H8.94229V545.741L9.14151 545.824L9.24936 546.086ZM1.27966 534.274L0.93515 534.132L1.0658 533.815L1.27966 534.028V534.274ZM-1.62335 520.289L-1.88794 520.026L-1.64456 519.785L-1.53036 520.061L-1.62335 520.289ZM-7.30548 514.609L-11.0478 510.867L-6.17398 508.848L-4.81876 512.122L-7.30548 514.609ZM-16.9128 505L-27.9667 493.946H-12.3474L-9.108 501.767L-16.9128 505ZM-4.05298 493.946H1.27966V497.465L-2.02835 498.835L-4.05298 493.946ZM-7.22705 486.283L-13.2096 471.838L1.27966 477.84V486.283H-7.22705ZM8.93741 481.014L13.8032 483.031L12.4561 486.283H8.93741V481.014ZM8.93741 472.72V457.119L19.9669 468.15L16.7356 475.951L8.93741 472.72ZM25.8318 474.015L29.5579 477.741L27.0695 480.231L23.8153 478.882L25.8318 474.015ZM29.006 466.352L34.9771 451.936L40.9482 466.352L34.9754 472.323L29.006 466.352ZM44.1207 474.013L46.1387 478.882L42.883 480.231L40.393 477.741L44.1207 474.013ZM49.9856 468.148L61.0754 457.06V472.695L53.2299 475.946L49.9856 468.148ZM61.0754 480.99V486.283H57.498L56.1509 483.029L61.0754 480.99ZM68.7413 477.817L83.1735 471.84L77.1894 486.285H68.7413V477.817ZM74.0152 493.948L71.989 498.838L68.7413 497.492V493.948H74.0152ZM82.3082 493.948H97.9273L86.8734 505.002L79.0687 501.769L82.3082 493.948ZM81.0018 510.868L77.2595 514.611L74.7745 512.124L76.1313 508.85L81.0018 510.868ZM88.6662 514.041L103.098 520.02L88.6531 526.002L82.6788 520.028L88.6662 514.041ZM80.9921 529.177L76.1035 531.203L74.7565 527.952L77.2628 525.446L80.9921 529.177ZM86.857 535.042L97.9028 546.087H82.2771L79.0442 538.281L86.857 535.042ZM73.9744 546.087H68.7413V542.541L71.9596 541.208L73.9744 546.087ZM77.1485 553.75L83.1262 568.18L68.738 562.221V553.742L77.1485 553.75ZM61.0754 559.047L56.1771 557.019L57.5306 553.753H61.0721L61.0754 559.047ZM61.0754 567.34V582.995L50.0052 571.926L53.2479 564.097L61.0754 567.34ZM44.1402 566.061L40.3946 562.306L42.8976 559.803L46.1632 561.156L44.1402 566.061ZM40.9677 573.724L34.9771 588.185L28.9863 573.722L34.9771 567.731L40.9677 573.724ZM25.8123 566.059L23.7843 561.161L27.0499 559.806L29.5513 562.309L25.8123 566.059ZM19.9473 571.924L8.93741 582.936V567.317L16.7046 564.098L19.9473 571.924ZM8.93741 559.025V553.742H12.4185L13.7738 557.007L8.93741 559.025ZM1.27478 562.2L-13.1737 568.184L-7.18301 553.742H1.28625L1.27478 562.2ZM-4.022 546.089L-2.00223 541.213L1.27478 542.57V546.089H-4.022ZM-12.3148 546.089H-27.952L-16.903 535.042L-9.08029 538.281L-12.3148 546.089ZM-11.0396 529.178L-7.31036 525.447L-4.8024 527.955L-6.14789 531.203L-11.0396 529.178ZM-18.7023 526.004L-33.1459 520.021L-18.7137 514.044L-12.7279 520.03L-18.7023 526.004ZM-43.1516 515.861L-96.0798 493.938H-38.8002L-24.5721 508.166L-43.1516 515.861ZM-114.578 486.275L-180.405 459.008L-181.67 430.271L-160.454 410.841L-94.6364 438.108L-46.4693 486.275H-114.578ZM-76.1386 445.764L-23.2185 467.694L-15.5183 486.285H-35.626L-76.1386 445.764ZM-39.2786 408.886L1.28296 449.448V469.531L-17.3536 461.816L-39.2786 408.886ZM-46.9412 390.39L-74.2087 324.563L-54.7786 303.346L-26.0416 304.609L1.27966 370.573V438.621L-46.9412 390.39ZM8.94559 389.063L30.838 441.917L23.1492 460.48L8.944 446.275L8.94559 389.063ZM61.0836 388.922V446.217L46.8213 460.479L39.1325 441.916L61.0836 388.922ZM68.7462 370.423L96.0464 304.514L124.783 303.252L144.213 324.468L116.908 390.39L68.7413 438.557L68.7462 370.423ZM109.252 408.883L87.3257 461.816L68.7413 469.518V449.394L109.252 408.883ZM146.106 445.764L105.595 486.275H85.4871L93.1873 467.684L146.106 445.764ZM164.605 438.102L230.516 410.8L251.732 430.23L250.468 458.967L184.548 486.272H116.432L164.605 438.102ZM166.05 493.943L113.12 515.861L94.5393 508.171L108.767 493.943H166.05ZM166.04 546.082H108.745L94.5262 531.862L113.119 524.161L166.04 546.082ZM184.54 553.745L250.449 581.045L251.711 609.782L230.496 629.212L164.573 601.909L116.406 553.742L184.54 553.745ZM146.076 594.248L93.1465 572.323L85.4512 553.742H105.574L146.076 594.248ZM109.203 631.111L68.7413 590.652V570.509L87.2767 578.183L109.203 631.111ZM116.866 649.609L144.166 715.515L124.736 736.733L95.999 735.467L68.7413 669.686V601.488L116.866 649.609ZM61.0836 651.186L39.1325 598.191L46.8392 579.577L61.0836 593.822V651.186ZM8.94559 651.046V593.766L23.1296 579.582L30.838 598.196L8.94559 651.046ZM1.28296 669.544L-25.9845 735.372L-54.7214 736.638L-74.1516 715.422L-46.8841 649.604L1.29272 601.429L1.28296 669.544ZM-39.2312 631.106L-17.3112 578.188L1.28296 570.486V590.592L-39.2312 631.106ZM-76.1125 594.251L-35.6064 553.742H-15.4792L-23.1843 572.324L-76.1125 594.251ZM-94.6087 601.909L-160.431 629.176L-181.647 609.746L-180.382 581.009L-114.571 553.742H-46.4417L-94.6087 601.909ZM-96.0782 546.077L-43.1548 524.156L-24.5574 531.862L-38.779 546.084L-96.0782 546.077ZM-116.106 546.077H-187.344L-199.508 520.007L-187.344 493.938H-116.101L-53.1621 520.008L-116.106 546.077ZM-268.541 545.963L-294.611 519.893L-268.542 493.824H-220.238L-208.074 519.893L-220.238 545.963H-268.541ZM-308.583 493.824H-279.368L-300.019 514.473L-308.572 505.919L-308.583 493.824ZM-316.246 498.258L-320.677 493.828H-316.242L-316.246 498.258ZM-305.448 519.891L-308.583 523.027V516.759L-305.448 519.891ZM-279.368 545.968H-308.577V533.869L-300.022 525.315L-279.368 545.968ZM-316.238 545.968H-320.677L-316.241 541.532L-316.238 545.968ZM-331.511 545.968H-353.106L-368.379 530.695V509.098L-353.109 493.828H-331.509L-316.239 509.098V530.695L-331.511 545.968ZM-368.377 498.263V493.828H-363.946L-368.377 498.263ZM-368.377 486.166V456.96L-347.726 477.612L-356.28 486.166H-368.377ZM-342.307 483.029L-339.17 486.166H-345.446L-342.307 483.029ZM-336.889 477.612L-316.238 456.96V486.166H-328.335L-336.889 477.612ZM-308.575 449.298L-274.422 415.143L-247.385 424.974L-237.552 452.01L-271.71 486.166H-308.577L-308.575 449.298ZM-257.884 326.872L-231.815 300.803L-205.746 326.872V375.177L-231.816 387.342L-257.884 375.177V326.872ZM-257.884 316.036V286.833H-245.786L-237.232 295.385L-257.884 316.036ZM-257.884 279.17V274.734L-253.449 279.17H-257.884ZM-265.546 279.17H-294.753L-274.102 258.518L-265.548 267.071L-265.546 279.17ZM-268.683 253.099L-265.546 249.964V256.236L-268.683 253.099ZM-274.1 247.682L-294.753 227.022H-265.548V239.119L-274.1 247.682ZM-257.884 227.03H-253.451L-257.884 231.465V227.03ZM-257.884 219.368V190.162L-237.232 210.813L-245.788 219.368H-257.884ZM-231.815 216.231L-228.678 219.368H-234.956L-231.815 216.231ZM-226.397 210.813L-205.746 190.162V219.368H-217.845L-226.397 210.813ZM-205.746 227.03V231.465L-210.18 227.03H-205.746ZM-198.083 227.03H-168.879L-189.529 247.682L-198.083 239.127V227.03ZM-158.041 227.03H-109.738L-97.5722 253.099L-109.738 279.17H-158.042L-184.113 253.099L-158.041 227.03ZM-150.378 219.368L-118.193 187.182L-129.046 157.337L-105.382 147.625L-91.9424 176.425H-46.4236L-78.6107 208.612L-67.7592 238.451L-91.4215 248.163L-104.863 219.363L-150.378 219.368ZM-35.5934 176.425H1.27649V213.29L-32.8781 247.447L-59.9137 237.616L-69.7463 210.578L-35.5934 176.425ZM-27.9307 168.764L-7.27768 148.111L1.27649 156.665V168.764H-27.9307ZM-1.86014 142.694L1.27649 139.557V145.829L-1.86014 142.694ZM-7.27768 137.275L-27.9194 116.621H1.28625V128.719L-7.27768 137.275ZM8.93912 116.623H13.3721L8.93912 121.058V116.623ZM8.93912 108.962V79.7548L29.5889 100.406L21.0347 108.96L8.93912 108.962ZM35.0081 105.825L38.143 108.962H31.8715L35.0081 105.825ZM40.4257 100.408L61.0771 79.7565V108.962H48.9847L40.4257 100.408ZM61.0771 116.623V121.054L56.6425 116.62L61.0771 116.623ZM68.7397 116.623H97.9437L77.2938 137.275L68.7397 128.72V116.623ZM71.8747 142.694L68.7397 145.829V139.557L71.8747 142.694ZM77.2938 148.111L97.9453 168.764H68.7413V156.665L77.2938 148.111ZM105.608 176.425L139.767 210.578L129.935 237.616L102.899 247.447L68.7413 213.29V176.424L105.608 176.425ZM116.445 176.425H161.973L175.408 147.638L198.952 157.405L188.098 187.264L220.283 219.449H174.758L161.32 248.238L137.775 238.469L148.633 208.611L116.445 176.425ZM227.938 227.112L254.008 253.182L227.938 279.251H179.637L167.472 253.182L179.637 227.112H227.938ZM238.776 227.112H267.982V239.209L259.427 247.758L238.776 227.112ZM275.644 227.112H280.079L275.644 231.546V227.112ZM275.644 219.449V190.244L296.296 210.895L287.74 219.449H275.644ZM301.713 216.314L304.85 219.449H298.577L301.713 216.314ZM307.131 210.895L327.782 190.244V219.449H315.685L307.131 210.895ZM327.782 227.112V231.546L323.348 227.112H327.782ZM335.445 227.112H364.65L344.001 247.758L335.446 239.204L335.445 227.112ZM338.581 253.182L335.445 256.319V250.044L338.581 253.182ZM343.999 258.6L364.65 279.251H335.446V267.156L343.999 258.6ZM327.782 279.251H323.348L327.782 274.818V279.251ZM327.782 286.914V316.12L307.128 295.468L315.682 286.914H327.782ZM327.782 326.956V375.259L301.715 387.423L275.644 375.259V326.956L301.713 300.887L327.782 326.956ZM378.439 449.298V486.166H341.579L307.423 452.01L317.256 424.974L344.291 415.143L378.439 449.298ZM386.102 456.96L406.753 477.612L398.198 486.166H386.102V456.96ZM412.171 483.029L415.307 486.166H409.034L412.171 483.029ZM417.588 477.612L438.24 456.96V486.166H426.143L417.588 477.612ZM438.24 493.828V498.263L433.805 493.828H438.24ZM445.903 493.828H475.108L454.458 514.478L445.904 505.924L445.903 493.828ZM449.039 519.896L445.903 523.032V516.759L449.039 519.896ZM454.457 525.315L475.11 545.968H445.904V533.869L454.457 525.315ZM438.24 545.968H433.804L438.24 541.532V545.968ZM438.24 553.631V582.833L417.588 562.182L426.141 553.631H438.24ZM412.171 556.764L409.036 553.631H415.304L412.171 556.764ZM406.753 562.182L386.102 582.833V553.631H398.201L406.753 562.182ZM378.441 590.496L344.286 624.65L317.251 614.818L307.418 587.782L341.569 553.631H378.441V590.496ZM327.751 712.827L301.682 738.899L275.615 712.827V664.521L301.682 652.357L327.753 664.521L327.751 712.827ZM327.751 723.662V752.868H315.654L307.1 744.314L327.751 723.662ZM327.751 760.53V764.965L323.317 760.53H327.751ZM335.414 760.53H364.619L343.968 781.188L335.414 772.634V760.53ZM338.55 786.599L335.414 789.736V783.463L338.55 786.599ZM343.968 792.017L364.619 812.668H335.414V800.571L343.968 792.017ZM327.751 812.668H323.317L327.751 808.234V812.668ZM327.751 820.331V849.537L307.1 828.885L315.654 820.331H327.751ZM301.682 823.468L298.546 820.331H304.819L301.682 823.468ZM296.265 828.885L275.615 849.537V820.331H287.712L296.265 828.885ZM275.615 812.668V808.234L280.049 812.668H275.615ZM267.952 812.668H238.745L259.396 792.017L267.951 800.571L267.952 812.668ZM227.911 812.668H179.607L167.441 786.598L179.607 760.53H227.911L253.98 786.599L227.911 812.668ZM220.249 820.331L188.06 852.52L198.921 882.388L175.409 892.219L161.973 863.44H116.451L148.638 831.253L137.777 801.386L161.289 791.552L174.72 820.331H220.249ZM105.618 863.436H68.7413V826.58L102.896 792.427L129.932 802.259L139.767 829.288L105.618 863.436ZM97.9551 871.099L77.302 891.752L68.7479 883.198V871.099H97.9551ZM71.8845 897.17L68.7479 900.308V894.033L71.8845 897.17ZM77.302 902.587L97.9534 923.24H68.7413V911.143L77.302 902.587ZM61.0836 923.24H56.6489L61.0836 918.806V923.24ZM61.0836 930.903V960.109L40.4321 939.457L48.9847 930.914L61.0836 930.903ZM35.0146 934.04L31.878 930.903H38.1512L35.0146 934.04ZM29.597 939.457L8.94559 960.109V930.914H21.0429L29.597 939.457ZM8.94559 923.24V918.806L13.3802 923.24H8.94559ZM1.28296 923.24H-27.9194L-7.26624 902.587L1.28952 911.143L1.28296 923.24ZM-1.85526 897.17L1.28296 894.033V900.308L-1.85526 897.17ZM-7.2728 891.752L-27.9194 871.102H1.28952V883.201L-7.2728 891.752ZM-35.5934 863.44L-69.7447 829.288L-59.9121 802.253L-32.8764 792.42L1.28296 826.58V863.446L-35.5934 863.44ZM-46.4286 863.44H-91.9424L-105.379 892.232L-129.016 882.457L-118.16 852.603L-150.349 820.413H-104.823L-91.3872 791.62L-67.7494 801.399L-78.6058 831.253L-46.4286 863.44ZM-158.016 812.752L-184.085 786.681L-158.011 760.615H-109.707L-97.5428 786.684L-109.707 812.755L-158.016 812.752ZM-168.851 812.752H-198.055V800.653L-189.501 792.099L-168.851 812.752ZM-205.719 812.752H-210.154L-205.719 808.315V812.752ZM-205.719 820.413V849.62L-226.371 828.967L-217.812 820.413H-205.719ZM-231.788 823.549L-234.925 820.413H-228.652L-231.788 823.549ZM-237.206 828.967L-257.857 849.62V820.413H-245.76L-237.206 828.967ZM-257.857 812.752V808.315L-253.423 812.752H-257.857ZM-265.52 812.752H-294.716L-274.064 792.099L-265.51 800.653L-265.52 812.752ZM-268.657 786.681L-265.52 783.544V789.818L-268.657 786.681ZM-274.074 781.263L-294.716 760.615H-265.51V772.712L-274.074 781.263ZM-257.857 760.612H-253.423L-257.857 765.047V760.612ZM-257.857 752.949V723.744L-237.206 744.395L-245.76 752.949H-257.857ZM-257.857 712.909V664.608L-231.788 652.443L-205.719 664.608V712.912L-231.788 738.981L-257.857 712.909ZM-308.577 590.496V553.631H-271.707L-237.554 587.782L-247.386 614.818L-274.424 624.65L-308.577 590.496ZM-316.239 582.833L-336.891 562.182L-328.338 553.631H-316.239V582.833ZM-342.308 556.764L-345.443 553.631H-339.175L-342.308 556.764ZM-347.727 562.182L-368.379 582.833V553.631H-356.28L-347.727 562.182ZM-368.379 545.968V541.532L-363.943 545.968H-368.379ZM-376.041 545.968H-405.255L-384.602 525.315L-376.048 533.869L-376.041 545.968ZM-379.176 519.896L-376.041 516.759V523.032L-379.176 519.896ZM-384.594 514.478L-405.245 493.828H-376.041V505.924L-384.594 514.478ZM-368.379 397.819L-342.308 385.655L-316.239 397.819V446.123L-342.308 472.194L-368.379 446.123V397.819ZM-302.414 286.833H-265.546V323.699L-299.701 357.854L-326.736 348.023L-336.569 320.987L-302.414 286.833ZM-305.59 227.022L-279.521 253.091L-305.592 279.162H-353.894L-366.059 253.091L-353.894 227.022H-305.59ZM-265.548 182.491V219.359H-302.416L-336.571 185.203L-326.738 158.168L-299.702 148.337L-265.548 182.491ZM-205.747 179.319L-231.816 205.388L-257.885 179.319V131.023L-231.818 118.858L-205.747 131.024V179.319ZM-136.894 158.168L-127.062 185.203L-161.218 219.359H-198.085V182.491L-163.93 148.345L-136.894 158.168ZM-38.7643 116.613L-12.6953 142.684L-38.761 168.763H-87.0636L-99.2278 142.692L-87.0636 116.621L-38.7643 116.613ZM1.27808 72.084V108.952H-35.5902L-69.7447 74.7961L-59.9121 47.7605L-32.8764 37.9295L1.27808 72.084ZM61.0787 68.9099L35.0097 94.9789L8.9407 68.9099V20.6155L35.0081 8.45127L61.0787 20.6171V68.9099ZM105.608 108.952H68.7413V72.084L102.896 37.9295L129.932 47.7605L139.767 74.8043L105.608 108.952ZM169.25 142.684L157.086 168.755H108.789L82.718 142.692L108.787 116.621H157.091L169.25 142.684ZM267.978 182.574V219.441H231.11L196.956 185.288L206.788 158.251L233.824 148.42L267.978 182.574ZM327.779 179.4L301.71 205.469L275.641 179.4V131.108L301.712 118.94L327.779 131.106V179.4ZM372.31 219.441H335.442V182.583L369.596 148.428L396.632 158.259L406.464 185.296L372.31 219.441ZM375.484 279.243L349.417 253.182L375.486 227.112H423.788L435.954 253.182L423.788 279.251L375.484 279.243ZM406.469 321.07L396.637 348.106L369.601 357.938L335.446 323.784V286.916H372.315L406.469 321.07ZM438.242 446.125L412.173 472.196L386.104 446.125V397.819L412.174 385.655L438.242 397.819V446.125ZM482.771 486.167H445.904V449.299L480.059 415.145L507.094 424.976L516.927 452.011L482.771 486.167ZM485.947 545.97L459.876 519.899L485.945 493.83H534.247L546.413 519.899L534.247 545.968L485.947 545.97ZM445.904 590.496V553.631H482.774L516.927 587.782L507.094 614.818L480.059 624.65L445.904 590.496ZM438.24 641.974L412.173 654.138L386.102 641.974V593.67L412.171 567.601L438.24 593.67V641.974ZM372.276 752.868H335.407V716L369.562 681.845L396.597 691.678L406.43 718.713L372.276 752.868ZM375.448 812.668L349.379 786.599L375.448 760.53H423.754L435.918 786.598L423.754 812.668H375.448ZM335.407 857.199V820.331H372.276L406.43 854.486L396.604 881.521L369.568 891.354L335.407 857.199ZM275.615 860.378L301.684 834.309L327.751 860.378V908.681L301.681 920.845L275.613 908.681L275.615 860.378ZM206.76 881.521L196.928 854.486L231.082 820.331H267.951V857.199L233.796 891.354L206.76 881.521ZM108.794 923.244L82.718 897.173L108.789 871.102H157.091L169.255 897.173L157.091 923.24L108.794 923.244ZM68.7413 967.774V930.914H105.611L139.767 965.057L129.935 992.096L102.899 1001.93L68.7413 967.774ZM8.9407 970.947L35.0097 944.878L61.0787 970.947V1019.25L35.0081 1031.41L8.9407 1019.25V970.947ZM-35.5934 930.914H1.27808V967.783L-32.8764 1001.94L-59.9121 992.105L-69.7447 965.066L-35.5934 930.914ZM-99.2327 897.181L-87.0685 871.111H-38.761L-12.6904 897.181L-38.761 923.24H-87.0636L-99.2327 897.181ZM-198.055 857.276V820.408H-161.187L-127.029 854.567L-136.862 881.604L-163.897 891.437L-198.055 857.276ZM-257.856 860.45L-231.787 834.379L-205.718 860.45V908.754L-231.787 920.919L-257.856 908.754V860.45ZM-302.39 820.413H-265.522V857.276L-299.676 891.431L-326.705 881.604L-336.538 854.569L-302.39 820.413ZM-305.556 760.615L-279.487 786.684L-305.556 812.755H-353.862L-366.026 786.684L-353.862 760.615H-305.556ZM-336.538 718.798L-326.705 691.763L-299.67 681.93L-265.515 716.084V752.953H-302.39L-336.538 718.798ZM-368.377 593.673L-342.307 567.604L-316.238 593.673V641.977L-342.307 654.142L-368.377 641.977V593.673ZM-412.91 553.634H-376.04V590.496L-410.193 624.65L-437.23 614.818L-447.063 587.782L-412.91 553.634ZM-464.385 545.971L-476.549 519.901L-464.385 493.832H-416.081L-390.012 519.901L-416.082 545.971H-464.385Z" fill="#2575F0"/>
</g>
</g>
</svg>
