<svg width="1424" height="803" viewBox="0 0 1424 803" fill="none" xmlns="http://www.w3.org/2000/svg">
<g opacity="0.7">
<path d="M1150.06 -18L1121.08 238.972M1121.08 238.972L1405.82 66.3978M1121.08 238.972L864.068 317.072M1121.08 238.972L971.158 368.718L881.706 444.298M1121.08 238.972L1285.5 249L1317 368.718M1121.08 238.972L1141.24 528.696M1407.08 68.9171L1317 368.718M1317 368.718L1471.33 258.5M1317 368.718L1416 444.298M1317 368.718L1141.24 528.696M1471.33 258.5L1409.6 67.6574M1471.33 258.5L1416 444.298M1416 444.298L1141.24 528.696M1416 444.298L1365.5 708.5M1416 444.298L1476.5 613L1365.5 708.5M1141.24 528.696L1047.5 664.5M1141.24 528.696L1182.5 754.5M1141.24 528.696L1013.99 487.127L881.706 444.298M1141.24 528.696L1307.5 562.5M1047.5 664.5L881.706 676M1047.5 664.5L1182.5 754.5M1182.5 754.5L881.706 676M1182.5 754.5L1365.5 708.5M1182.5 754.5L1307.5 562.5M1182.5 754.5L1013.99 790L881.706 676M1182.5 754.5L1248.69 843M881.706 676L621.5 649.5L708.5 754.5L881.706 676ZM881.706 676L860.288 894M881.706 676L867.847 591.68L881.706 444.298M865.328 315.812L881.706 444.298M881.706 444.298L766 315.812M1365.5 708.5L1307.5 562.5M1365.5 708.5L1329.5 790" stroke="#222D68" stroke-width="2"/>
<path d="M-97.8589 480.412L54.8953 673.901M54.8953 673.901L255.5 498.001M54.8953 673.901L32.4999 1000L-4.7516 921.501M54.8953 673.901L158.186 704.452L255.5 498.001M54.8953 673.901L230.5 899.501M54.8953 673.901L-4.7516 704.452V921.501M255.5 498.001L85.4462 368.393M-4.7516 921.501L-100.769 480.412M386.955 -20.4541L462.24 169.085M462.24 169.085L543.709 121.076L616.449 75.9775M462.24 169.085L297.847 295.653M462.24 169.085L549.528 -44.1374M462.24 169.085L595 258.501L616.449 75.9775M462.24 169.085L361.859 132.715L273.116 102.164M297.847 295.653L273.116 102.164M297.847 295.653L85.4462 368.393M549.528 -44.1374L616.449 75.9775M549.528 -44.1374L729.924 -114.602M273.116 102.164L187.282 222.912L85.4462 368.393M273.116 102.164L385.5 -18.9992M273.116 102.164L133.5 -1.49922M133.5 -1.49922L85.4462 368.393M133.5 -1.49922L-4.7516 121.076L85.4462 368.393M-99.3137 480.412L85.4462 368.393M616.449 75.9775L732.5 -108.999M616.449 75.9775L749.5 233.001" stroke="#222D68" stroke-width="2"/>
</g>
</svg>
