<svg width="350" height="289" viewBox="0 0 350 289" fill="none" xmlns="http://www.w3.org/2000/svg">
<g clip-path="url(#clip0_3352_2754)">
<path d="M46.7324 94.1417L75.0969 122.526L85.3351 80.6904L46.7324 94.1417Z" fill="#7032FF"/>
<path opacity="0.2" d="M46.7324 94.1417L75.0969 122.526L85.3351 80.6904L46.7324 94.1417Z" fill="black"/>
<path opacity="0.2" d="M85.3351 80.6904L46.7324 94.1417L81.2141 97.5568L85.3351 80.6904Z" fill="black"/>
<path d="M150.531 278.147L216.243 297.913L208.451 242.497L150.531 278.147Z" fill="url(#paint0_linear_3352_2754)"/>
<path opacity="0.2" d="M150.531 278.147L216.243 297.913L208.451 242.497L150.531 278.147Z" fill="#2575F0"/>
<path opacity="0.2" d="M150.531 278.147H213.458L208.451 242.497L150.531 278.147Z" fill="black"/>
<path d="M241.74 259.234L150.53 278.147L145.523 210.858L241.74 259.234Z" fill="url(#paint1_linear_3352_2754)"/>
<path opacity="0.05" d="M241.742 250.321L148.713 244.812L145.525 201.945L241.742 250.321Z" fill="black"/>
<path d="M32.4375 221.749L241.742 259.235L228.96 175L32.4375 221.749Z" fill="url(#paint2_linear_3352_2754)"/>
<path opacity="0.2" d="M32.4375 221.749L241.742 259.235L228.96 175L32.4375 221.749Z" fill="#224A94"/>
<path opacity="0.2" d="M32.4375 221.749L235.544 218.431L228.96 175L32.4375 221.749Z" fill="black"/>
<path d="M289.327 89.2932L136.977 41.3359L167.627 108.721L289.327 89.2932Z" fill="url(#paint3_linear_3352_2754)"/>
<path opacity="0.2" d="M289.327 89.2932L146.828 63.0029L167.627 108.721L289.327 89.2932Z" fill="black"/>
<path d="M313 195.81L32 225L74.9276 70L289.727 91.2735L313 195.81Z" fill="url(#paint4_linear_3352_2754)"/>
<path opacity="0.2" d="M301.609 149.043C296.457 146.45 290.63 145 284.48 145C263.328 145 246.184 162.156 246.184 183.324C246.184 189.494 247.648 195.309 250.24 200.48L312.523 194.488L301.609 149.043Z" fill="black"/>
<path opacity="0.2" d="M67.2891 96.1716L122.247 101.6L130.103 74.6818L75.2253 69.6396L67.2891 96.1716Z" fill="black"/>
<g opacity="0.1">
<path d="M261 86.9608L239.709 85L108 217L133.719 214.522L261 86.9608Z" fill="url(#paint5_linear_3352_2754)"/>
<path d="M98.2105 218.064L231 84.9065L188.608 81L47 223L98.2105 218.064Z" fill="url(#paint6_linear_3352_2754)"/>
</g>
<path d="M122.515 94.2273H47L56.2885 56H135.844L122.515 94.2273Z" fill="#2575F0"/>
<g opacity="0.2">
<path d="M77.0287 94.1423L115.229 55.915H93.7061L55.5059 94.1423H77.0287Z" fill="url(#paint7_linear_3352_2754)"/>
<path d="M130.071 55.915H119.317L81.1172 94.1423H91.8706L130.071 55.915Z" fill="url(#paint8_linear_3352_2754)"/>
</g>
<path d="M289.297 226.648C310.448 226.648 327.594 209.49 327.594 188.324C327.594 167.158 310.448 150 289.297 150C268.146 150 251 167.158 251 188.324C251 209.49 268.146 226.648 289.297 226.648Z" fill="#2575F0"/>
<g opacity="0.2">
<path d="M296.299 150.493L251.676 195.148C253.189 203.364 257.31 210.661 263.154 216.138L317.275 161.979C311.801 156.131 304.509 151.991 296.299 150.493Z" fill="url(#paint9_linear_3352_2754)"/>
<path d="M325.646 175.994C324.358 172.128 322.458 168.535 320.076 165.313L266.502 218.925C269.705 221.309 273.295 223.194 277.175 224.499L325.646 175.994Z" fill="url(#paint10_linear_3352_2754)"/>
</g>
<path d="M296.072 69.6403L312.524 35.1182L332.18 41.3363L296.072 69.6403Z" fill="url(#paint11_linear_3352_2754)"/>
<path opacity="0.3" d="M316.628 44.2199L312.523 35.1182L332.179 41.3363L316.628 44.2199Z" fill="url(#paint12_linear_3352_2754)"/>
<path d="M315.855 127.296L341.338 116.132L349.194 128.923L315.855 127.296Z" fill="url(#paint13_linear_3352_2754)"/>
<path opacity="0.6" d="M349.194 128.923L339.262 123.107L315.855 127.296L349.194 128.923Z" fill="url(#paint14_linear_3352_2754)"/>
<path opacity="0.3" d="M339.262 123.107L341.338 116.132L349.194 128.923L339.262 123.107Z" fill="url(#paint15_linear_3352_2754)"/>
<path d="M185.512 40.1762L185.608 17.9615L197.489 16.3506L185.512 40.1762Z" fill="url(#paint16_linear_3352_2754)"/>
<path opacity="0.6" d="M197.489 16.3506L190.035 21.7311L185.512 40.1762L197.489 16.3506Z" fill="url(#paint17_linear_3352_2754)"/>
<path opacity="0.3" d="M190.034 21.7311L185.607 17.9615L197.488 16.3506L190.034 21.7311Z" fill="url(#paint18_linear_3352_2754)"/>
<path d="M328.107 207.487L350.001 224.676L342.451 237.66L328.107 207.487Z" fill="url(#paint19_linear_3352_2754)"/>
<path opacity="0.6" d="M342.451 237.66L342.869 226.158L328.107 207.487L342.451 237.66Z" fill="url(#paint20_linear_3352_2754)"/>
<path opacity="0.3" d="M342.87 226.158L350.001 224.676L342.451 237.66L342.87 226.158Z" fill="url(#paint21_linear_3352_2754)"/>
<path d="M238.473 39.6775L237.652 11.8568L252.462 9.34375L238.473 39.6775Z" fill="url(#paint22_linear_3352_2754)"/>
<path opacity="0.6" d="M252.462 9.34375L243.35 16.3835L238.473 39.6775L252.462 9.34375Z" fill="url(#paint23_linear_3352_2754)"/>
<path opacity="0.3" d="M243.351 16.3835L237.652 11.8568L252.462 9.34375L243.351 16.3835Z" fill="url(#paint24_linear_3352_2754)"/>
<path d="M112.798 32.7662L95.7988 10.7288L106.295 0L112.798 32.7662Z" fill="url(#paint25_linear_3352_2754)"/>
<path opacity="0.6" d="M106.294 0L103.059 11.0509L112.798 32.7662L106.294 0Z" fill="url(#paint26_linear_3352_2754)"/>
<path opacity="0.3" d="M103.059 11.0509L95.7988 10.7288L106.295 0L103.059 11.0509Z" fill="url(#paint27_linear_3352_2754)"/>
<path d="M60.9468 233.423L40.261 252.029L28.7832 242.347L60.9468 233.423Z" fill="url(#paint28_linear_3352_2754)"/>
<path opacity="0.6" d="M28.7832 242.347L40.0356 244.748L60.9468 233.423L28.7832 242.347Z" fill="url(#paint29_linear_3352_2754)"/>
<path opacity="0.3" d="M40.0356 244.748L40.261 252.029L28.7832 242.348L40.0356 244.748Z" fill="url(#paint30_linear_3352_2754)"/>
<path d="M273.213 239.513L305.457 258.232L297.843 276.87L273.213 239.513Z" fill="url(#paint31_linear_3352_2754)"/>
<path opacity="0.6" d="M297.843 276.87L296.281 261.518L273.213 239.513L297.843 276.87Z" fill="url(#paint32_linear_3352_2754)"/>
<path opacity="0.3" d="M296.281 261.518L305.457 258.231L297.843 276.87L296.281 261.518Z" fill="url(#paint33_linear_3352_2754)"/>
<path d="M123.181 259.697L111.783 278.771L100.74 274.099L123.181 259.697Z" fill="url(#paint34_linear_3352_2754)"/>
<path opacity="0.6" d="M100.74 274.099L109.9 273.277L123.181 259.697L100.74 274.099Z" fill="url(#paint35_linear_3352_2754)"/>
<path opacity="0.3" d="M109.9 273.277L111.783 278.771L100.74 274.099L109.9 273.277Z" fill="url(#paint36_linear_3352_2754)"/>
<path d="M46.6838 126.748L12.8139 146.015L0 129.342L46.6838 126.748Z" fill="url(#paint37_linear_3352_2754)"/>
<path opacity="0.6" d="M0 129.342L14.6813 135.995L46.6838 126.748L0 129.342Z" fill="url(#paint38_linear_3352_2754)"/>
<path opacity="0.3" d="M14.6813 135.995L12.8139 146.015L0 129.342L14.6813 135.995Z" fill="url(#paint39_linear_3352_2754)"/>
<path d="M30.3929 51.0023L8.24219 32.4444L16.5165 19.2188L30.3929 51.0023Z" fill="url(#paint40_linear_3352_2754)"/>
<path opacity="0.6" d="M16.5163 19.2188L15.6953 31.1557L30.3927 51.0023L16.5163 19.2188Z" fill="url(#paint41_linear_3352_2754)"/>
<path opacity="0.3" d="M15.6955 31.1557L8.24219 32.4444L16.5165 19.2188L15.6955 31.1557Z" fill="url(#paint42_linear_3352_2754)"/>
<g filter="url(#filter0_d_3352_2754)">
<path d="M89.6765 125.123C92.5201 127.384 93.9243 131.603 93.9243 137.705C93.9243 146.219 91.3967 151.87 85.3935 151.87H71V99.1301H84.6914C90.5892 99.1301 93.1169 104.932 93.1169 113.37C93.1169 119.021 91.9584 122.938 89.6765 125.123ZM84.1999 109.904H76.8276V120.301H84.1999C86.2712 120.301 87.2893 118.568 87.2893 115.103C87.2893 111.637 86.2712 109.904 84.1999 109.904ZM76.8276 141.096H84.6563C87.0786 141.096 88.0967 139.363 88.0967 135.521C88.0967 131.678 87.0786 129.945 84.6563 129.945L76.8276 130.021V141.096Z" fill="white"/>
<path d="M105.3 151.87H99.4728V99.1301H105.3V151.87Z" fill="white"/>
<path d="M130.024 132.507H123.88V123.014H135.606V143.281C132.903 149.76 129.111 153 124.302 153C120.019 153 116.684 150.438 114.261 145.315C111.874 140.116 110.681 133.562 110.681 125.575C110.681 117.664 111.874 111.034 114.261 105.836C116.649 100.637 119.878 98 123.916 98C130.48 98 134.728 105.459 135.606 117.438H129.884C129.111 112.089 127.18 109.377 124.091 109.377C119.317 109.377 116.578 115.856 116.578 125.726C116.578 135.596 119.317 142.151 124.793 142.151C126.935 142.151 128.69 141.171 130.024 139.137V132.507Z" fill="white"/>
<path d="M162.966 153C158.894 153 155.664 150.438 153.277 145.24C150.89 140.041 149.696 133.411 149.696 125.5C149.696 117.589 150.89 111.034 153.277 105.836C155.664 100.637 158.894 98 162.966 98C167.073 98 170.303 100.637 172.69 105.836C175.078 111.034 176.271 117.589 176.271 125.5C176.271 133.411 175.078 140.041 172.69 145.24C170.303 150.438 167.073 153 162.966 153ZM162.966 141.623C167.705 141.623 170.373 135.144 170.373 125.5C170.373 115.856 167.705 109.377 162.966 109.377C158.297 109.377 155.594 115.856 155.594 125.5C155.594 135.144 158.297 141.623 162.966 141.623Z" fill="white"/>
<path d="M202.715 99.1301V110.205H187.514V122.637H202.048V133.637H187.514V151.87H181.686V99.1301H202.715Z" fill="white"/>
<path d="M229.611 99.1301V110.205H214.41V122.637H228.944V133.637H214.41V151.87H208.582V99.1301H229.611Z" fill="white"/>
<path d="M256.506 99.1301V110.13H241.305V120.829H255.945V130.623H241.305V140.87H256.506V151.87H235.478V99.1301H256.506Z" fill="white"/>
<path d="M281.542 134.24L286 151.87H280.137L276.416 136.877H268.201V151.87H262.374V99.1301H275.925C282.384 99.1301 285.473 106.589 285.473 118.041C285.473 125.726 284.174 131.151 281.542 134.24ZM275.222 110.205H268.201V125.801H275.222C278.312 125.801 279.646 123.24 279.646 118.041C279.646 112.692 278.312 110.205 275.222 110.205Z" fill="white"/>
</g>
<path d="M71.3992 183.513L76.2747 183.193L76.3755 184.73L71.5 185.05L71.3992 183.513ZM71.8995 188.784L70.0834 188.903L69.4414 179.124L76.5801 178.655L76.68 180.178L71.3575 180.527L71.8995 188.784ZM85.4562 188.034C84.6925 188.084 83.9811 188.005 83.322 187.795C82.6628 187.586 82.0811 187.273 81.5768 186.858C81.0719 186.432 80.6691 185.926 80.3686 185.337C80.0675 184.74 79.8931 184.078 79.8454 183.351C79.7977 182.625 79.8844 181.951 80.1054 181.328C80.3258 180.696 80.6588 180.141 81.1045 179.663C81.5495 179.176 82.0851 178.785 82.7112 178.491C83.3373 178.198 84.0275 178.026 84.7819 177.977C85.5456 177.926 86.2523 178.006 86.9021 178.216C87.5613 178.425 88.1433 178.743 88.6482 179.168C89.1526 179.584 89.5553 180.09 89.8564 180.688C90.1569 181.276 90.331 181.934 90.3787 182.66C90.4264 183.386 90.34 184.066 90.1196 184.697C89.8992 185.329 89.5662 185.884 89.1206 186.362C88.6749 186.841 88.1391 187.227 87.5129 187.52C86.8962 187.813 86.2106 187.984 85.4562 188.034ZM85.3377 186.442C85.8313 186.41 86.2821 186.296 86.6902 186.101C87.0983 185.906 87.4459 185.645 87.7331 185.317C88.0196 184.98 88.2333 184.601 88.374 184.181C88.5235 183.75 88.5817 183.283 88.5487 182.78C88.5156 182.277 88.3972 181.827 88.1934 181.428C87.9982 181.02 87.7369 180.673 87.4094 180.386C87.0812 180.089 86.7021 179.871 86.272 179.731C85.8419 179.591 85.3801 179.537 84.8864 179.569C84.3928 179.602 83.942 179.715 83.5339 179.91C83.1351 180.105 82.7878 180.371 82.4919 180.708C82.2048 181.036 81.9865 181.415 81.837 181.846C81.6963 182.267 81.6424 182.728 81.6755 183.231C81.7079 183.725 81.8216 184.176 82.0168 184.584C82.2213 184.991 82.4876 185.343 82.8157 185.64C83.1432 185.927 83.522 186.141 83.9521 186.281C84.3822 186.421 84.8441 186.475 85.3377 186.442ZM94.6204 187.292L93.9784 177.513L98.0018 177.249C98.8679 177.192 99.6175 177.283 100.251 177.522C100.893 177.761 101.399 178.13 101.768 178.629C102.138 179.129 102.346 179.737 102.393 180.454C102.44 181.171 102.313 181.802 102.012 182.345C101.711 182.879 101.257 183.307 100.651 183.627C100.054 183.938 99.3228 184.121 98.4567 184.178L95.4392 184.376L96.1953 183.499L96.4365 187.173L94.6204 187.292ZM101.019 186.872L98.313 183.486L100.255 183.359L102.974 186.744L101.019 186.872ZM96.2082 183.694L95.341 182.881L98.2747 182.689C99.0757 182.636 99.6651 182.424 100.043 182.054C100.43 181.682 100.603 181.189 100.563 180.574C100.522 179.95 100.286 179.484 99.854 179.176C99.4315 178.867 98.8198 178.739 98.0189 178.791L95.0852 178.984L95.8367 178.037L96.2082 183.694ZM111.308 186.197L115.066 176.129L116.855 176.011L121.911 185.5L120.011 185.625L115.647 177.059L116.373 177.011L113.18 186.074L111.308 186.197ZM113.185 183.8L113.58 182.343L118.861 181.997L119.443 183.39L113.185 183.8ZM131.007 184.903L130.365 175.124L132.181 175.005L132.722 183.247L137.835 182.912L137.936 184.448L131.007 184.903ZM141.366 184.223L140.724 174.444L142.54 174.325L143.182 184.104L141.366 184.223ZM147.822 183.799L147.18 174.02L148.675 173.922L153.419 180.78L152.636 180.832L156.373 173.417L157.867 173.319L158.523 183.097L156.805 183.21L156.326 176.128L156.689 176.104L153.505 182.304L152.694 182.357L148.671 176.63L149.09 176.603L149.555 183.686L147.822 183.799ZM163.16 182.792L162.518 173.014L164.334 172.894L164.976 182.673L163.16 182.792ZM171.601 182.238L171.06 173.996L167.819 174.209L167.718 172.672L176.016 172.127L176.117 173.664L172.876 173.877L173.417 182.119L171.601 182.238ZM181.318 175.862L186.18 175.543L186.278 177.038L181.416 177.357L181.318 175.862ZM181.733 180.044L187.251 179.682L187.351 181.204L180.017 181.686L179.375 171.907L186.513 171.438L186.613 172.961L181.291 173.31L181.733 180.044ZM191.371 180.94L190.729 171.161L195.004 170.881C196.066 170.811 197.01 170.955 197.838 171.312C198.666 171.669 199.327 172.196 199.822 172.894C200.317 173.591 200.597 174.433 200.661 175.42C200.726 176.398 200.558 177.269 200.16 178.034C199.76 178.79 199.174 179.399 198.4 179.862C197.626 180.324 196.708 180.59 195.646 180.66L191.371 180.94ZM193.086 179.285L195.461 179.129C196.197 179.08 196.821 178.899 197.334 178.585C197.855 178.27 198.244 177.852 198.5 177.33C198.765 176.807 198.875 176.211 198.831 175.54C198.787 174.86 198.599 174.283 198.269 173.809C197.947 173.325 197.507 172.961 196.948 172.717C196.399 172.473 195.757 172.375 195.021 172.423L192.646 172.579L193.086 179.285ZM212.749 179.537L212.208 171.295L208.967 171.508L208.866 169.971L217.164 169.426L217.265 170.963L214.024 171.176L214.565 179.418L212.749 179.537ZM221.164 178.985L220.522 169.206L222.339 169.086L222.981 178.865L221.164 178.985ZM227.621 178.561L226.979 168.782L228.474 168.684L233.217 175.542L232.435 175.593L236.171 168.178L237.666 168.08L238.322 177.858L236.604 177.971L236.125 170.889L236.488 170.865L233.303 177.065L232.493 177.118L228.469 171.392L228.889 171.364L229.354 178.447L227.621 178.561ZM244.261 171.73L249.122 171.411L249.22 172.906L244.359 173.225L244.261 171.73ZM244.675 175.912L250.194 175.549L250.294 177.072L242.959 177.554L242.317 167.775L249.456 167.306L249.556 168.829L244.233 169.178L244.675 175.912Z" fill="#182049"/>
<path d="M276.259 166.144C275.643 166.144 275.087 166.024 274.591 165.784C274.095 165.536 273.699 165.164 273.403 164.668C273.115 164.172 272.971 163.544 272.971 162.784V157.6H274.507V162.796C274.507 163.452 274.663 163.94 274.975 164.26C275.295 164.58 275.735 164.74 276.295 164.74C276.847 164.74 277.283 164.58 277.603 164.26C277.923 163.94 278.083 163.452 278.083 162.796V157.6H279.619V162.784C279.619 163.544 279.467 164.172 279.163 164.668C278.859 165.164 278.451 165.536 277.939 165.784C277.435 166.024 276.875 166.144 276.259 166.144ZM281.187 166V157.6H284.295C284.967 157.6 285.523 157.712 285.963 157.936C286.403 158.16 286.731 158.468 286.947 158.86C287.163 159.252 287.271 159.692 287.271 160.18C287.271 160.644 287.167 161.072 286.959 161.464C286.751 161.848 286.427 162.16 285.987 162.4C285.547 162.632 284.983 162.748 284.295 162.748H282.723V166H281.187ZM282.723 161.5H284.199C284.735 161.5 285.119 161.384 285.351 161.152C285.591 160.912 285.711 160.588 285.711 160.18C285.711 159.764 285.591 159.44 285.351 159.208C285.119 158.968 284.735 158.848 284.199 158.848H282.723V161.5ZM293.292 166V158.836H290.844V157.6H297.288V158.836H294.828V166H293.292ZM302.057 166.144C301.217 166.144 300.481 165.96 299.849 165.592C299.225 165.224 298.733 164.716 298.373 164.068C298.021 163.412 297.845 162.656 297.845 161.8C297.845 160.944 298.021 160.192 298.373 159.544C298.733 158.888 299.225 158.376 299.849 158.008C300.481 157.64 301.217 157.456 302.057 157.456C302.889 157.456 303.621 157.64 304.253 158.008C304.885 158.376 305.377 158.888 305.729 159.544C306.081 160.192 306.257 160.944 306.257 161.8C306.257 162.656 306.081 163.412 305.729 164.068C305.377 164.716 304.885 165.224 304.253 165.592C303.621 165.96 302.889 166.144 302.057 166.144ZM302.057 164.764C302.857 164.764 303.493 164.5 303.965 163.972C304.445 163.444 304.685 162.72 304.685 161.8C304.685 160.88 304.445 160.156 303.965 159.628C303.493 159.1 302.857 158.836 302.057 158.836C301.257 158.836 300.617 159.1 300.137 159.628C299.657 160.156 299.417 160.88 299.417 161.8C299.417 162.72 299.657 163.444 300.137 163.972C300.617 164.5 301.257 164.764 302.057 164.764Z" fill="white"/>
<path d="M282.897 219.144C282.057 219.144 281.321 218.96 280.689 218.592C280.065 218.224 279.573 217.716 279.213 217.068C278.861 216.412 278.685 215.656 278.685 214.8C278.685 213.944 278.861 213.192 279.213 212.544C279.573 211.888 280.065 211.376 280.689 211.008C281.321 210.64 282.057 210.456 282.897 210.456C283.729 210.456 284.461 210.64 285.093 211.008C285.725 211.376 286.217 211.888 286.569 212.544C286.921 213.192 287.097 213.944 287.097 214.8C287.097 215.656 286.921 216.412 286.569 217.068C286.217 217.716 285.725 218.224 285.093 218.592C284.461 218.96 283.729 219.144 282.897 219.144ZM282.897 217.764C283.697 217.764 284.333 217.5 284.805 216.972C285.285 216.444 285.525 215.72 285.525 214.8C285.525 213.88 285.285 213.156 284.805 212.628C284.333 212.1 283.697 211.836 282.897 211.836C282.097 211.836 281.457 212.1 280.977 212.628C280.497 213.156 280.257 213.88 280.257 214.8C280.257 215.72 280.497 216.444 280.977 216.972C281.457 217.5 282.097 217.764 282.897 217.764ZM288.453 219V210.6H293.877V211.836H289.989V214.188H293.133V215.4H289.989V219H288.453ZM295.062 219V210.6H300.486V211.836H296.598V214.188H299.742V215.4H296.598V219H295.062Z" fill="white"/>
<path d="M266.284 204.436V178.42L264 179.688V175.086L267.357 171.564H268.926V204.436H266.284Z" fill="white"/>
<path d="M277.322 205C276.038 205 274.939 204.296 274.025 202.887C273.111 201.447 272.403 199.459 271.9 196.923C271.41 194.355 271.165 191.381 271.165 188C271.165 184.65 271.41 181.692 271.9 179.124C272.403 176.557 273.111 174.569 274.025 173.16C274.939 171.72 276.038 171 277.322 171C278.607 171 279.706 171.72 280.62 173.16C281.533 174.569 282.235 176.557 282.725 179.124C283.228 181.692 283.48 184.65 283.48 188C283.48 191.381 283.228 194.355 282.725 196.923C282.235 199.459 281.533 201.447 280.62 202.887C279.706 204.296 278.607 205 277.322 205ZM277.322 199.599C278.368 199.599 279.223 198.566 279.885 196.5C280.547 194.434 280.878 191.6 280.878 188C280.878 184.4 280.547 181.566 279.885 179.5C279.223 177.434 278.368 176.401 277.322 176.401C276.263 176.401 275.402 177.434 274.74 179.5C274.091 181.566 273.767 184.4 273.767 188C273.767 191.6 274.091 194.434 274.74 196.5C275.402 198.566 276.263 199.599 277.322 199.599Z" fill="white"/>
<path d="M291.424 205C290.14 205 289.04 204.296 288.127 202.887C287.213 201.447 286.505 199.459 286.001 196.923C285.512 194.355 285.267 191.381 285.267 188C285.267 184.65 285.512 181.692 286.001 179.124C286.505 176.557 287.213 174.569 288.127 173.16C289.04 171.72 290.14 171 291.424 171C292.708 171 293.807 171.72 294.721 173.16C295.635 174.569 296.337 176.557 296.827 179.124C297.33 181.692 297.581 184.65 297.581 188C297.581 191.381 297.33 194.355 296.827 196.923C296.337 199.459 295.635 201.447 294.721 202.887C293.807 204.296 292.708 205 291.424 205ZM291.424 199.599C292.47 199.599 293.324 198.566 293.986 196.5C294.648 194.434 294.979 191.6 294.979 188C294.979 184.4 294.648 181.566 293.986 179.5C293.324 177.434 292.47 176.401 291.424 176.401C290.365 176.401 289.504 177.434 288.842 179.5C288.193 181.566 287.869 184.4 287.869 188C287.869 191.6 288.193 194.434 288.842 196.5C289.504 198.566 290.365 199.599 291.424 199.599Z" fill="white"/>
<path d="M302.685 187.718C302.05 187.718 301.474 187.39 300.957 186.732C300.441 186.043 300.03 185.073 299.726 183.82C299.421 182.568 299.269 181.081 299.269 179.359C299.269 177.637 299.421 176.15 299.726 174.898C300.03 173.645 300.441 172.691 300.957 172.033C301.474 171.344 302.056 171 302.705 171C303.341 171 303.91 171.344 304.413 172.033C304.93 172.691 305.34 173.645 305.645 174.898C305.949 176.15 306.102 177.637 306.102 179.359C306.102 181.081 305.949 182.568 305.645 183.82C305.34 185.073 304.93 186.043 304.413 186.732C303.897 187.39 303.321 187.718 302.685 187.718ZM301.93 204.436L309.776 171.564H312.259L304.413 204.436H301.93ZM302.685 183.539C303.069 183.539 303.4 183.194 303.678 182.506C303.956 181.785 304.095 180.737 304.095 179.359C304.095 177.982 303.956 176.933 303.678 176.213C303.414 175.493 303.082 175.133 302.685 175.133C302.288 175.133 301.95 175.493 301.672 176.213C301.407 176.933 301.275 177.982 301.275 179.359C301.275 180.737 301.407 181.785 301.672 182.506C301.95 183.194 302.288 183.539 302.685 183.539ZM311.584 205C310.948 205 310.372 204.671 309.856 204.014C309.339 203.325 308.929 202.355 308.624 201.102C308.32 199.85 308.167 198.363 308.167 196.641C308.167 194.919 308.32 193.448 308.624 192.227C308.929 190.974 309.339 190.019 309.856 189.362C310.372 188.673 310.955 188.329 311.604 188.329C312.239 188.329 312.809 188.673 313.312 189.362C313.828 190.019 314.239 190.974 314.543 192.227C314.848 193.448 315 194.919 315 196.641C315 198.363 314.848 199.85 314.543 201.102C314.239 202.355 313.828 203.325 313.312 204.014C312.809 204.671 312.232 205 311.584 205ZM311.584 200.82C311.981 200.82 312.312 200.476 312.577 199.787C312.855 199.067 312.994 198.018 312.994 196.641C312.994 195.263 312.855 194.215 312.577 193.494C312.312 192.774 311.981 192.414 311.584 192.414C311.186 192.414 310.849 192.774 310.571 193.494C310.306 194.215 310.173 195.263 310.173 196.641C310.173 198.018 310.306 199.067 310.571 199.787C310.849 200.476 311.186 200.82 311.584 200.82Z" fill="white"/>
<path d="M60.6899 79.144C60.0739 79.144 59.5299 79.04 59.0579 78.832C58.5859 78.616 58.2139 78.312 57.9419 77.92C57.6699 77.52 57.5299 77.036 57.5219 76.468H59.1419C59.1579 76.86 59.2979 77.192 59.5619 77.464C59.8339 77.728 60.2059 77.86 60.6779 77.86C61.0859 77.86 61.4099 77.764 61.6499 77.572C61.8899 77.372 62.0099 77.108 62.0099 76.78C62.0099 76.436 61.9019 76.168 61.6859 75.976C61.4779 75.784 61.1979 75.628 60.8459 75.508C60.4939 75.388 60.1179 75.26 59.7179 75.124C59.0699 74.9 58.5739 74.612 58.2299 74.26C57.8939 73.908 57.7259 73.44 57.7259 72.856C57.7179 72.36 57.8339 71.936 58.0739 71.584C58.3219 71.224 58.6579 70.948 59.0819 70.756C59.5059 70.556 59.9939 70.456 60.5459 70.456C61.1059 70.456 61.5979 70.556 62.0219 70.756C62.4539 70.956 62.7899 71.236 63.0299 71.596C63.2779 71.956 63.4099 72.384 63.4259 72.88H61.7819C61.7739 72.584 61.6579 72.324 61.4339 72.1C61.2179 71.868 60.9139 71.752 60.5219 71.752C60.1859 71.744 59.9019 71.828 59.6699 72.004C59.4459 72.172 59.3339 72.42 59.3339 72.748C59.3339 73.028 59.4219 73.252 59.5979 73.42C59.7739 73.58 60.0139 73.716 60.3179 73.828C60.6219 73.94 60.9699 74.06 61.3619 74.188C61.7779 74.332 62.1579 74.5 62.5019 74.692C62.8459 74.884 63.1219 75.14 63.3299 75.46C63.5379 75.772 63.6419 76.176 63.6419 76.672C63.6419 77.112 63.5299 77.52 63.3059 77.896C63.0819 78.272 62.7499 78.576 62.3099 78.808C61.8699 79.032 61.3299 79.144 60.6899 79.144ZM66.8325 79V71.836H64.3845V70.6H70.8285V71.836H68.3685V79H66.8325ZM70.5358 79L73.6078 70.6H75.3358L78.4078 79H76.7758L76.1038 77.056H72.8278L72.1438 79H70.5358ZM73.2478 75.856H75.6838L74.4598 72.364L73.2478 75.856ZM79.4898 79V70.6H82.5738C83.2458 70.6 83.7978 70.716 84.2298 70.948C84.6698 71.172 84.9978 71.48 85.2138 71.872C85.4298 72.256 85.5378 72.684 85.5378 73.156C85.5378 73.668 85.4018 74.136 85.1298 74.56C84.8658 74.984 84.4498 75.292 83.8818 75.484L85.6218 79H83.8578L82.2978 75.688H81.0258V79H79.4898ZM81.0258 74.56H82.4778C82.9898 74.56 83.3658 74.436 83.6058 74.188C83.8458 73.94 83.9658 73.612 83.9658 73.204C83.9658 72.804 83.8458 72.484 83.6058 72.244C83.3738 72.004 82.9938 71.884 82.4658 71.884H81.0258V74.56ZM88.9224 79V71.836H86.4744V70.6H92.9184V71.836H90.4584V79H88.9224ZM96.9156 79V70.6H98.4516L102.4 76.516V70.6H103.936V79H102.4L98.4516 73.096V79H96.9156ZM109.5 79.144C108.66 79.144 107.924 78.96 107.292 78.592C106.668 78.224 106.176 77.716 105.816 77.068C105.464 76.412 105.288 75.656 105.288 74.8C105.288 73.944 105.464 73.192 105.816 72.544C106.176 71.888 106.668 71.376 107.292 71.008C107.924 70.64 108.66 70.456 109.5 70.456C110.332 70.456 111.064 70.64 111.696 71.008C112.328 71.376 112.82 71.888 113.172 72.544C113.524 73.192 113.7 73.944 113.7 74.8C113.7 75.656 113.524 76.412 113.172 77.068C112.82 77.716 112.328 78.224 111.696 78.592C111.064 78.96 110.332 79.144 109.5 79.144ZM109.5 77.764C110.3 77.764 110.936 77.5 111.408 76.972C111.888 76.444 112.128 75.72 112.128 74.8C112.128 73.88 111.888 73.156 111.408 72.628C110.936 72.1 110.3 71.836 109.5 71.836C108.7 71.836 108.06 72.1 107.58 72.628C107.1 73.156 106.86 73.88 106.86 74.8C106.86 75.72 107.1 76.444 107.58 76.972C108.06 77.5 108.7 77.764 109.5 77.764ZM116.397 79L114.177 70.6H115.821L117.333 77.284L119.109 70.6H120.801L122.529 77.284L124.041 70.6H125.697L123.417 79H121.593L119.925 72.772L118.209 79H116.397Z" fill="white"/>
</g>
<defs>
<filter id="filter0_d_3352_2754" x="63" y="96" width="223" height="63" filterUnits="userSpaceOnUse" color-interpolation-filters="sRGB">
<feFlood flood-opacity="0" result="BackgroundImageFix"/>
<feColorMatrix in="SourceAlpha" type="matrix" values="0 0 0 0 0 0 0 0 0 0 0 0 0 0 0 0 0 0 127 0" result="hardAlpha"/>
<feOffset dx="-4" dy="2"/>
<feGaussianBlur stdDeviation="2"/>
<feComposite in2="hardAlpha" operator="out"/>
<feColorMatrix type="matrix" values="0 0 0 0 0.0941176 0 0 0 0 0.12549 0 0 0 0 0.286275 0 0 0 0.35 0"/>
<feBlend mode="normal" in2="BackgroundImageFix" result="effect1_dropShadow_3352_2754"/>
<feBlend mode="normal" in="SourceGraphic" in2="effect1_dropShadow_3352_2754" result="shape"/>
</filter>
<linearGradient id="paint0_linear_3352_2754" x1="150.525" y1="270.203" x2="216.244" y2="270.203" gradientUnits="userSpaceOnUse">
<stop stop-color="#224A94"/>
<stop offset="1" stop-color="#224A94"/>
</linearGradient>
<linearGradient id="paint1_linear_3352_2754" x1="145.527" y1="244.505" x2="241.742" y2="244.505" gradientUnits="userSpaceOnUse">
<stop stop-color="#35D8BF" stop-opacity="0.8"/>
<stop offset="1" stop-color="#00CDAE"/>
</linearGradient>
<linearGradient id="paint2_linear_3352_2754" x1="32.4399" y1="217.118" x2="241.743" y2="217.118" gradientUnits="userSpaceOnUse">
<stop stop-color="#9600C9"/>
<stop offset="1" stop-color="#00CDAE"/>
</linearGradient>
<linearGradient id="paint3_linear_3352_2754" x1="168.702" y1="109.801" x2="239.313" y2="39.24" gradientUnits="userSpaceOnUse">
<stop stop-color="#224A94"/>
<stop offset="1" stop-color="#2575F0"/>
</linearGradient>
<linearGradient id="paint4_linear_3352_2754" x1="70.3325" y1="266.385" x2="275.725" y2="76.1514" gradientUnits="userSpaceOnUse">
<stop stop-color="#35D8BF"/>
<stop offset="1" stop-color="#00CDAE"/>
</linearGradient>
<linearGradient id="paint5_linear_3352_2754" x1="113.818" y1="222.826" x2="255.505" y2="81.4505" gradientUnits="userSpaceOnUse">
<stop stop-color="#9600C9"/>
<stop offset="1" stop-color="#AA34C9"/>
</linearGradient>
<linearGradient id="paint6_linear_3352_2754" x1="58.5739" y1="234.603" x2="219.875" y2="73.7466" gradientUnits="userSpaceOnUse">
<stop stop-color="#9600C9"/>
<stop offset="1" stop-color="#AA34C9"/>
</linearGradient>
<linearGradient id="paint7_linear_3352_2754" x1="55.5064" y1="75.0287" x2="115.234" y2="75.0287" gradientUnits="userSpaceOnUse">
<stop stop-color="white"/>
<stop offset="1" stop-color="#FCF8FD" stop-opacity="0"/>
</linearGradient>
<linearGradient id="paint8_linear_3352_2754" x1="81.1096" y1="75.0287" x2="130.074" y2="75.0287" gradientUnits="userSpaceOnUse">
<stop stop-color="white"/>
<stop offset="1" stop-color="#FCF8FD" stop-opacity="0"/>
</linearGradient>
<linearGradient id="paint9_linear_3352_2754" x1="251.677" y1="183.311" x2="317.276" y2="183.311" gradientUnits="userSpaceOnUse">
<stop stop-color="white"/>
<stop offset="1" stop-color="#FCF8FD" stop-opacity="0"/>
</linearGradient>
<linearGradient id="paint10_linear_3352_2754" x1="266.501" y1="194.916" x2="325.645" y2="194.916" gradientUnits="userSpaceOnUse">
<stop stop-color="white"/>
<stop offset="1" stop-color="#FCF8FD" stop-opacity="0"/>
</linearGradient>
<linearGradient id="paint11_linear_3352_2754" x1="296.072" y1="52.3804" x2="332.186" y2="52.3804" gradientUnits="userSpaceOnUse">
<stop stop-color="#35D8BF"/>
<stop offset="1" stop-color="#2575F0"/>
</linearGradient>
<linearGradient id="paint12_linear_3352_2754" x1="312.516" y1="39.6704" x2="332.185" y2="39.6704" gradientUnits="userSpaceOnUse">
<stop stop-color="#2575F0"/>
<stop offset="1" stop-color="#2575F0"/>
</linearGradient>
<linearGradient id="paint13_linear_3352_2754" x1="324.067" y1="117.797" x2="343.957" y2="134.984" gradientUnits="userSpaceOnUse">
<stop stop-color="#00CDAE"/>
<stop offset="1" stop-color="#2575F0"/>
</linearGradient>
<linearGradient id="paint14_linear_3352_2754" x1="322.586" y1="119.51" x2="342.476" y2="136.698" gradientUnits="userSpaceOnUse">
<stop stop-color="#2575F0"/>
<stop offset="1" stop-color="#AA34C9"/>
</linearGradient>
<linearGradient id="paint15_linear_3352_2754" x1="339.164" y1="118.634" x2="349.997" y2="127.995" gradientUnits="userSpaceOnUse">
<stop stop-color="#9600C9"/>
<stop offset="1" stop-color="#AA34C9"/>
</linearGradient>
<linearGradient id="paint16_linear_3352_2754" x1="181.238" y1="31.1067" x2="200.225" y2="22.1634" gradientUnits="userSpaceOnUse">
<stop stop-color="#35D8BF"/>
<stop offset="1" stop-color="#2575F0"/>
</linearGradient>
<linearGradient id="paint17_linear_3352_2754" x1="182.009" y1="32.7429" x2="200.995" y2="23.7996" gradientUnits="userSpaceOnUse">
<stop stop-color="#35D8BF"/>
<stop offset="0.510064" stop-color="#1AD2B6"/>
<stop offset="1" stop-color="#00CDAE"/>
</linearGradient>
<linearGradient id="paint18_linear_3352_2754" x1="186.735" y1="20.3491" x2="197.075" y2="15.4785" gradientUnits="userSpaceOnUse">
<stop stop-color="#35D8BF"/>
<stop offset="1" stop-color="#2575F0"/>
</linearGradient>
<linearGradient id="paint19_linear_3352_2754" x1="340.362" y1="210.241" x2="334.604" y2="235.901" gradientUnits="userSpaceOnUse">
<stop stop-color="#510EE0"/>
<stop offset="1" stop-color="#2575F0"/>
</linearGradient>
<linearGradient id="paint20_linear_3352_2754" x1="338.153" y1="209.746" x2="332.395" y2="235.405" gradientUnits="userSpaceOnUse">
<stop stop-color="#510EE0"/>
<stop offset="1" stop-color="#2575F0"/>
</linearGradient>
<linearGradient id="paint21_linear_3352_2754" x1="346.762" y1="223.95" x2="343.627" y2="237.925" gradientUnits="userSpaceOnUse">
<stop stop-color="#510EE0"/>
<stop offset="1" stop-color="#8152E0"/>
</linearGradient>
<linearGradient id="paint22_linear_3352_2754" x1="232.738" y1="28.4953" x2="256.13" y2="16.5081" gradientUnits="userSpaceOnUse">
<stop stop-color="#2575F0"/>
<stop offset="1" stop-color="#2575F0"/>
</linearGradient>
<linearGradient id="paint23_linear_3352_2754" x1="233.771" y1="30.5112" x2="257.163" y2="18.524" gradientUnits="userSpaceOnUse">
<stop stop-color="#510EE0"/>
<stop offset="1" stop-color="#8152E0"/>
</linearGradient>
<linearGradient id="paint24_linear_3352_2754" x1="239.171" y1="14.8006" x2="251.91" y2="8.27237" gradientUnits="userSpaceOnUse">
<stop stop-color="#510EE0"/>
<stop offset="1" stop-color="#8152E0"/>
</linearGradient>
<linearGradient id="paint25_linear_3352_2754" x1="101.595" y1="27.0931" x2="113.471" y2="3.63398" gradientUnits="userSpaceOnUse">
<stop stop-color="#2575F0"/>
<stop offset="1" stop-color="#35D8BF"/>
</linearGradient>
<linearGradient id="paint26_linear_3352_2754" x1="103.614" y1="28.1156" x2="115.49" y2="4.65643" gradientUnits="userSpaceOnUse">
<stop stop-color="#2575F0"/>
<stop offset="1" stop-color="#35D8BF"/>
</linearGradient>
<linearGradient id="paint27_linear_3352_2754" x1="98.749" y1="12.2325" x2="105.217" y2="-0.544243" gradientUnits="userSpaceOnUse">
<stop stop-color="#2575F0"/>
<stop offset="1" stop-color="#35D8BF"/>
</linearGradient>
<linearGradient id="paint28_linear_3352_2754" x1="56.1235" y1="245.018" x2="31.8531" y2="234.935" gradientUnits="userSpaceOnUse">
<stop stop-color="#2575F0"/>
<stop offset="1" stop-color="#2575F0"/>
</linearGradient>
<linearGradient id="paint29_linear_3352_2754" x1="56.9924" y1="242.927" x2="32.7219" y2="232.844" gradientUnits="userSpaceOnUse">
<stop stop-color="#510EE0"/>
<stop offset="1" stop-color="#8152E0"/>
</linearGradient>
<linearGradient id="paint30_linear_3352_2754" x1="41.526" y1="248.962" x2="28.3072" y2="243.47" gradientUnits="userSpaceOnUse">
<stop stop-color="#510EE0"/>
<stop offset="1" stop-color="#8152E0"/>
</linearGradient>
<linearGradient id="paint31_linear_3352_2754" x1="289.98" y1="240.871" x2="287.12" y2="275.997" gradientUnits="userSpaceOnUse">
<stop stop-color="#35D8BF"/>
<stop offset="1" stop-color="#00CDAE"/>
</linearGradient>
<linearGradient id="paint32_linear_3352_2754" x1="286.957" y1="240.625" x2="284.097" y2="275.75" gradientUnits="userSpaceOnUse">
<stop stop-color="#9600C9"/>
<stop offset="1" stop-color="#AA34C9"/>
</linearGradient>
<linearGradient id="paint33_linear_3352_2754" x1="301.025" y1="257.871" x2="299.468" y2="277.002" gradientUnits="userSpaceOnUse">
<stop stop-color="#9600C9"/>
<stop offset="1" stop-color="#AA34C9"/>
</linearGradient>
<linearGradient id="paint34_linear_3352_2754" x1="122.237" y1="269.688" x2="101.345" y2="267.718" gradientUnits="userSpaceOnUse">
<stop stop-color="#35D8BF"/>
<stop offset="1" stop-color="#AA34C9"/>
</linearGradient>
<linearGradient id="paint35_linear_3352_2754" x1="122.407" y1="267.887" x2="101.515" y2="265.918" gradientUnits="userSpaceOnUse">
<stop stop-color="#35D8BF"/>
<stop offset="1" stop-color="#2575F0"/>
</linearGradient>
<linearGradient id="paint36_linear_3352_2754" x1="112.031" y1="276.142" x2="100.653" y2="275.07" gradientUnits="userSpaceOnUse">
<stop stop-color="#35D8BF"/>
<stop offset="1" stop-color="#2575F0"/>
</linearGradient>
<linearGradient id="paint37_linear_3352_2754" x1="36.6191" y1="141.182" x2="6.42118" y2="120.127" gradientUnits="userSpaceOnUse">
<stop stop-color="#35D8BF"/>
<stop offset="1" stop-color="#AA34C9"/>
</linearGradient>
<linearGradient id="paint38_linear_3352_2754" x1="38.4329" y1="138.581" x2="8.23498" y2="117.526" gradientUnits="userSpaceOnUse">
<stop stop-color="#35D8BF"/>
<stop offset="1" stop-color="#2575F0"/>
</linearGradient>
<linearGradient id="paint39_linear_3352_2754" x1="15.4676" y1="142.209" x2="-0.979558" y2="130.742" gradientUnits="userSpaceOnUse">
<stop stop-color="#35D8BF"/>
<stop offset="1" stop-color="#2575F0"/>
</linearGradient>
<linearGradient id="paint40_linear_3352_2754" x1="17.7658" y1="47.7434" x2="24.5952" y2="21.3105" gradientUnits="userSpaceOnUse">
<stop stop-color="#2575F0"/>
<stop offset="1" stop-color="#35D8BF"/>
</linearGradient>
<linearGradient id="paint41_linear_3352_2754" x1="20.0409" y1="48.3312" x2="26.8703" y2="21.8984" gradientUnits="userSpaceOnUse">
<stop stop-color="#2575F0"/>
<stop offset="1" stop-color="#35D8BF"/>
</linearGradient>
<linearGradient id="paint42_linear_3352_2754" x1="11.5807" y1="33.3053" x2="15.3002" y2="18.909" gradientUnits="userSpaceOnUse">
<stop stop-color="#2575F0"/>
<stop offset="1" stop-color="#35D8BF"/>
</linearGradient>
<clipPath id="clip0_3352_2754">
<rect width="350" height="289" fill="white"/>
</clipPath>
</defs>
</svg>
